<?xml version="1.0" encoding="UTF-8"?>
<!-- Generator: https://ezgif.com/png-to-svg -->
<svg version="1.1" xmlns="http://www.w3.org/2000/svg" width="64" height="64">
<path d="M0 0 C7.87 4.52 12.82 11 16.03 19.51 C18.26 27.81 17.27 36.44 13.47 44.12 C8.11 52.93 1.21 58.31 -8.83 60.77 C-19.09 62.42 -27.08 59.65 -35.6 54.09 C-41.51 49.65 -44.88 43.24 -46.82 36.25 C-47.94 25.34 -46.56 16.52 -39.57 7.94 C-29.25 -3 -13.87 -6.54 0 0 Z " fill="#AFE65F" transform="translate(46.82421875,2.75)"/>
<path d="M0 0 C1.32 0 2.64 0 4 0 C5.34 3.27 6.67 6.54 8 9.81 C8.38 10.74 8.76 11.67 9.16 12.63 C9.52 13.52 9.88 14.41 10.25 15.33 C10.59 16.15 10.92 16.98 11.27 17.82 C12 20 12 20 12 23 C13.65 23 15.3 23 17 23 C17 23.99 17 24.98 17 26 C16.01 26 15.02 26 14 26 C14.33 26.6 14.66 27.2 15 27.81 C16 30 16 30 16 33 C14.68 33 13.36 33 12 33 C11.62 31.34 11.29 29.68 11 28 C11.33 27.67 11.66 27.34 12 27 C3.75 26.67 -4.5 26.34 -13 26 C-13 25.01 -13 24.02 -13 23 C-12.38 22.91 -11.75 22.83 -11.11 22.74 C-8.89 22.21 -8.89 22.21 -7.95 20.34 C-7.7 19.64 -7.44 18.94 -7.18 18.22 C-6.89 17.46 -6.6 16.7 -6.31 15.92 C-6.02 15.12 -5.73 14.32 -5.44 13.5 C-4.86 11.92 -4.28 10.35 -3.68 8.78 C-3.43 8.08 -3.18 7.38 -2.92 6.66 C-2 5 -2 5 1 4 C0.67 2.68 0.34 1.36 0 0 Z " fill="#061705" transform="translate(30,14)"/>
<path d="M0 0 C3.13 1.56 3.42 4.17 4.62 7.38 C5.07 8.54 5.52 9.7 5.98 10.9 C7 14 7 14 7 17 C2.71 17 -1.58 17 -6 17 C-4.02 11.39 -2.04 5.78 0 0 Z " fill="#AEE55F" transform="translate(31,20)"/>
<path d="M0 0 C0.99 0 1.98 0 3 0 C3 1.65 3 3.3 3 5 C1.35 5.33 -0.3 5.66 -2 6 C-1.34 4.02 -0.68 2.04 0 0 Z " fill="#041504" transform="translate(19,41)"/>
</svg>
