<?xml version="1.0" encoding="UTF-8"?>
<!-- Generator: https://ezgif.com/png-to-svg -->
<svg version="1.1" xmlns="http://www.w3.org/2000/svg" width="64" height="64">
<path d="M0 0 C7.8 5.42 13.18 12.54 15 22 C15.85 32.33 13.78 40.44 7.8 48.93 C2.38 55.18 -5.59 59.38 -13.78 60.32 C-23.41 60.7 -31.36 58.51 -38.88 52.38 C-44.42 47.08 -48.62 39.73 -49.24 32 C-49.48 20.27 -47.37 12.58 -39.22 3.98 C-28.49 -5.59 -12.5 -7.47 0 0 Z " fill="#814625" transform="translate(49,4)"/>
<path d="M0 0 C0.74 0.01 1.49 0.02 2.25 0.03 C3.46 0.04 3.46 0.04 4.69 0.05 C5.96 0.08 5.96 0.08 7.25 0.1 C8.52 0.12 8.52 0.12 9.82 0.13 C11.92 0.15 14.02 0.19 16.12 0.23 C17.39 7.72 17.39 7.72 17.87 11.41 C17.99 12.25 18.11 13.09 18.23 13.96 C18.12 16.23 18.12 16.23 16.89 17.94 C13.61 20.32 10.12 20.98 6.12 21.23 C2.9 20.66 -0.01 19.81 -2.88 18.23 C-4.88 15.23 -4.88 15.23 -4.57 12.73 C-4.06 10.88 -3.49 9.05 -2.88 7.23 C-3.07 6.38 -3.25 5.54 -3.44 4.66 C-3.59 3.86 -3.73 3.06 -3.88 2.23 C-1.88 0.23 -1.88 0.23 0 0 Z " fill="#FDFDFC" transform="translate(14.87939453125,21.77294921875)"/>
<path d="M0 0 C0.66 0 1.32 0 2 0 C4.33 3.49 4.25 4.9 4 9 C3.68 10.34 3.34 11.67 3 13 C3.33 13.33 3.66 13.66 4 14 C4.04 16 4.04 18 4 20 C2.02 20.99 2.02 20.99 0 22 C-1.56 20.88 -1.56 20.88 -3 19 C-2.69 15.81 -2.69 15.81 -2 13 C-1.34 13 -0.68 13 0 13 C-0.52 12.3 -1.03 11.6 -1.56 10.88 C-3.3 7.39 -2.95 5.7 -2 2 C-1.34 2 -0.68 2 0 2 C0 1.34 0 0.68 0 0 Z " fill="#E5DAD3" transform="translate(49,21)"/>
<path d="M0 0 C0.6 0.19 1.2 0.37 1.81 0.56 C4.16 1.22 4.16 1.22 7 0 C6.67 1.32 6.34 2.64 6 4 C5.34 4 4.68 4 4 4 C4.49 4.72 4.99 5.44 5.5 6.19 C7.08 9.15 7.28 10.71 7 14 C6.01 14.33 5.02 14.66 4 15 C4.49 15.78 4.99 16.57 5.5 17.38 C7 20 7 20 7 22 C6.4 21.81 5.8 21.63 5.19 21.44 C2.84 20.78 2.84 20.78 0 22 C0.31 21.4 0.62 20.8 0.94 20.19 C2.1 17.91 2.1 17.91 3 15 C2.01 14.67 1.02 14.34 0 14 C-0.37 9.73 0.59 7.51 3 4 C2.01 3.67 1.02 3.34 0 3 C0 2.01 0 1.02 0 0 Z " fill="#E6DBD5" transform="translate(36,21)"/>
<path d="M0 0 C2.48 0.99 2.48 0.99 5 2 C4.67 3.65 4.34 5.3 4 7 C2.68 7 1.36 7 0 7 C-1.33 4.33 -0.67 2.83 0 0 Z " fill="#CDB6A9" transform="translate(48,35)"/>
<path d="M0 0 C0.6 0.19 1.2 0.37 1.81 0.56 C4.16 1.22 4.16 1.22 7 0 C6.67 1.32 6.34 2.64 6 4 C5.34 4 4.68 4 4 4 C3.67 4.99 3.34 5.98 3 7 C3 6.01 3 5.02 3 4 C2.01 3.67 1.02 3.34 0 3 C0 2.01 0 1.02 0 0 Z " fill="#F2ECE9" transform="translate(36,21)"/>
</svg>
