<?xml version="1.0" encoding="UTF-8"?>
<!-- Generator: https://ezgif.com/png-to-svg -->
<svg version="1.1" xmlns="http://www.w3.org/2000/svg" width="64" height="64">
<path d="M0 0 C21.12 0 42.24 0 64 0 C64 21.12 64 42.24 64 64 C42.88 64 21.76 64 0 64 C0 42.88 0 21.76 0 0 Z " fill="#182610" transform="translate(0,0)"/>
<path d="M0 0 C2.38 0.62 2.38 0.62 5 2 C6.31 5.12 6.31 5.12 7 8 C8.65 8.33 10.3 8.66 12 9 C12.66 7.35 13.32 5.7 14 4 C14.99 4.33 15.98 4.66 17 5 C17.69 7.06 17.69 7.06 18 9 C20.42 9.05 20.42 9.05 23 8 C24.03 5.68 25.04 3.35 26 1 C27.94 -0.19 27.94 -0.19 30 0 C32.25 1.94 32.25 1.94 34 4 C33.37 6.38 33.37 6.38 32 9 C28.88 10.31 28.88 10.31 26 11 C25.67 12.65 25.34 14.3 25 16 C27.47 16.99 27.47 16.99 30 18 C29.51 19.48 29.51 19.48 29 21 C26.94 21.69 26.94 21.69 25 22 C24.95 24.42 24.95 24.42 26 27 C28.32 28.03 30.65 29.04 33 30 C34.19 31.94 34.19 31.94 34 34 C32.06 36.25 32.06 36.25 30 38 C27.62 37.37 27.62 37.37 25 36 C23.69 32.88 23.69 32.88 23 30 C21.35 29.67 19.7 29.34 18 29 C17.01 31.47 17.01 31.47 16 34 C14.52 33.51 14.52 33.51 13 33 C12.31 30.94 12.31 30.94 12 29 C9.58 28.95 9.58 28.95 7 30 C5.97 32.32 4.96 34.65 4 37 C2.06 38.19 2.06 38.19 0 38 C-2.31 36.31 -2.31 36.31 -4 34 C-4.19 31.94 -4.19 31.94 -3 30 C-1.84 29.53 -0.69 29.05 0.5 28.56 C1.66 28.05 2.81 27.53 4 27 C5.05 24.42 5.05 24.42 5 22 C2.52 21.01 2.52 21.01 0 20 C0.33 19.01 0.66 18.02 1 17 C3.06 16.31 3.06 16.31 5 16 C5.05 13.58 5.05 13.58 4 11 C1.68 9.97 -0.65 8.96 -3 8 C-4.19 6.06 -4.19 6.06 -4 4 C-2.06 1.75 -2.06 1.75 0 0 Z " fill="#D5F7BF" transform="translate(17,13)"/>
</svg>
