<?xml version="1.0" encoding="UTF-8"?>
<!-- Generator: https://ezgif.com/png-to-svg -->
<svg version="1.1" xmlns="http://www.w3.org/2000/svg" width="64" height="64">
<path d="M0 0 C21.12 0 42.24 0 64 0 C64 21.12 64 42.24 64 64 C42.88 64 21.76 64 0 64 C0 42.88 0 21.76 0 0 Z " fill="#FE2A00" transform="translate(0,0)"/>
<path d="M0 0 C3.43 1.87 5.35 4.19 7.8 7.19 C11.19 11.21 15 14.82 18.75 18.5 C15.09 22.88 11.36 26.95 7.17 30.82 C5.57 32.72 5.32 34.13 4.75 36.5 C-0.81 39.43 -8.3 39.51 -14.34 37.96 C-20.08 35.66 -23.87 32.74 -26.56 27.19 C-28.93 21.28 -28.95 16.8 -26.62 10.88 C-21.22 -0.38 -11.36 -1.75 0 0 Z " fill="#FC2B02" transform="translate(41.25,12.5)"/>
<path d="M0 0 C1.81 1.88 1.81 1.88 2.12 5.06 C2.02 5.99 1.92 6.92 1.81 7.88 C0.66 7.36 -0.5 6.84 -1.69 6.31 C-6.11 4.68 -9.69 4.34 -14.19 5.88 C-17.64 7.96 -19.88 9.95 -21.19 13.88 C-21.74 18.62 -21.63 22 -19.44 26.31 C-16.85 29.26 -14.95 30.63 -11.04 31.18 C-5.98 31.2 -2.62 30.6 1.81 27.88 C1.81 30.19 1.81 32.49 1.81 34.88 C-3.11 37.29 -6.59 38.47 -12.19 37.88 C-17.59 36.01 -22.38 33.92 -25.38 28.86 C-28.08 23.32 -29.37 18.71 -27.49 12.62 C-25.06 6.42 -22.06 3.2 -16.34 -0.23 C-11.25 -2.34 -5.09 -1.8 0 0 Z " fill="#FDF8F5" transform="translate(41.1875,13.125)"/>
<path d="M0 0 C4.19 3.59 8.1 6.98 11.94 10.88 C12.71 11.66 13.48 12.44 14.28 13.24 C14.85 13.82 15.41 14.4 16 15 C11.32 20.64 6.38 26.01 1 31 C0.67 31 0.34 31 0 31 C0 20.77 0 10.54 0 0 Z " fill="#FEFCFB" transform="translate(44,16)"/>
</svg>
