<svg xmlns="http://www.w3.org/2000/svg" xmlns:xlink="http://www.w3.org/1999/xlink" width="500" zoomAndPan="magnify" viewBox="0 0 375 374.999991" height="500" preserveAspectRatio="xMidYMid meet" version="1.2"><g id="3cc077bbaf"><rect x="0" width="375" y="0" height="374.999991" style="fill:#ffffff;fill-opacity:1;stroke:none;"/><rect x="0" width="375" y="0" height="374.999991" style="fill:#ffffff;fill-opacity:1;stroke:none;"/><path style=" stroke:none;fill-rule:nonzero;fill:#000000;fill-opacity:1;" d="M 212.894531 281.105469 C 177.523438 288.742188 146.738281 280.671875 121.585938 254.816406 C 103.972656 236.714844 95.363281 214.523438 95.761719 189.089844 C 96.300781 155.152344 110.667969 128.359375 139.171875 110.25 C 193.335938 75.839844 267.550781 103.757812 281.777344 169.707031 C 292.945312 221.472656 261.417969 268.777344 212.894531 281.105469 M 211.144531 235.492188 C 212.164062 227.800781 208.863281 222.769531 201.363281 221.027344 C 191.601562 218.765625 183.355469 213.992188 176.703125 206.527344 C 167.226562 195.902344 166.851562 186.253906 175.339844 174.867188 C 177.082031 172.527344 179.089844 170.46875 181.304688 168.578125 C 187.574219 163.226562 194.855469 160.035156 202.796875 158.027344 C 208.738281 156.527344 212.3125 150.847656 211.351562 145.128906 C 210.367188 139.3125 205.261719 135.257812 199.1875 135.476562 C 193.359375 135.6875 189.71875 139.300781 187.789062 146.207031 C 183.109375 162.953125 173.757812 174.996094 155.488281 178.109375 C 149.289062 179.167969 145.367188 184.128906 145.414062 190.042969 C 145.460938 195.683594 149.496094 200.222656 155.582031 201.519531 C 157.667969 201.960938 159.820312 202.25 161.808594 202.976562 C 176.507812 208.355469 184.390625 219.53125 188.160156 234.179688 C 189.714844 240.210938 193.4375 243.683594 198.578125 244.050781 C 204.183594 244.449219 208.339844 241.761719 211.144531 235.492188 M 208.234375 183.78125 C 208.03125 184.242188 207.820312 184.699219 207.625 185.160156 C 205.679688 189.8125 206.570312 194.5625 210.035156 198.066406 C 213.273438 201.339844 218.75 202.441406 222.976562 200.675781 C 227.691406 198.707031 230.492188 194.453125 230.382812 189.425781 C 230.273438 184.320312 227.238281 180.289062 222.082031 178.410156 C 217.375 176.695312 212.535156 178.433594 208.234375 183.78125 Z M 208.234375 183.78125 "/></g></svg>