<?xml version="1.0" encoding="UTF-8"?>
<!-- Generator: https://ezgif.com/png-to-svg -->
<svg version="1.1" xmlns="http://www.w3.org/2000/svg" width="64" height="64">
<path d="M0 0 C21.12 0 42.24 0 64 0 C64 21.12 64 42.24 64 64 C42.88 64 21.76 64 0 64 C0 42.88 0 21.76 0 0 Z " fill="#010101" transform="translate(0,0)"/>
<path d="M0 0 C7.92 0 15.84 0 24 0 C24.33 0.99 24.66 1.98 25 3 C28.96 3 32.92 3 37 3 C37 4.65 37 6.3 37 8 C33.7 8 30.4 8 27 8 C26.67 7.01 26.34 6.02 26 5 C25.32 5.03 24.64 5.05 23.94 5.08 C20.85 5.18 17.77 5.25 14.69 5.31 C13.62 5.35 12.54 5.4 11.44 5.44 C10.41 5.46 9.38 5.47 8.32 5.49 C7.38 5.51 6.43 5.54 5.45 5.57 C4.64 5.38 3.83 5.19 3 5 C2.01 3.35 1.02 1.7 0 0 Z " fill="#FDFDFD" transform="translate(12,20)"/>
<path d="M0 0 C5.94 0 11.88 0 18 0 C18.33 1.32 18.66 2.64 19 4 C22.96 4 26.92 4 31 4 C31 5.65 31 7.3 31 9 C29.38 9.08 27.75 9.14 26.12 9.19 C25.22 9.22 24.32 9.26 23.38 9.29 C22.2 9.15 22.2 9.15 21 9 C20.34 8.01 19.68 7.02 19 6 C16.06 5.62 13.32 5.4 10.38 5.31 C9.57 5.28 8.77 5.24 7.95 5.21 C5.96 5.13 3.98 5.06 2 5 C1.34 3.35 0.68 1.7 0 0 Z " fill="#FDFDFD" transform="translate(18,28)"/>
<path d="M0 0 C2.12 -0.08 4.25 -0.14 6.38 -0.19 C7.56 -0.22 8.74 -0.26 9.96 -0.29 C11.47 -0.15 11.47 -0.15 13 0 C13.66 0.99 14.32 1.98 15 3 C17.66 3.58 17.66 3.58 20.62 3.69 C21.63 3.75 22.63 3.82 23.66 3.89 C24.43 3.92 25.21 3.96 26 4 C26 5.32 26 6.64 26 8 C22.7 8 19.4 8 16 8 C15.67 7.01 15.34 6.02 15 5 C14.17 5.06 13.34 5.12 12.48 5.18 C11.39 5.22 10.31 5.27 9.19 5.31 C7.57 5.4 7.57 5.4 5.92 5.49 C3 5 3 5 1.11 2.48 C0.75 1.66 0.38 0.84 0 0 Z " fill="#FCFCFC" transform="translate(23,37)"/>
<path d="M0 0 C0 1.65 0 3.3 0 5 C-3.3 5 -6.6 5 -10 5 C-10.33 4.01 -10.66 3.02 -11 2 C-18.59 2 -26.18 2 -34 2 C-34 1.67 -34 1.34 -34 1 C-10.21 -0.19 -10.21 -0.19 0 0 Z " fill="#DDDDDD" transform="translate(49,23)"/>
</svg>
