<?xml version="1.0" encoding="UTF-8"?>
<!-- Generator: https://ezgif.com/png-to-svg -->
<svg version="1.1" xmlns="http://www.w3.org/2000/svg" width="64" height="64">
<path d="M0 0 C21.12 0 42.24 0 64 0 C64 21.12 64 42.24 64 64 C42.88 64 21.76 64 0 64 C0 42.88 0 21.76 0 0 Z " fill="#010101" transform="translate(0,0)"/>
<path d="M0 0 C2.44 2.06 2.44 2.06 4 4 C2.02 4 0.04 4 -2 4 C-1.2 6.18 -1.2 6.18 0.93 6.68 C1.71 6.89 2.5 7.1 3.31 7.31 C7.58 8.64 9.6 10.1 12 14 C13.54 17.07 13.23 19.6 13 23 C11.42 26.98 10.59 28.61 7 31 C6.67 31.99 6.34 32.98 6 34 C5 37 5 37 2 39 C1.01 39 0.02 39 -1 39 C-1 39.66 -1 40.32 -1 41 C2.96 41 6.92 41 11 41 C11 41.33 11 41.66 11 42 C10.13 42.03 9.26 42.05 8.37 42.08 C1.46 42.42 -2.25 43.08 -8 47 C-12.69 47.46 -16.01 46.73 -19.81 43.94 C-21.99 41.01 -23.54 38.19 -25.01 34.87 C-26.6 31.87 -28 30.32 -31.26 29.27 C-32.06 29.12 -32.86 28.97 -33.69 28.81 C-34.9 28.57 -34.9 28.57 -36.14 28.33 C-36.75 28.22 -37.37 28.11 -38 28 C-38 27.67 -38 27.34 -38 27 C-35.69 27 -33.38 27 -31 27 C-31 26.34 -31 25.68 -31 25 C-31.99 24.67 -32.98 24.34 -34 24 C-32.68 24 -31.36 24 -30 24 C-30.33 22.35 -30.66 20.7 -31 19 C-32.98 18.67 -34.96 18.34 -37 18 C-37 17.67 -37 17.34 -37 17 C-36.17 16.89 -35.34 16.78 -34.48 16.66 C-31.1 16.05 -28.15 15.38 -25 14 C-23.56 11.73 -23.11 9.85 -22.57 7.23 C-21.7 3.84 -19.63 2.16 -17 0 C-12.32 -2.34 -4.93 -1.14 0 0 Z " fill="#D3E5F5" transform="translate(42,10)"/>
<path d="M0 0 C2.44 2.06 2.44 2.06 4 4 C2.02 4 0.04 4 -2 4 C-1.51 4.99 -1.51 4.99 -1 6 C1.31 6.73 3.65 7.4 6 8 C6 8.66 6 9.32 6 10 C-0.32 10.49 -0.32 10.49 -3.44 8.25 C-5 6 -5 6 -5 2 C-6.6 1.95 -8.21 1.91 -9.81 1.88 C-10.71 1.85 -11.6 1.83 -12.52 1.8 C-15.25 1.82 -15.25 1.82 -18 4 C-18.36 5.98 -18.36 5.98 -18.19 8.12 C-18.13 9.4 -18.06 10.68 -18 12 C-17.34 12 -16.68 12 -16 12 C-14.94 13.75 -14.94 13.75 -14 16 C-14.33 17.32 -14.66 18.64 -15 20 C-19.62 20 -24.24 20 -29 20 C-29 20.99 -29 21.98 -29 23 C-26.03 23 -23.06 23 -20 23 C-20 23.66 -20 24.32 -20 25 C-18.68 25.66 -17.36 26.32 -16 27 C-16 27.66 -16 28.32 -16 29 C-16.66 29.33 -17.32 29.66 -18 30 C-18.41 32.32 -18.74 34.66 -19 37 C-18.2 37.31 -17.39 37.62 -16.56 37.94 C-14 39 -14 39 -13 40 C-9.54 40.25 -9.54 40.25 -6 40 C-3.69 38.15 -3.69 38.15 -3.94 35.25 C-2.47 30.16 1.54 28.49 6 26 C7.33 25.32 8.66 24.65 10 24 C10.2 17.92 10.2 17.92 9 12 C8.34 12 7.68 12 7 12 C7.33 11.01 7.66 10.02 8 9 C12.14 14.07 13.44 16.33 13 23 C11.42 26.98 10.59 28.61 7 31 C6.67 31.99 6.34 32.98 6 34 C5 37 5 37 2 39 C1.01 39 0.02 39 -1 39 C-1 39.66 -1 40.32 -1 41 C2.96 41 6.92 41 11 41 C11 41.33 11 41.66 11 42 C10.13 42.03 9.26 42.05 8.37 42.08 C1.46 42.42 -2.25 43.08 -8 47 C-12.69 47.46 -16.01 46.73 -19.81 43.94 C-21.99 41.01 -23.54 38.19 -25.01 34.87 C-26.6 31.87 -28 30.32 -31.26 29.27 C-32.06 29.12 -32.86 28.97 -33.69 28.81 C-34.9 28.57 -34.9 28.57 -36.14 28.33 C-36.75 28.22 -37.37 28.11 -38 28 C-38 27.67 -38 27.34 -38 27 C-35.69 27 -33.38 27 -31 27 C-31 26.34 -31 25.68 -31 25 C-31.99 24.67 -32.98 24.34 -34 24 C-32.68 24 -31.36 24 -30 24 C-30.33 22.35 -30.66 20.7 -31 19 C-32.98 18.67 -34.96 18.34 -37 18 C-37 17.67 -37 17.34 -37 17 C-36.17 16.89 -35.34 16.78 -34.48 16.66 C-31.1 16.05 -28.15 15.38 -25 14 C-23.56 11.73 -23.11 9.85 -22.57 7.23 C-21.7 3.84 -19.63 2.16 -17 0 C-12.32 -2.34 -4.93 -1.14 0 0 Z " fill="#9CB0C5" transform="translate(42,10)"/>
<path d="M0 0 C0.66 0.33 1.32 0.66 2 1 C2.73 3.31 3.4 5.65 4 8 C7.3 8 10.6 8 14 8 C14 8.99 14 9.98 14 11 C14.66 11 15.32 11 16 11 C18.07 14.11 18.66 17.31 18.59 21.04 C17.79 23.72 16.6 24.37 14.25 25.81 C12.84 26.55 11.42 27.28 10 28 C9.22 28.6 8.43 29.2 7.62 29.81 C6 31 6 31 4 31 C4.06 31.93 4.12 32.86 4.19 33.81 C4 37 4 37 2.94 38.88 C-0 40.58 -2.68 40.19 -6 40 C-6.33 39.34 -6.66 38.68 -7 38 C-4.36 37.67 -1.72 37.34 1 37 C1.19 35.97 1.37 34.94 1.56 33.88 C2.86 29.22 6.02 26.56 10 24 C10.66 24 11.32 24 12 24 C12.99 21.03 13.98 18.06 15 15 C14.3 14.8 13.6 14.59 12.88 14.38 C11.97 14.11 11.06 13.84 10.12 13.56 C9.22 13.3 8.32 13.03 7.38 12.75 C5 12 5 12 3 11 C3 10.34 3 9.68 3 9 C2.34 9 1.68 9 1 9 C1 7.68 1 6.36 1 5 C-1.31 4.67 -3.62 4.34 -6 4 C-6.95 6.24 -6.95 6.24 -7 9 C-5.38 10.71 -3.71 12.38 -2 14 C-2 15.32 -2 16.64 -2 18 C-5.05 20.03 -5.6 20.25 -9.01 20.2 C-9.77 20.19 -10.53 20.18 -11.31 20.18 C-12.09 20.16 -12.88 20.14 -13.69 20.12 C-14.48 20.12 -15.28 20.11 -16.1 20.1 C-18.07 20.07 -20.03 20.04 -22 20 C-22 19.67 -22 19.34 -22 19 C-17.38 18.67 -12.76 18.34 -8 18 C-8.33 15.69 -8.66 13.38 -9 11 C-9.66 11 -10.32 11 -11 11 C-12.41 8.17 -12.32 6.13 -12 3 C-8.79 -1.02 -4.73 -0.3 0 0 Z " fill="#B9CDE0" transform="translate(35,11)"/>
<path d="M0 0 C1.47 2.93 1.02 5.68 0.94 8.91 C0.85 11.06 0.85 11.06 2 13 C5.67 15.49 9.7 15.57 14 16 C14.66 14.68 15.32 13.36 16 12 C20.95 12.33 25.9 12.66 31 13 C31 13.33 31 13.66 31 14 C29.7 14.04 29.7 14.04 28.37 14.08 C21.46 14.42 17.75 15.08 12 19 C7.31 19.46 3.99 18.73 0.19 15.94 C-1.99 13.01 -3.54 10.19 -5.01 6.87 C-6.08 4.85 -7.32 3.53 -9 2 C-6.02 1.23 -3.02 0.59 0 0 Z " fill="#7E91A5" transform="translate(22,38)"/>
<path d="M0 0 C5.9 5.75 5.9 5.75 6.25 10.25 C5.98 14.31 5.15 16.57 3 20 C2.01 20.66 1.02 21.32 0 22 C-0.33 22.99 -0.66 23.98 -1 25 C-2 28 -2 28 -5 30 C-5.99 30 -6.98 30 -8 30 C-8 28.68 -8 27.36 -8 26 C-7.01 26 -6.02 26 -5 26 C-4.98 25.3 -4.96 24.6 -4.94 23.88 C-3.87 20.6 -3.12 20.16 -0.44 18.19 C2.27 16.07 2.27 16.07 3.5 12.98 C3.5 9.58 3.08 6.23 2 3 C1.34 3 0.68 3 0 3 C0 2.01 0 1.02 0 0 Z " fill="#91A3B7" transform="translate(49,19)"/>
<path d="M0 0 C2.12 0.38 2.12 0.38 4 1 C4.33 2.65 4.66 4.3 5 6 C1.71 8.91 -0.6 10.5 -5 11 C-4.5 10.63 -4.01 10.26 -3.5 9.88 C-1.41 7.26 -1.93 5.26 -2 2 C-1.34 1.34 -0.68 0.68 0 0 Z " fill="#98AABD" transform="translate(10,14)"/>
<path d="M0 0 C9.11 -0.63 9.11 -0.63 12.56 1.81 C14 4 14 4 15 7 C14.01 8.48 14.01 8.48 13 10 C13.32 12.63 13.81 14.63 15 17 C12.52 16.01 12.52 16.01 10 15 C10 12.69 10 10.38 10 8 C10.99 7.67 11.98 7.34 13 7 C12.34 6.38 11.68 5.76 11 5.12 C9 3 9 3 9 1 C6.03 1 3.06 1 0 1 C0 0.67 0 0.34 0 0 Z " fill="#B6CBDD" transform="translate(13,32)"/>
<path d="M0 0 C4.29 0.33 8.58 0.66 13 1 C13 1.66 13 2.32 13 3 C7.02 5.21 2.26 4.93 -4 4 C-4 3.67 -4 3.34 -4 3 C-1.69 3 0.62 3 3 3 C3 2.34 3 1.68 3 1 C2.01 0.67 1.02 0.34 0 0 Z " fill="#8C9FB4" transform="translate(8,34)"/>
<path d="M0 0 C0.25 2.31 0.25 2.31 0 5 C-1.81 6.81 -1.81 6.81 -4 8 C-4.99 8 -5.98 8 -7 8 C-7 6.68 -7 5.36 -7 4 C-6.01 4 -5.02 4 -4 4 C-4 3.01 -4 2.02 -4 1 C-1 0 -1 0 0 0 Z " fill="#7B90A5" transform="translate(48,41)"/>
<path d="M0 0 C4.88 4.62 4.88 4.62 6 8 C4.35 8 2.7 8 1 8 C0.27 6.02 -0.39 4.02 -1 2 C-0.67 1.34 -0.34 0.68 0 0 Z " fill="#7A90A7" transform="translate(19,20)"/>
<path d="M0 0 C0.99 0 1.98 0 3 0 C3 0.66 3 1.32 3 2 C3.99 2.33 4.98 2.66 6 3 C6 4.98 6 6.96 6 9 C5.4 8.24 4.8 7.47 4.19 6.69 C2.53 4.65 0.9 2.8 -1 1 C-0.67 0.67 -0.34 0.34 0 0 Z " fill="#59697B" transform="translate(14,39)"/>
<path d="M0 0 C4.95 0.33 9.9 0.66 15 1 C15 1.33 15 1.66 15 2 C6.59 2.49 6.59 2.49 -2 3 C-1.34 2.01 -0.68 1.02 0 0 Z " fill="#8C9FB4" transform="translate(38,50)"/>
<path d="M0 0 C2.47 0.49 2.47 0.49 5 1 C5.33 2.32 5.66 3.64 6 5 C4.68 4.67 3.36 4.34 2 4 C2 3.01 2 2.02 2 1 C1.34 0.67 0.68 0.34 0 0 Z " fill="#94A5B7" transform="translate(7,40)"/>
</svg>
