<?xml version="1.0" encoding="UTF-8"?>
<!-- Generator: https://ezgif.com/png-to-svg -->
<svg version="1.1" xmlns="http://www.w3.org/2000/svg" width="64" height="64">
<path d="M0 0 C7.46 5.36 13.09 12.34 14.66 21.56 C15.51 32.67 13.85 40.82 6.68 49.48 C-0.13 56.47 -7.51 59.56 -17.22 59.87 C-27.15 59.65 -34.2 56.51 -41.34 49.56 C-48.44 40.98 -50.23 32.54 -49.34 21.56 C-47.76 12.49 -42.29 5.36 -34.84 0.12 C-24.12 -6.38 -10.74 -6.6 0 0 Z " fill="#000000" transform="translate(49.34375,4.44140625)"/>
<path d="M0 0 C0.09 4.27 0.14 8.54 0.19 12.81 C0.21 14.03 0.24 15.24 0.26 16.49 C0.28 18.24 0.28 18.24 0.29 20.02 C0.32 21.63 0.32 21.63 0.34 23.27 C0 26 0 26 -1.27 27.87 C-3 29 -3 29 -7 29 C-7 30.98 -7 32.96 -7 35 C-11.75 34.25 -11.75 34.25 -14 32 C-14.23 29.48 -14.23 29.48 -14.2 26.34 C-14.19 25.21 -14.18 24.09 -14.18 22.94 C-14.16 21.76 -14.14 20.59 -14.12 19.38 C-14.12 18.19 -14.11 17.01 -14.1 15.79 C-14.07 12.86 -14.04 9.93 -14 7 C-12.12 7.31 -12.12 7.31 -10 8 C-9.01 9.48 -9.01 9.48 -8 11 C-7.75 9.74 -7.51 8.48 -7.25 7.19 C-6.52 4.26 -6.18 3.18 -4 1 C-2 0 -2 0 0 0 Z " fill="#A7F000" transform="translate(43,16)"/>
<path d="M0 0 C0.11 2.56 0.19 5.12 0.25 7.69 C0.28 8.41 0.32 9.13 0.35 9.87 C0.42 13.76 0.24 15.61 -1.83 19.02 C-4 21 -4 21 -7 21 C-7.08 18.23 -7.14 15.46 -7.19 12.69 C-7.23 11.51 -7.23 11.51 -7.26 10.31 C-7.27 9.55 -7.28 8.79 -7.29 8.01 C-7.31 7.32 -7.32 6.62 -7.34 5.9 C-6.89 3.39 -5.98 2.56 -4 1 C-1 0 -1 0 0 0 Z " fill="#A3EA00" transform="translate(28,28)"/>
<path d="M0 0 C0.49 6.34 0.49 6.34 -1.81 9.44 C-4 11 -4 11 -7 11 C-7.49 4.66 -7.49 4.66 -5.19 1.56 C-3 0 -3 0 0 0 Z " fill="#ABF600" transform="translate(20,40)"/>
<path d="M0 0 C1.68 0.29 3.34 0.62 5 1 C5.33 1.99 5.66 2.98 6 4 C5.67 4.66 5.34 5.32 5 6 C3.35 6 1.7 6 0 6 C-0.38 4.34 -0.71 2.68 -1 1 C-0.67 0.67 -0.34 0.34 0 0 Z " fill="#9ADE00" transform="translate(45,13)"/>
<path d="M0 0 C0.99 0.33 1.98 0.66 3 1 C1.72 2.71 0.38 4.37 -1 6 C-1.66 6 -2.32 6 -3 6 C-1.12 1.12 -1.12 1.12 0 0 Z " fill="#87C200" transform="translate(39,17)"/>
</svg>
