<?xml version="1.0" encoding="UTF-8"?>
<!-- Generator: https://ezgif.com/png-to-svg -->
<svg version="1.1" xmlns="http://www.w3.org/2000/svg" width="64" height="64">
<path d="M0 0 C21.12 0 42.24 0 64 0 C64 21.12 64 42.24 64 64 C42.88 64 21.76 64 0 64 C0 42.88 0 21.76 0 0 Z " fill="#015EFF" transform="translate(0,0)"/>
<path d="M0 0 C0 2.97 0 5.94 0 9 C-1.73 9.68 -3.45 10.37 -5.18 11.05 C-7.27 12.14 -8.53 13.14 -10 15 C-11.23 19.15 -11.45 22.84 -9.88 26.88 C-6.92 30.22 -4.5 31.78 -0.06 32.44 C3.96 31.86 5.93 30.66 9 28 C10.32 25.69 11.12 23.53 12 21 C14.97 21 17.94 21 21 21 C20.77 28.35 19.35 32.82 14 38 C8.81 42.11 3.39 42.64 -3.1 42.38 C-9.61 41.53 -13.43 39.08 -17.44 33.94 C-21.65 27.96 -21.62 22.12 -21 15 C-19.25 8.29 -14.82 4.46 -9 1 C-5.8 -0.07 -3.34 -0.07 0 0 Z " fill="#FCFDFF" transform="translate(32,11)"/>
<path d="M0 0 C0 3.96 0 7.92 0 12 C3.96 12 7.92 12 12 12 C10.93 17.35 9.61 20.17 5.12 23.31 C2.18 24.26 0.08 24.37 -3 24 C-7.29 21.73 -10.26 19.6 -12 15 C-12.3 10.06 -11.73 6.92 -8.62 3 C-5.56 0.67 -3.85 0 0 0 Z " fill="#015DFF" transform="translate(32,20)"/>
<path d="M0 0 C0.33 0 0.66 0 1 0 C1 9.24 1 18.48 1 28 C-8.24 28 -17.48 28 -27 28 C-27 27.67 -27 27.34 -27 27 C-26.35 26.83 -25.7 26.66 -25.02 26.48 C-15.3 23.79 -8 19.07 -2.93 10.1 C-1.46 6.83 -0.54 3.54 0 0 Z " fill="#F8FBFF" transform="translate(63,36)"/>
<path d="M0 0 C1.4 2.81 2.66 5.55 3.88 8.44 C6.43 14.19 9.66 18.55 15 22 C18.95 23.5 22.95 24.79 27 26 C27 26.33 27 26.66 27 27 C18.09 27 9.18 27 0 27 C0 18.09 0 9.18 0 0 Z " fill="#FBFCFF" transform="translate(0,37)"/>
<path d="M0 0 C8.91 0 17.82 0 27 0 C27 8.91 27 17.82 27 27 C25.6 24.19 24.34 21.45 23.12 18.56 C20.57 12.81 17.34 8.45 12 5 C8.05 3.5 4.05 2.21 0 1 C0 0.67 0 0.34 0 0 Z " fill="#FBFCFF" transform="translate(37,0)"/>
<path d="M0 0 C8.91 0 17.82 0 27 0 C24.19 1.4 21.45 2.66 18.56 3.88 C14.32 5.75 10.16 7.69 8 12 C7.34 12 6.68 12 6 12 C5.6 13.21 5.6 13.21 5.19 14.44 C3.79 18.62 2.4 22.81 1 27 C0.67 27 0.34 27 0 27 C0 18.09 0 9.18 0 0 Z " fill="#FBFCFF" transform="translate(0,0)"/>
<path d="M0 0 C3.96 0 7.92 0 12 0 C12 3.96 12 7.92 12 12 C8.04 12 4.08 12 0 12 C0 8.04 0 4.08 0 0 Z " fill="#FFFFFF" transform="translate(32,20)"/>
</svg>
