<?xml version="1.0" encoding="UTF-8"?>
<!-- Generator: https://ezgif.com/png-to-svg -->
<svg version="1.1" xmlns="http://www.w3.org/2000/svg" width="64" height="64">
<path d="M0 0 C3.94 2.48 5.53 6.17 7.7 10.16 C10.02 13.57 12.84 15.17 16.32 17.28 C19.41 19.3 20.86 21.26 22.38 24.62 C23.19 29.41 22.87 32.67 20.62 37 C17.78 40.32 15.62 42.17 11.5 43.69 C7.47 46.19 6.1 49.09 3.96 53.25 C1.53 56.89 -1.36 58.27 -5.5 59.44 C-9.48 59.68 -11.94 59.2 -15.62 57.62 C-18.87 54.68 -21.21 51.32 -23.44 47.56 C-26.05 44.05 -28.91 42.37 -32.57 40.06 C-36.16 37.55 -37.23 34.88 -38.5 30.81 C-38.67 26.54 -37.69 23.36 -35.62 19.62 C-32.97 16.97 -30.59 15.61 -27.19 14 C-23.77 12.16 -22.43 9.93 -20.56 6.56 C-18.75 3.32 -17.78 1.74 -14.75 -0.5 C-9.14 -2.07 -5.36 -2.03 0 0 Z " fill="#DBBA55" transform="translate(39.625,3.375)"/>
<path d="M0 0 C3.12 2.19 3.12 2.19 5.12 5.19 C5.85 9.8 5.19 12.74 2.75 16.62 C0.71 19.17 -0.27 20.07 -3.5 20.69 C-6.01 20.69 -8.39 20.54 -10.88 20.19 C-11.54 21.51 -12.2 22.83 -12.88 24.19 C-13.2 22.87 -13.54 21.55 -13.88 20.19 C-15.52 20.19 -17.18 20.19 -18.88 20.19 C-18.81 21.21 -18.74 22.24 -18.66 23.29 C-18.15 34.1 -18.15 34.1 -20.21 37.19 C-21.88 38.44 -21.88 38.44 -24.88 40.19 C-24.88 41.18 -24.88 42.17 -24.88 43.19 C-33.9 40.33 -33.9 40.33 -36.88 35.19 C-38.73 30.88 -39.29 27.45 -37.81 22.94 C-35.58 17.96 -32.31 15.87 -27.44 13.56 C-24.02 11.72 -22.68 9.5 -20.81 6.12 C-19 2.89 -18.03 1.3 -15 -0.94 C-9.41 -2.5 -5.11 -2.76 0 0 Z M-22.88 39.19 C-20.88 40.19 -20.88 40.19 -20.88 40.19 Z " fill="#EFD381" transform="translate(39.875,3.8125)"/>
<path d="M0 0 C1.65 0 3.3 0 5 0 C5.33 0.99 5.66 1.98 6 3 C6.66 2.34 7.32 1.68 8 1 C11.19 0.73 11.19 0.73 15 0.75 C16.26 0.74 17.52 0.74 18.81 0.73 C22 1 22 1 24 3 C23.62 6.62 23.62 6.62 23 10 C21.58 10.12 21.58 10.12 20.12 10.25 C19.09 10.5 18.06 10.74 17 11 C16.72 11.6 16.43 12.19 16.14 12.81 C14.58 15.81 12.49 16.95 9.69 18.81 C4.92 22.14 2.12 25.16 -1 30 C-1.66 30 -2.32 30 -3 30 C-4.86 27.41 -6.57 24.86 -8 22 C-7.67 21.67 -7.34 21.34 -7 21 C-6.2 19.99 -5.39 18.98 -4.56 17.94 C-3.72 16.97 -2.87 16 -2 15 C-1.34 15 -0.68 15 0 15 C0 10.05 0 5.1 0 0 Z " fill="#E0C264" transform="translate(21,24)"/>
<path d="M0 0 C3.16 3.02 4.17 4.87 4.31 9.25 C4.26 13.89 3.07 16.42 0 20 C-2.26 22.03 -4.01 23 -6.88 24.06 C-10.91 26.56 -12.28 29.47 -14.41 33.62 C-16.85 37.26 -19.73 38.64 -23.88 39.81 C-27.7 40.04 -30.43 39.37 -34 38 C-34.66 37.01 -35.32 36.02 -36 35 C-33.03 35.66 -30.06 36.32 -27 37 C-26.67 35.68 -26.34 34.36 -26 33 C-24.67 31.67 -23.33 30.33 -22 29 C-22 28.01 -22 27.02 -22 26 C-20.29 23.92 -20.29 23.92 -17.91 21.55 C-17.07 20.7 -16.22 19.86 -15.34 18.98 C-14.45 18.1 -13.55 17.22 -12.62 16.31 C-11.74 15.42 -10.85 14.53 -9.93 13.61 C-3.27 7 -3.27 7 -1 7 C-0.67 4.69 -0.34 2.38 0 0 Z " fill="#D2B042" transform="translate(58,23)"/>
<path d="M0 0 C10.74 -0.2 10.74 -0.2 14 0 C14.66 0.66 15.32 1.32 16 2 C15.75 5.56 15.75 5.56 15 9 C11.79 10.61 8.56 10.06 5 10 C5 11.32 5 12.64 5 14 C3.35 14 1.7 14 0 14 C0 9.38 0 4.76 0 0 Z " fill="#010100" transform="translate(29,25)"/>
<path d="M0 0 C2.37 2.37 2.32 3.01 2.38 6.25 C2.27 10.87 1.05 13.44 -2 17 C-4.26 19.03 -6.01 20 -8.88 21.06 C-12.91 23.56 -14.28 26.47 -16.41 30.62 C-18.85 34.26 -21.73 35.64 -25.88 36.81 C-29.7 37.04 -32.43 36.37 -36 35 C-36.66 34.01 -37.32 33.02 -38 32 C-36.48 32.53 -36.48 32.53 -34.94 33.06 C-31 34.16 -27.99 34.13 -24 33 C-21.73 30.58 -21.73 30.58 -20 28 C-19.01 27.67 -18.02 27.34 -17 27 C-15.66 25.01 -14.32 23.01 -13 21 C-10.91 19.18 -8.86 17.92 -6.44 16.56 C-3.77 14.85 -2.51 13.79 -1 11 C-0.24 7.35 0 3.73 0 0 Z " fill="#8F7620" transform="translate(60,26)"/>
<path d="M0 0 C1.65 0 3.3 0 5 0 C5 4.95 5 9.9 5 15 C3.35 15 1.7 15 0 15 C0 10.05 0 5.1 0 0 Z " fill="#131009" transform="translate(21,24)"/>
<path d="M0 0 C0.6 0.76 1.2 1.53 1.81 2.31 C3.47 4.35 5.1 6.2 7 8 C4 10 4 10 1 10 C-1.01 10.63 -3.01 11.29 -5 12 C-4.71 11.44 -4.42 10.89 -4.12 10.31 C-2.49 6.95 -1.18 3.54 0 0 Z M-6 12 C-5.67 12.66 -5.34 13.32 -5 14 C-8.63 14 -12.26 14 -16 14 C-16 13.67 -16 13.34 -16 13 C-12.7 12.67 -9.4 12.34 -6 12 Z " fill="#C2A752" transform="translate(45,11)"/>
<path d="M0 0 C4.88 1.75 4.88 1.75 6 4 C4.35 4.66 2.7 5.32 1 6 C0.67 4.02 0.34 2.04 0 0 Z " fill="#C4A644" transform="translate(52,19)"/>
<path d="M0 0 C1.65 0 3.3 0 5 0 C5.33 0.99 5.66 1.98 6 3 C4.02 3 2.04 3 0 3 C0 2.01 0 1.02 0 0 Z " fill="#DABC60" transform="translate(34,28)"/>
</svg>
