<?xml version="1.0" encoding="UTF-8"?>
<!-- Generator: https://ezgif.com/png-to-svg -->
<svg version="1.1" xmlns="http://www.w3.org/2000/svg" width="64" height="64">
<path d="M0 0 C21.12 0 42.24 0 64 0 C64 21.12 64 42.24 64 64 C42.88 64 21.76 64 0 64 C0 42.88 0 21.76 0 0 Z " fill="#0B2123" transform="translate(0,0)"/>
<path d="M0 0 C0 18.48 0 36.96 0 56 C-21.12 56 -42.24 56 -64 56 C-64 51.71 -64 47.42 -64 43 C-62.52 42.51 -62.52 42.51 -61 42 C-60.71 41.36 -60.42 40.72 -60.12 40.06 C-58.61 37.28 -56.88 37.15 -54 36 C-52.87 33.98 -52.87 33.98 -52 32 C-51.01 31.67 -50.02 31.34 -49 31 C-48.67 33.97 -48.34 36.94 -48 40 C-44.37 40 -40.74 40 -37 40 C-36.78 37.8 -36.78 37.8 -36.56 35.56 C-36.12 31.12 -36.12 31.12 -35 30 C-30.65 29.5 -28.67 29.52 -25.06 32.12 C-22.69 35.43 -22.54 37.02 -23 41 C-20.69 40.67 -18.38 40.34 -16 40 C-16 37.69 -16 35.38 -16 33 C-17.09 32.73 -18.19 32.46 -19.31 32.19 C-24.59 30.49 -24.59 30.49 -26 28 C-26.64 23.04 -26.79 21.11 -23.88 17 C-20.57 14.7 -18.94 14.54 -15 15 C-15 12.69 -15 10.38 -15 8 C-13.99 7.61 -12.98 7.22 -11.94 6.81 C-8.64 5.42 -3.1 0 0 0 Z " fill="#061213" transform="translate(64,8)"/>
<path d="M0 0 C1.5 0 1.5 0 3.03 0.01 C4.03 0.01 5.03 0 6.06 0 C8.53 0.13 8.53 0.13 9.53 1.13 C9.6 2.65 9.62 4.17 9.59 5.7 C9.58 6.52 9.58 7.35 9.57 8.2 C9.55 8.84 9.54 9.48 9.53 10.13 C10.99 9.99 12.45 9.84 13.91 9.7 C14.72 9.61 15.53 9.53 16.37 9.45 C18.57 9.24 18.57 9.24 20.53 8.13 C20.91 5.81 21.24 3.47 21.53 1.13 C22.53 0.13 22.53 0.13 26.03 0.01 C29.53 0.13 29.53 0.13 30.53 1.13 C30.57 3.47 30.57 5.8 30.53 8.13 C28.51 8.56 26.49 8.98 24.48 9.4 C22.16 10.06 22.16 10.06 20.53 13.13 C20 16.57 19.85 19.94 21.59 23.01 C24.42 24.65 27.37 25.36 30.53 26.13 C30.57 28.47 30.57 30.8 30.53 33.13 C29.53 34.13 29.53 34.13 25.97 34.2 C24.83 34.17 23.7 34.15 22.53 34.13 C22.11 32.11 21.68 30.1 21.26 28.08 C20.61 25.76 20.61 25.76 17.53 24.13 C15.2 24.05 12.86 24.04 10.53 24.13 C10.47 24.77 10.41 25.41 10.35 26.07 C10.26 26.89 10.18 27.72 10.09 28.57 C10.01 29.39 9.93 30.22 9.85 31.07 C9.53 33.13 9.53 33.13 8.53 34.13 C6.7 34.23 4.87 34.26 3.03 34.26 C2.03 34.26 1.03 34.26 0 34.27 C-2.47 34.13 -2.47 34.13 -3.47 33.13 C-3.57 31.3 -3.6 29.47 -3.59 27.63 C-3.6 26.63 -3.6 25.63 -3.6 24.6 C-3.47 22.13 -3.47 22.13 -2.47 21.13 C-0.95 21.06 0.57 21.05 2.09 21.07 C2.92 21.08 3.75 21.09 4.6 21.1 C5.55 21.12 5.55 21.12 6.53 21.13 C6.53 18.49 6.53 15.85 6.53 13.13 C5.89 13.14 5.26 13.16 4.6 13.17 C3.36 13.18 3.36 13.18 2.09 13.2 C0.86 13.21 0.86 13.21 -0.4 13.23 C-2.47 13.13 -2.47 13.13 -3.47 12.13 C-3.57 10.3 -3.6 8.47 -3.59 6.63 C-3.6 5.63 -3.6 4.63 -3.6 3.6 C-3.42 0.28 -3.33 0.18 0 0 Z " fill="#36FCDA" transform="translate(18.46875,14.8671875)"/>
<path d="M0 0 C0 7.59 0 15.18 0 23 C-9 28 -9 28 -11 29 C-12.13 31.02 -12.13 31.02 -13 33 C-20.91 32.66 -20.91 32.66 -24.56 30.44 C-26.6 26.98 -26.88 23.85 -26 20 C-23.88 17 -23.88 17 -21 15 C-17.69 14.69 -17.69 14.69 -15 15 C-15 12.69 -15 10.38 -15 8 C-13.99 7.61 -12.98 7.22 -11.94 6.81 C-8.64 5.42 -3.1 0 0 0 Z " fill="#020707" transform="translate(64,8)"/>
</svg>
