<?xml version="1.0" encoding="UTF-8"?>
<!-- Generator: https://ezgif.com/png-to-svg -->
<svg version="1.1" xmlns="http://www.w3.org/2000/svg" width="64" height="64">
<path d="M0 0 C0.33 0 0.66 0 1 0 C0.12 6.75 0.12 6.75 -1 9 C-0.34 9.06 0.32 9.12 1 9.19 C9.29 11.43 14.45 16.93 19 24 C20.15 26.3 21.07 28.6 22 31 C22.66 31.66 23.32 32.32 24 33 C23.01 33 22.02 33 21 33 C21.06 33.97 21.12 34.94 21.19 35.94 C21.19 42.59 18.4 49.38 15 55 C8.68 61.32 -0.24 64.03 -9 64.38 C-17.77 64.26 -26.06 61.27 -32.56 55.31 C-38.12 49.06 -40.78 41.88 -40.38 33.51 C-39.24 26.03 -35.98 18.78 -30 14 C-22.26 9.31 -14.4 6.21 -5.64 3.92 C-2.95 2.98 -1.83 2.12 0 0 Z " fill="#E97B45" transform="translate(40,0)"/>
<path d="M0 0 C9.34 3.2 16.1 7.14 21 16 C21.37 17.66 21.71 19.32 22 21 C21.17 20.89 20.33 20.79 19.47 20.68 C12.97 19.98 8.2 19.87 2.12 22.28 C-1.58 23.54 -5.16 23.66 -9 23 C-12 21.44 -12 21.44 -14 19 C-15.1 15.23 -15.5 13.09 -13.85 9.48 C-11.65 6.53 -9.65 5.39 -6.38 3.75 C-2.97 2.19 -2.97 2.19 0 0 Z " fill="#F2E373" transform="translate(38,8)"/>
<path d="M0 0 C0.33 0 0.66 0 1 0 C0.83 4.41 0.53 6.44 -2.56 9.69 C-4.94 11.46 -7.35 12.63 -10.06 13.81 C-14.15 15.72 -15.58 18.09 -17.71 21.96 C-19.82 25.29 -22.73 27.82 -26 30 C-26.66 30 -27.32 30 -28 30 C-28 30.66 -28 31.32 -28 32 C-29.57 33.42 -31.21 34.76 -32.88 36.06 C-34.23 37.13 -34.23 37.13 -35.62 38.22 C-38 40 -38 40 -40 41 C-40.69 32.04 -38.94 24.67 -33.62 17.31 C-26.64 9.85 -15.25 6.43 -5.64 3.92 C-2.95 2.98 -1.83 2.12 0 0 Z " fill="#F1AF52" transform="translate(40,0)"/>
<path d="M0 0 C0.76 0.66 1.53 1.32 2.31 2 C2.31 2.33 2.31 2.66 2.31 3 C1.32 3.03 0.33 3.05 -0.69 3.08 C-11.44 3.2 -11.44 3.2 -20.69 8 C-22.83 10.74 -24.79 13.56 -26.74 16.43 C-30.13 20.9 -34.21 22.9 -39.69 24 C-41.37 24.11 -43.06 24.17 -44.75 24.19 C-46.04 24.21 -46.04 24.21 -47.35 24.23 C-49.69 24 -49.69 24 -52.69 22 C-50.06 17.12 -50.06 17.12 -46.69 16 C-46.36 15.34 -46.03 14.68 -45.69 14 C-44.02 13.33 -42.35 12.67 -40.69 12 C-38.34 10.44 -38.34 10.44 -36.12 8.62 C-35.38 8.04 -34.64 7.45 -33.87 6.85 C-31.65 5.05 -31.65 5.05 -29.79 2.92 C-22.45 -3.78 -8.47 -5.38 0 0 Z " fill="#E04837" transform="translate(61.6875,30)"/>
<path d="M0 0 C2.06 0.69 2.06 0.69 4 2 C7.87 4.35 11.56 4.56 16 5 C12.55 10.75 7.06 12.77 1 15 C-8.75 17.4 -16.89 15.95 -26 12 C-24.26 8.51 -20.47 7.39 -17 6 C-13.96 5.17 -10.92 4.46 -7.83 3.81 C-4.84 2.95 -2.65 1.6 0 0 Z " fill="#E66A40" transform="translate(40,48)"/>
<path d="M0 0 C1.07 0.02 2.14 0.04 3.24 0.05 C4.05 0.08 4.85 0.1 5.69 0.12 C6.13 7 4.44 12.52 1.44 18.69 C-0.31 20.12 -0.31 20.12 -3.69 20.56 C-7.46 20.11 -9.33 19.43 -12.31 17.12 C-14.8 13.4 -14.69 11.54 -14.31 7.12 C-12.99 3.99 -12.14 2.55 -9.09 1 C-5.92 0 -3.32 -0.07 0 0 Z " fill="#F2E272" transform="translate(55.3125,32.875)"/>
<path d="M0 0 C0.66 0.33 1.32 0.66 2 1 C1.34 1.99 0.68 2.98 0 4 C-0.24 6.06 -0.24 6.06 -0.12 8.19 C-0.08 9.45 -0.04 10.7 0 12 C-6.05 15.32 -11.81 17.66 -18.52 19.3 C-21.24 19.98 -21.24 19.98 -24.44 21.75 C-27 23 -27 23 -28.93 22.8 C-31.51 21.8 -32.85 20.45 -34.75 18.44 C-35.67 17.48 -35.67 17.48 -36.61 16.5 C-37.07 16 -37.53 15.51 -38 15 C-37.67 14.34 -37.34 13.68 -37 13 C-36.4 13.47 -35.8 13.95 -35.19 14.44 C-30.52 17.77 -25.51 17.45 -20 17 C-11.43 15.12 -7.21 9.49 -2.23 2.67 C-1 1 -1 1 0 0 Z " fill="#EC944B" transform="translate(42,36)"/>
<path d="M0 0 C-3.74 6.24 -10.67 8.89 -17.48 10.64 C-20.29 11.04 -22.97 11.1 -25.81 11.06 C-27.28 11.05 -27.28 11.05 -28.77 11.04 C-29.87 11.02 -29.87 11.02 -31 11 C-24.62 6.75 -24.62 6.75 -20 7 C-20 6.34 -20 5.68 -20 5 C-17.36 4.67 -14.72 4.34 -12 4 C-12 3.34 -12 2.68 -12 2 C-7.88 0.71 -4.33 -0.26 0 0 Z " fill="#E04737" transform="translate(56,53)"/>
<path d="" fill="#E14C39" transform="translate(0,0)"/>
</svg>
