<?xml version="1.0" encoding="UTF-8"?>
<!-- Generator: https://ezgif.com/png-to-svg -->
<svg version="1.1" xmlns="http://www.w3.org/2000/svg" width="64" height="64">
<path d="M0 0 C21.12 0 42.24 0 64 0 C64 21.12 64 42.24 64 64 C42.88 64 21.76 64 0 64 C0 42.88 0 21.76 0 0 Z " fill="#7C4836" transform="translate(0,0)"/>
<path d="M0 0 C17.82 0 35.64 0 54 0 C54 21.12 54 42.24 54 64 C36.84 64 19.68 64 2 64 C1.5 62.52 1.5 62.52 1 61 C-0.65 61 -2.3 61 -4 61 C-4 60.67 -4 60.34 -4 60 C-0.54 59.51 -0.54 59.51 3 59 C3 57.02 3 55.04 3 53 C3.99 53.66 4.98 54.32 6 55 C8.23 55.1 8.23 55.1 10.56 54.75 C11.35 54.66 12.13 54.57 12.94 54.48 C15.21 54.14 15.21 54.14 17 52 C24 52 24 52 25.81 52.75 C28.26 53.24 28.26 53.24 31.12 51.38 C34.05 48.96 35 47.59 36 44 C36.66 44 37.32 44 38 44 C38.25 42.11 38.47 40.21 38.69 38.31 C38.82 37.26 38.94 36.2 39.07 35.11 C38.99 31.5 37.97 29.97 36 27 C36 26.01 36 25.02 36 24 C34.68 24.33 33.36 24.66 32 25 C29 21.25 29 21.25 29 19 C28.34 18.67 27.68 18.34 27 18 C25.87 15.94 25.87 15.94 25 14 C26.32 13.67 27.64 13.34 29 13 C28.34 12.01 27.68 11.02 27 10 C23.96 10.52 23.96 10.52 21.7 12.51 C18.74 15.1 15.44 14.52 11.67 14.43 C9 14 9 14 5.94 11.69 C4.59 9.82 3.28 7.92 2 6 C1.01 6 0.02 6 -1 6 C-0.34 5.01 0.32 4.02 1 3 C0.67 2.01 0.34 1.02 0 0 Z " fill="#B5A895" transform="translate(10,0)"/>
<path d="M0 0 C17.82 0 35.64 0 54 0 C54 5.61 54 11.22 54 17 C52.68 17.99 51.36 18.98 50 20 C48.63 22.31 47.85 24.44 47 27 C35.23 26.12 35.23 26.12 31 24 C29.75 21.44 29.75 21.44 29 19 C28.34 18.67 27.68 18.34 27 18 C25.88 15.94 25.88 15.94 25 14 C26.32 13.67 27.64 13.34 29 13 C28.34 12.01 27.68 11.02 27 10 C23.96 10.52 23.96 10.52 21.7 12.51 C18.74 15.1 15.44 14.52 11.67 14.43 C9 14 9 14 5.94 11.69 C4.59 9.82 3.28 7.92 2 6 C1.01 6 0.02 6 -1 6 C-0.34 5.01 0.32 4.02 1 3 C0.67 2.01 0.34 1.02 0 0 Z " fill="#5F98DF" transform="translate(10,0)"/>
<path d="M0 0 C3.3 0 6.6 0 10 0 C12 4 12 4 12 5 C12.66 5.33 13.32 5.66 14 6 C15.5 8.59 16.71 11.29 18 14 C15.36 15.98 12.72 17.96 10 20 C8.68 19.34 7.36 18.68 6 18 C6.57 21.93 6.57 21.93 9 25 C8.98 27.38 8.98 27.38 8.62 30.12 C8.51 31.04 8.4 31.95 8.29 32.88 C8.19 33.58 8.1 34.28 8 35 C10.31 35.66 12.62 36.32 15 37 C14.84 37.81 14.67 38.61 14.5 39.45 C13.91 43.63 13.89 47.66 13.94 51.88 C13.94 52.66 13.95 53.44 13.95 54.25 C13.96 56.17 13.98 58.08 14 60 C12.52 60.49 12.52 60.49 11 61 C11.33 61.99 11.66 62.98 12 64 C8.04 64 4.08 64 0 64 C0 42.88 0 21.76 0 0 Z " fill="#012A4C" transform="translate(0,0)"/>
<path d="M0 0 C1.65 0 3.3 0 5 0 C5.49 1.98 5.49 1.98 6 4 C5.01 4.66 4.02 5.32 3 6 C3.9 7.51 4.82 9.01 5.75 10.5 C6.52 11.75 6.52 11.75 7.3 13.03 C7.86 13.68 8.42 14.33 9 15 C10.32 15 11.64 15 13 15 C16 20.75 16 20.75 16 23 C16.66 23.33 17.32 23.66 18 24 C17.34 25.65 16.68 27.3 16 29 C15.63 28.53 15.26 28.05 14.88 27.56 C12.37 25.48 10.18 25.35 7 25 C7.66 24.01 8.32 23.02 9 22 C8.34 21.01 7.68 20.02 7 19 C6.88 16.31 6.88 16.31 7 14 C6.22 13.86 5.43 13.71 4.62 13.56 C2 13 2 13 0 12 C0 12.66 0 13.32 0 14 C0.99 14.33 1.98 14.66 3 15 C3.33 18.63 3.66 22.26 4 26 C2.02 26.99 2.02 26.99 0 28 C0.66 26.68 1.32 25.36 2 24 C0.35 23.34 -1.3 22.68 -3 22 C-3.33 23.65 -3.66 25.3 -4 27 C-4.33 26.01 -4.66 25.02 -5 24 C-7.89 24.4 -8.82 24.79 -10.75 27.06 C-11.16 27.7 -11.57 28.34 -12 29 C-12.33 28.34 -12.66 27.68 -13 27 C-13.33 27.66 -13.66 28.32 -14 29 C-14.93 28.47 -14.93 28.47 -15.88 27.94 C-16.58 27.63 -17.28 27.32 -18 27 C-18.66 27.33 -19.32 27.66 -20 28 C-22.63 27.06 -22.63 27.06 -25 26 C-24.97 25.32 -24.93 24.65 -24.89 23.95 C-24.87 23.06 -24.84 22.17 -24.81 21.25 C-24.78 20.37 -24.74 19.49 -24.71 18.58 C-25.05 15.53 -26.11 14.34 -28 12 C-27.69 9.75 -27.69 9.75 -27 8 C-26.34 8.45 -25.68 8.91 -25 9.38 C-24.01 9.58 -23.02 9.79 -22 10 C-20.19 8.79 -20.19 8.79 -18.38 7.12 C-14.06 3.49 -10.81 3.53 -5.32 3.98 C-4.55 3.99 -3.79 3.99 -3 4 C-0.95 2.16 -0.95 2.16 0 0 Z " fill="#7E4937" transform="translate(33,9)"/>
<path d="M0 0 C13.96 -0.69 13.96 -0.69 17.88 1.88 C18.58 2.58 19.28 3.28 20 4 C20 4.66 20 5.32 20 6 C24.97 4.87 24.97 4.87 29 2 C29.68 2.93 29.68 2.93 30.38 3.88 C36.34 8.7 45.59 8.4 53 9 C53 10.32 53 11.64 53 13 C48.07 15.02 43.26 16.09 38 15 C35.31 13.31 33.15 11.33 31 9 C30.67 10.65 30.34 12.3 30 14 C29.01 13.67 28.02 13.34 27 13 C27.66 13 28.32 13 29 13 C28.34 12.01 27.68 11.02 27 10 C23.96 10.52 23.96 10.52 21.7 12.51 C18.74 15.1 15.44 14.52 11.67 14.43 C9 14 9 14 5.94 11.69 C4.59 9.82 3.28 7.92 2 6 C1.01 6 0.02 6 -1 6 C-0.34 5.01 0.32 4.02 1 3 C0.67 2.01 0.34 1.02 0 0 Z " fill="#6B94CC" transform="translate(10,0)"/>
<path d="M0 0 C3.3 0 6.6 0 10 0 C12 4 12 4 12 5 C12.66 5.33 13.32 5.66 14 6 C15.5 8.59 16.71 11.29 18 14 C15.36 15.98 12.72 17.96 10 20 C8.68 19.34 7.36 18.68 6 18 C6.57 21.93 6.57 21.93 9 25 C8.98 27.38 8.98 27.38 8.62 30.12 C8.51 31.04 8.4 31.95 8.29 32.88 C8.19 33.58 8.1 34.28 8 35 C8.99 35.33 9.98 35.66 11 36 C9.02 36.49 9.02 36.49 7 37 C6.96 35.95 6.92 34.9 6.88 33.81 C6.42 29.77 6.42 29.77 2.97 28.06 C0.58 26.19 0.05 25.3 -0.49 22.26 C-0.59 18.88 -0.52 15.56 -0.38 12.19 C-0.35 11.02 -0.32 9.85 -0.29 8.64 C-0.22 5.76 -0.12 2.88 0 0 Z " fill="#06253A" transform="translate(0,0)"/>
<path d="M0 0 C1.65 0 3.3 0 5 0 C5.33 1.32 5.66 2.64 6 4 C5.01 4.66 4.02 5.32 3 6 C3.9 7.51 4.82 9.01 5.75 10.5 C6.26 11.34 6.77 12.17 7.3 13.03 C8.14 14.01 8.14 14.01 9 15 C10.32 15 11.64 15 13 15 C16 20.75 16 20.75 16 23 C16.66 23.33 17.32 23.66 18 24 C17.34 25.65 16.68 27.3 16 29 C15.63 28.53 15.26 28.05 14.88 27.56 C12.37 25.48 10.18 25.35 7 25 C7.66 24.01 8.32 23.02 9 22 C8.34 21.01 7.68 20.02 7 19 C6.88 16.31 6.88 16.31 7 14 C6.34 13.88 5.68 13.75 5 13.62 C1.3 12.85 -2.34 11.93 -6 11 C-6.33 11.99 -6.66 12.98 -7 14 C-7.66 14 -8.32 14 -9 14 C-9.56 12.06 -9.56 12.06 -10 10 C-9.67 9.67 -9.34 9.34 -9 9 C-11.77 9.55 -13.9 10.42 -16.5 11.62 C-20 13 -20 13 -22.44 12.69 C-22.95 12.46 -23.47 12.23 -24 12 C-23.01 12 -22.02 12 -21 12 C-20.96 11.42 -20.92 10.84 -20.88 10.25 C-19.83 7.57 -18.45 6.27 -16.02 4.74 C-12.54 3.46 -9.05 3.82 -5.39 4.05 C-2.81 4.27 -2.81 4.27 -1 2 C-0.67 1.34 -0.34 0.68 0 0 Z " fill="#644035" transform="translate(33,9)"/>
<path d="M0 0 C13.2 0 26.4 0 40 0 C40 2.97 40 5.94 40 9 C32.71 9.25 26.09 8.72 19 7 C18.67 6.01 18.34 5.02 18 4 C14.14 4 12.45 4.58 9 6 C8.01 6 7.02 6 6 6 C6 5.34 6 4.68 6 4 C5.2 3.71 4.39 3.42 3.56 3.12 C1 2 1 2 0 0 Z " fill="#5E97D8" transform="translate(24,0)"/>
<path d="M0 0 C2.02 0.6 4.02 1.27 6 2 C6.33 2.66 6.66 3.32 7 4 C7.8 3.55 7.8 3.55 8.61 3.09 C9.67 2.52 9.67 2.52 10.75 1.94 C11.45 1.55 12.14 1.17 12.86 0.78 C15.36 -0.13 16.53 0.12 19 1 C16.91 6.95 16.91 6.95 14 9 C11.31 9.19 11.31 9.19 9 9 C9 9.66 9 10.32 9 11 C9.61 10.98 10.23 10.95 10.86 10.93 C11.67 10.91 12.48 10.89 13.31 10.88 C14.11 10.85 14.91 10.83 15.74 10.8 C18 11 18 11 21 13 C21.33 13.66 21.66 14.32 22 15 C17.38 15.66 12.76 16.32 8 17 C8 15.02 8 13.04 8 11 C7.34 10.67 6.68 10.34 6 10 C5.67 9.01 5.34 8.02 5 7 C4.34 6.67 3.68 6.34 3 6 C2.67 6.66 2.34 7.32 2 8 C0.44 6.25 0.44 6.25 -1 4 C-0.69 1.75 -0.69 1.75 0 0 Z " fill="#825541" transform="translate(6,17)"/>
<path d="M0 0 C1.32 1.32 2.64 2.64 4 4 C1.69 5.65 -0.62 7.3 -3 9 C-4.32 8.34 -5.64 7.68 -7 7 C-6.43 10.93 -6.43 10.93 -4 14 C-4.02 16.38 -4.02 16.38 -4.38 19.12 C-4.49 20.04 -4.6 20.95 -4.71 21.88 C-4.81 22.58 -4.9 23.28 -5 24 C-4.01 24.33 -3.02 24.66 -2 25 C-3.32 25.33 -4.64 25.66 -6 26 C-6.06 24.42 -6.06 24.42 -6.12 22.81 C-6.63 18.77 -6.63 18.77 -10.06 16.62 C-13 14 -13 14 -13.39 11.69 C-13.38 9.43 -13.26 7.24 -13 5 C-11.35 4.67 -9.7 4.34 -8 4 C-8 3.01 -8 2.02 -8 1 C-6.35 1 -4.7 1 -3 1 C-2.67 1.99 -2.34 2.98 -2 4 C-1.34 2.68 -0.68 1.36 0 0 Z " fill="#052138" transform="translate(13,11)"/>
<path d="M0 0 C0 5.28 0 10.56 0 16 C-12.34 16.49 -12.34 16.49 -15.36 14.23 C-17 12 -17 12 -18 8 C-14.37 8.66 -10.74 9.32 -7 10 C-6.01 6.33 -6.01 6.33 -5.69 3.88 C-5 2 -5 2 -3 0.75 C-1 0 -1 0 0 0 Z " fill="#709FD6" transform="translate(64,17)"/>
<path d="M0 0 C2.19 3.28 2.35 4.83 2.62 8.69 C2.7 9.68 2.77 10.68 2.85 11.7 C2.9 12.46 2.95 13.22 3 14 C2.01 14.33 1.02 14.66 0 15 C0.33 15.99 0.66 16.98 1 18 C-2.96 18 -6.92 18 -11 18 C-11 13.05 -11 8.1 -11 3 C-8.02 4.9 -8.02 4.9 -5.04 6.81 C-2.92 8.14 -2.92 8.14 0 9 C-0.33 8.01 -0.66 7.02 -1 6 C-0.34 6 0.32 6 1 6 C1 5.34 1 4.68 1 4 C0.34 3.67 -0.32 3.34 -1 3 C-0.67 2.01 -0.34 1.02 0 0 Z " fill="#1C5A8C" transform="translate(11,46)"/>
<path d="M0 0 C3.88 1.75 3.88 1.75 5 4 C11.42 5.98 18.33 6.46 25 7 C25 8.32 25 9.64 25 11 C20.07 13.02 15.26 14.19 10 13 C5.81 10.32 2.75 7.12 0 3 C0 2.01 0 1.02 0 0 Z " fill="#B6B9BD" transform="translate(38,2)"/>
<path d="M0 0 C1.32 0 2.64 0 4 0 C4.33 1.65 4.66 3.3 5 5 C1.38 8 1.38 8 -2 8 C-1.67 8.66 -1.34 9.32 -1 10 C-0.01 9.67 0.98 9.34 2 9 C4.69 10.44 4.69 10.44 7 12 C6.01 12.5 6.01 12.5 5 13 C4.34 12.67 3.68 12.34 3 12 C2.67 12.66 2.34 13.32 2 14 C1.01 14 0.02 14 -1 14 C-1 13.34 -1 12.68 -1 12 C-2.98 12 -4.96 12 -7 12 C-6.67 12.33 -6.34 12.66 -6 13 C-9 15 -9 15 -11 15 C-10.67 10.71 -10.34 6.42 -10 2 C-8.35 2.99 -6.7 3.98 -5 5 C-4.67 4.01 -4.34 3.02 -4 2 C-3.34 2.33 -2.68 2.66 -2 3 C-1.34 2.01 -0.68 1.02 0 0 Z " fill="#7C4F3A" transform="translate(24,33)"/>
<path d="M0 0 C1.32 0.33 2.64 0.66 4 1 C3.67 3 3.33 5 3 7 C2.84 8.09 2.67 9.19 2.5 10.31 C2 13 2 13 1 14 C0.64 15.66 0.3 17.33 0 19 C-5.04 18.56 -7.38 16.29 -11 13 C-10.67 11.68 -10.34 10.36 -10 9 C-7.69 10.65 -5.38 12.3 -3 14 C-3 13.34 -3 12.68 -3 12 C-3.66 11.67 -4.32 11.34 -5 11 C-4.48 10.59 -3.97 10.17 -3.44 9.75 C-2.96 9.17 -2.49 8.59 -2 8 C-2.16 7.36 -2.33 6.72 -2.5 6.06 C-2.66 5.38 -2.83 4.7 -3 4 C-1.56 1.75 -1.56 1.75 0 0 Z " fill="#044269" transform="translate(11,36)"/>
<path d="M0 0 C0.99 0.66 1.98 1.32 3 2 C3.8 2.08 4.61 2.16 5.44 2.25 C9.2 3.35 10.11 5.69 12 9 C12.33 9.66 12.66 10.32 13 11 C8.38 11 3.76 11 -1 11 C-1.33 10.01 -1.66 9.02 -2 8 C-3.65 8 -5.3 8 -7 8 C-7 7.67 -7 7.34 -7 7 C-3.54 6.51 -3.54 6.51 0 6 C0 4.02 0 2.04 0 0 Z " fill="#868075" transform="translate(13,53)"/>
<path d="M0 0 C0.33 0.66 0.66 1.32 1 2 C0.01 3.48 0.01 3.48 -1 5 C-1.17 7.63 -1.17 7.63 -1 10 C-0.01 9.34 0.98 8.68 2 8 C3.12 11.75 3.12 11.75 2 14 C-3.61 14 -9.22 14 -15 14 C-14.34 13.67 -13.68 13.34 -13 13 C-13 11.02 -13 9.04 -13 7 C-12.34 7 -11.68 7 -11 7 C-11.33 8.65 -11.66 10.3 -12 12 C-10.68 12.33 -9.36 12.66 -8 13 C-7.88 12.22 -7.75 11.43 -7.62 10.62 C-7 8 -7 8 -5 6 C-4.34 5.67 -3.68 5.34 -3 5 C-2.3 3.68 -1.63 2.35 -1 1 C-0.67 0.67 -0.34 0.34 0 0 Z " fill="#A89A87" transform="translate(54,50)"/>
<path d="M0 0 C4.95 0 9.9 0 15 0 C15 2.97 15 5.94 15 9 C14.11 8.69 13.23 8.38 12.31 8.06 C9.14 6.95 9.14 6.95 6.31 6.56 C3.63 5.91 2.67 5.17 1 3 C0.67 2.01 0.34 1.02 0 0 Z " fill="#1F5A2C" transform="translate(49,0)"/>
<path d="M0 0 C1.07 1.85 1.07 1.85 2.12 4.06 C2.48 4.8 2.83 5.53 3.2 6.29 C3.46 6.85 3.73 7.42 4 8 C2.35 7.34 0.7 6.68 -1 6 C-1.66 7.32 -2.32 8.64 -3 10 C-3.33 8.68 -3.66 7.36 -4 6 C-5.65 6 -7.3 6 -9 6 C-9 6.99 -9 7.98 -9 9 C-10.65 9.33 -12.3 9.66 -14 10 C-14 8.02 -14 6.04 -14 4 C-12.52 4.99 -12.52 4.99 -11 6 C-10.44 5.22 -9.89 4.43 -9.31 3.62 C-6.68 0.63 -3.96 -1.98 0 0 Z " fill="#0B3046" transform="translate(14,6)"/>
<path d="M0 0 C2.31 0.66 4.62 1.32 7 2 C6.84 3.18 6.67 4.35 6.5 5.56 C6.01 9.41 5.92 13.12 6 17 C0.72 18.32 0.72 18.32 -2.38 16.94 C-4 15 -4 15 -4.25 11.81 C-4.17 10.88 -4.09 9.96 -4 9 C-1.69 9.66 0.62 10.32 3 11 C2.67 12.32 2.34 13.64 2 15 C3.16 10.75 2.91 7.3 2 3 C1.34 2.67 0.68 2.34 0 2 C0 1.34 0 0.68 0 0 Z " fill="#90604E" transform="translate(33,21)"/>
<path d="M0 0 C4.29 0 8.58 0 13 0 C13 4.29 13 8.58 13 13 C10.34 10.34 7.98 7.62 5.6 4.72 C3.75 2.62 3.75 2.62 0 0 Z " fill="#0C3C55" transform="translate(51,33)"/>
<path d="M0 0 C1.32 0 2.64 0 4 0 C5.6 1.64 5.6 1.64 7.06 3.81 C9.73 7.69 12.06 10.37 16 13 C12.81 13.81 12.81 13.81 9 14 C5.97 11.58 4.15 9.22 2 6 C1.01 6 0.02 6 -1 6 C-0.34 5.01 0.32 4.02 1 3 C0.67 2.01 0.34 1.02 0 0 Z " fill="#A6C9D3" transform="translate(10,0)"/>
<path d="M0 0 C2.31 -0.31 2.31 -0.31 5 0 C6.62 2.31 6.62 2.31 8 5 C9.27 6.86 9.27 6.86 11 8 C13.63 8.25 13.63 8.25 16 8 C16 9.32 16 10.64 16 12 C12.5 12.5 10.01 12.72 7.05 10.62 C3.75 7.42 1.23 4.52 0 0 Z " fill="#5B98E0" transform="translate(14,0)"/>
<path d="M0 0 C6.27 0 12.54 0 19 0 C15.76 3.24 13.24 4.41 9 6 C8.01 6 7.02 6 6 6 C6 5.34 6 4.68 6 4 C5.2 3.71 4.39 3.42 3.56 3.12 C1 2 1 2 0 0 Z " fill="#215B30" transform="translate(24,0)"/>
<path d="M0 0 C2.06 0.44 2.06 0.44 4 1 C3.69 1.6 3.38 2.2 3.06 2.81 C1.9 5.09 1.9 5.09 1 8 C-1.97 7.67 -4.94 7.34 -8 7 C-8.33 5.02 -8.66 3.04 -9 1 C-6.33 1 -3.67 1 -1 1 C-0.67 0.67 -0.34 0.34 0 0 Z " fill="#4883A5" transform="translate(56,19)"/>
<path d="M0 0 C3.23 0.23 4.05 1.06 6.23 3.54 C8.4 7.78 8.47 10.72 8.25 15.38 C8.23 16.11 8.21 16.85 8.2 17.61 C8.15 19.4 8.08 21.2 8 23 C7.01 23.33 6.02 23.66 5 24 C5 21.03 5 18.06 5 15 C4.67 15 4.34 15 4 15 C3.96 13.33 3.96 11.67 4 10 C4.33 9.67 4.66 9.34 5 9 C4.34 8.67 3.68 8.34 3 8 C2.15 6.15 2.15 6.15 1.38 3.94 C1.11 3.2 0.85 2.47 0.59 1.71 C0.39 1.15 0.2 0.58 0 0 Z " fill="#3F88A7" transform="translate(56,39)"/>
<path d="M0 0 C1.32 0 2.64 0 4 0 C4.33 1.65 4.66 3.3 5 5 C1.38 8 1.38 8 -2 8 C-2 8.66 -2 9.32 -2 10 C-3.32 9.67 -4.64 9.34 -6 9 C-6.33 7.68 -6.66 6.36 -7 5 C-6.34 5 -5.68 5 -5 5 C-4.67 4.01 -4.34 3.02 -4 2 C-3.34 2.33 -2.68 2.66 -2 3 C-1.34 2.01 -0.68 1.02 0 0 Z " fill="#D8625F" transform="translate(24,33)"/>
<path d="M0 0 C5.5 1.47 5.5 1.47 7.88 4 C9 6 9 6 9 8 C9.32 10 9.65 12 10 14 C11.32 14.33 12.64 14.66 14 15 C13.01 15.5 13.01 15.5 12 16 C12 18.97 12 21.94 12 25 C9.85 21.77 9.8 20.72 10 17 C9.34 16.67 8.68 16.34 8 16 C7.88 15.09 7.75 14.19 7.62 13.25 C6.9 9.47 5.62 7.78 3 5 C2.34 4.67 1.68 4.34 1 4 C0.38 1.94 0.38 1.94 0 0 Z " fill="#EAE7E1" transform="translate(49,33)"/>
<path d="M0 0 C5.28 0.33 10.56 0.66 16 1 C16 1.99 16 2.98 16 4 C13.9 4.08 11.79 4.14 9.69 4.19 C8.52 4.22 7.34 4.26 6.14 4.29 C3 4 3 4 1.08 2.55 C0 1 0 1 0 0 Z " fill="#CFE1E4" transform="translate(48,29)"/>
<path d="M0 0 C0.55 0.13 1.09 0.27 1.65 0.4 C7.1 1.68 12.43 2.47 18 3 C18 3.66 18 4.32 18 5 C15.92 5.03 13.83 5.05 11.75 5.06 C10.01 5.08 10.01 5.08 8.23 5.1 C5.59 5.02 3.5 4.79 1 4 C0.67 2.68 0.34 1.36 0 0 Z " fill="#90C5D3" transform="translate(46,25)"/>
<path d="M0 0 C3.5 1.84 5.79 3.11 7 7 C6.67 7.99 6.34 8.98 6 10 C5.34 9.67 4.68 9.34 4 9 C2.13 8.77 0.25 8.59 -1.62 8.44 C-2.63 8.35 -3.63 8.27 -4.66 8.18 C-5.82 8.09 -5.82 8.09 -7 8 C-7 7.67 -7 7.34 -7 7 C-3.54 6.51 -3.54 6.51 0 6 C0 4.02 0 2.04 0 0 Z " fill="#B6C9D2" transform="translate(13,53)"/>
<path d="M0 0 C3.81 1.27 4.03 2.61 6 6 C6.72 6.7 7.44 7.4 8.19 8.12 C10 10 10 10 10 13 C8.68 13 7.36 13 6 13 C3.85 9.77 3.8 8.72 4 5 C2.68 5 1.36 5 0 5 C0 3.35 0 1.7 0 0 Z " fill="#4C3128" transform="translate(36,18)"/>
<path d="M0 0 C2.98 -0.25 4.65 -0.19 7.31 1.25 C9 3 9 3 9 7 C3.49 6.51 3.49 6.51 1.12 4.06 C0 2 0 2 0 0 Z " fill="#B6BCC1" transform="translate(19,0)"/>
<path d="M0 0 C1.32 0 2.64 0 4 0 C4.99 2.31 5.98 4.62 7 7 C1 7 1 7 -1 6 C-0.34 5.01 0.32 4.02 1 3 C0.67 2.01 0.34 1.02 0 0 Z " fill="#C8D6DC" transform="translate(10,0)"/>
<path d="M0 0 C0.33 0 0.66 0 1 0 C1 3.63 1 7.26 1 11 C1.66 11 2.32 11 3 11 C3 11.66 3 12.32 3 13 C0.69 13 -1.62 13 -4 13 C-3.34 11.02 -2.68 9.04 -2 7 C-1.34 7 -0.68 7 0 7 C0 4.69 0 2.38 0 0 Z " fill="#A2AECD" transform="translate(61,51)"/>
<path d="M0 0 C0.33 0.66 0.66 1.32 1 2 C0.55 2.56 0.09 3.11 -0.38 3.69 C-2.12 5.94 -2.12 5.94 -2.94 8.69 C-4 11 -4 11 -6.12 11.81 C-6.74 11.87 -7.36 11.94 -8 12 C-7.43 9.13 -7.14 8.14 -5 6 C-4.34 5.67 -3.68 5.34 -3 5 C-2.3 3.68 -1.63 2.35 -1 1 C-0.67 0.67 -0.34 0.34 0 0 Z " fill="#695748" transform="translate(54,50)"/>
<path d="M0 0 C-0.33 0.66 -0.66 1.32 -1 2 C-1.66 2 -2.32 2 -3 2 C-3.33 3.32 -3.66 4.64 -4 6 C-4.62 5.65 -5.24 5.3 -5.88 4.94 C-6.93 4.47 -6.93 4.47 -8 4 C-8.99 4.49 -8.99 4.49 -10 5 C-10 4.01 -10 3.02 -10 2 C-6.49 0.4 -3.86 -0.22 0 0 Z " fill="#611D09" transform="translate(23,32)"/>
<path d="M0 0 C2.94 0.38 2.94 0.38 6 1 C6.33 1.66 6.66 2.32 7 3 C6.67 3.66 6.34 4.32 6 5 C3.69 4.67 1.38 4.34 -1 4 C-0.67 2.68 -0.34 1.36 0 0 Z " fill="#225E3C" transform="translate(49,22)"/>
<path d="M0 0 C1.5 1.38 1.5 1.38 3 3 C3 3.66 3 4.32 3 5 C2.34 5 1.68 5 1 5 C0.67 5.99 0.34 6.98 0 8 C-1.32 6.68 -2.64 5.36 -4 4 C-3.34 3.67 -2.68 3.34 -2 3 C-2 2.34 -2 1.68 -2 1 C-1.34 0.67 -0.68 0.34 0 0 Z " fill="#8D5D48" transform="translate(22,45)"/>
<path d="M0 0 C1.32 0.33 2.64 0.66 4 1 C2.71 3.88 1.34 5.87 -1 8 C-1.66 6.68 -2.32 5.36 -3 4 C-2.01 2.68 -1.02 1.36 0 0 Z " fill="#115B77" transform="translate(11,36)"/>
<path d="M0 0 C0.66 0.33 1.32 0.66 2 1 C1.29 1.62 1.29 1.62 0.56 2.25 C-1.16 4.18 -1.57 5.48 -2 8 C-3.65 8.33 -5.3 8.66 -7 9 C-7 7.02 -7 5.04 -7 3 C-5.52 3.99 -5.52 3.99 -4 5 C-2.68 3.35 -1.36 1.7 0 0 Z " fill="#637988" transform="translate(7,7)"/>
<path d="M0 0 C4 1 4 1 5.27 2.63 C6.18 4.42 7.09 6.21 8 8 C6.35 8 4.7 8 3 8 C2.01 5.36 1.02 2.72 0 0 Z " fill="#77A0AA" transform="translate(56,39)"/>
<path d="M0 0 C1.32 0.33 2.64 0.66 4 1 C4.33 2.65 4.66 4.3 5 6 C3.35 5.67 1.7 5.34 0 5 C0 3.35 0 1.7 0 0 Z " fill="#5B5248" transform="translate(51,41)"/>
<path d="M0 0 C2.64 0 5.28 0 8 0 C8 0.66 8 1.32 8 2 C8.66 2.33 9.32 2.66 10 3 C7.03 3 4.06 3 1 3 C0.67 2.01 0.34 1.02 0 0 Z " fill="#7D9DB4" transform="translate(11,61)"/>
<path d="M0 0 C2.64 0.33 5.28 0.66 8 1 C8.33 1.99 8.66 2.98 9 4 C6.03 3.67 3.06 3.34 0 3 C0 2.01 0 1.02 0 0 Z " fill="#17578B" transform="translate(3,60)"/>
<path d="M0 0 C0.33 0 0.66 0 1 0 C1 2.64 1 5.28 1 8 C1.66 8.33 2.32 8.66 3 9 C1.35 9.33 -0.3 9.66 -2 10 C-1.54 6.53 -1.11 3.33 0 0 Z " fill="#D7D7D6" transform="translate(15,38)"/>
<path d="M0 0 C1.98 0.66 3.96 1.32 6 2 C6 2.66 6 3.32 6 4 C5.01 4 4.02 4 3 4 C2.67 4.66 2.34 5.32 2 6 C1.34 6 0.68 6 0 6 C-0.38 4.34 -0.71 2.68 -1 1 C-0.67 0.67 -0.34 0.34 0 0 Z " fill="#9D6158" transform="translate(6,17)"/>
<path d="M0 0 C1.65 0 3.3 0 5 0 C5.33 1.32 5.66 2.64 6 4 C5.34 4 4.68 4 4 4 C3.67 4.66 3.34 5.32 3 6 C0 2.25 0 2.25 0 0 Z " fill="#538BA9" transform="translate(14,0)"/>
<path d="M0 0 C0.66 0.33 1.32 0.66 2 1 C1.67 2.65 1.34 4.3 1 6 C-0.65 6 -2.3 6 -4 6 C-4 4 -4 4 -2 1.88 C-1.34 1.26 -0.68 0.64 0 0 Z " fill="#6C584A" transform="translate(55,58)"/>
<path d="M0 0 C2.8 2.53 4.46 4.2 5 8 C4.01 8.33 3.02 8.66 2 9 C1.34 6.03 0.68 3.06 0 0 Z " fill="#9A5746" transform="translate(14,35)"/>
</svg>
