<?xml version="1.0" encoding="UTF-8"?>
<!-- Generator: https://ezgif.com/png-to-svg -->
<svg version="1.1" xmlns="http://www.w3.org/2000/svg" width="64" height="64">
<path d="M0 0 C21.12 0 42.24 0 64 0 C64 21.12 64 42.24 64 64 C42.88 64 21.76 64 0 64 C0 42.88 0 21.76 0 0 Z " fill="#FEFEFE" transform="translate(0,0)"/>
<path d="M0 0 C4.15 1.61 5.52 4.3 7.53 8.05 C8.1 9.07 8.1 9.07 8.68 10.1 C9.45 11.46 10.21 12.84 10.96 14.22 C11.93 16 12.95 17.76 13.98 19.52 C17.11 24.95 17.11 24.95 18.03 27.18 C17.54 28.66 17.54 28.66 17.03 30.18 C12.83 30.25 8.63 30.31 4.43 30.34 C3.01 30.36 1.58 30.38 0.15 30.41 C-1.91 30.44 -3.96 30.46 -6.02 30.47 C-7.25 30.49 -8.49 30.5 -9.76 30.52 C-13.2 30.16 -14.58 29.64 -16.97 27.18 C-18.17 21.38 -15.15 17.3 -12.22 12.55 C-11.78 11.8 -11.33 11.05 -10.88 10.28 C-4.85 0.29 -4.85 0.29 0 0 Z " fill="#0243FA" transform="translate(24.96875,16.8203125)"/>
<path d="M0 0 C5.28 2.08 6.98 6.68 9.59 11.52 C10.4 12.95 10.4 12.95 11.24 14.41 C15.74 22.52 15.74 22.52 15.21 27.27 C13.52 29.14 13.52 29.14 11.21 30.27 C8.71 30.27 8.71 30.27 6.21 29.27 C2.67 25.32 0.03 20.9 -2.6 16.33 C-3.02 15.64 -3.44 14.95 -3.87 14.24 C-5.83 10.84 -6.8 8.88 -6.74 4.89 C-5.41 1.22 -3.83 0.36 0 0 Z " fill="#0243F8" transform="translate(40.7890625,16.734375)"/>
</svg>
