<?xml version="1.0" encoding="UTF-8"?>
<!-- Generator: https://ezgif.com/png-to-svg -->
<svg version="1.1" xmlns="http://www.w3.org/2000/svg" width="64" height="64">
<path d="M0 0 C8.03 5.46 14.37 11.79 16.95 21.33 C17.71 30.95 18.11 40 11.96 47.88 C5.44 55.46 -0.49 60.74 -10.82 61.66 C-22.24 61.92 -29.76 60.1 -38.26 52.19 C-45.49 44.66 -47.44 37.95 -47.34 27.7 C-47.07 16.61 -43.04 11.07 -35.05 3.33 C-26.09 -4.28 -10.36 -5.61 0 0 Z " fill="#06E69C" transform="translate(47.046875,2.671875)"/>
<path d="M0 0 C8.03 5.46 14.37 11.79 16.95 21.33 C17.71 30.95 18.11 40 11.96 47.88 C5.44 55.46 -0.49 60.74 -10.82 61.66 C-22.24 61.92 -29.76 60.1 -38.26 52.19 C-45.49 44.66 -47.44 37.95 -47.34 27.7 C-47.07 16.61 -43.04 11.07 -35.05 3.33 C-26.09 -4.28 -10.36 -5.61 0 0 Z M-27.92 9.33 C-32.93 11.31 -32.93 11.31 -38.05 13.33 C-38.05 24.22 -38.05 35.11 -38.05 46.33 C-33.44 48.06 -33.44 48.06 -28.73 49.83 C-27.77 50.19 -26.81 50.56 -25.81 50.94 C-25.05 51.22 -24.28 51.5 -23.5 51.8 C-22.72 52.09 -21.94 52.38 -21.13 52.69 C-18.93 53.48 -18.93 53.48 -16.05 53.33 C-15.72 49.04 -15.39 44.75 -15.05 40.33 C-13.63 40.83 -12.21 41.34 -10.74 41.86 C-8.89 42.52 -7.03 43.17 -5.17 43.83 C-4.23 44.16 -3.3 44.5 -2.33 44.84 C-0.99 45.31 -0.99 45.31 0.38 45.8 C1.21 46.09 2.04 46.38 2.89 46.69 C4.91 47.43 4.91 47.43 6.95 47.33 C6.95 36.44 6.95 25.55 6.95 14.33 C5.96 14.33 4.97 14.33 3.95 14.33 C4.61 14 5.27 13.67 5.95 13.33 C5.95 12.67 5.95 12.01 5.95 11.33 C3.25 10.32 0.54 9.32 -2.17 8.33 C-2.93 8.04 -3.69 7.76 -4.48 7.46 C-13.57 4.17 -19.13 5.8 -27.92 9.33 Z " fill="#FCFEFD" transform="translate(47.046875,2.671875)"/>
<path d="M0 0 C0 10.89 0 21.78 0 33 C-7.66 30.91 -14.64 28.77 -22 26 C-22 19.73 -22 13.46 -22 7 C-18.71 5.83 -15.42 4.66 -12.12 3.5 C-11.19 3.17 -10.25 2.83 -9.29 2.49 C-8.39 2.17 -7.49 1.86 -6.57 1.53 C-5.74 1.24 -4.92 0.94 -4.06 0.64 C-2 0 -2 0 0 0 Z " fill="#02B093" transform="translate(54,17)"/>
<path d="M0 0 C0.66 0 1.32 0 2 0 C2 10.89 2 21.78 2 33 C1.34 33 0.68 33 0 33 C-0.17 28.46 -0.33 23.92 -0.48 19.38 C-0.54 17.84 -0.59 16.29 -0.65 14.75 C-0.73 12.53 -0.81 10.31 -0.88 8.1 C-0.91 7.4 -0.93 6.71 -0.96 5.99 C-1.01 4.33 -1.01 2.66 -1 1 C-0.67 0.67 -0.34 0.34 0 0 Z " fill="#1CBBA1" transform="translate(52,17)"/>
<path d="M0 0 C-2.08 0.84 -4.16 1.67 -6.25 2.5 C-7.41 2.96 -8.57 3.43 -9.77 3.91 C-13 5 -13 5 -17 5 C-16.67 4.01 -16.34 3.02 -16 2 C-13.3 1.19 -10.75 0.55 -8 0 C-7.07 -0.23 -6.14 -0.45 -5.19 -0.69 C-3 -1 -3 -1 0 0 Z " fill="#6BEBC4" transform="translate(48,19)"/>
<path d="" fill="#FFFFFF" transform="translate(0,0)"/>
<path d="" fill="#FFFFFF" transform="translate(0,0)"/>
</svg>
