<?xml version="1.0" encoding="UTF-8"?>
<!-- Generator: https://ezgif.com/png-to-svg -->
<svg version="1.1" xmlns="http://www.w3.org/2000/svg" width="64" height="64">
<path d="M0 0 C7.44 5.18 11.97 11.71 13.78 20.64 C14.9 30.76 12.76 38.64 6.96 46.96 C1.19 54.12 -5.96 57.95 -15.11 58.96 C-25 59.35 -32.8 56.46 -40.47 50.27 C-47.39 43.85 -50.3 36.05 -50.66 26.71 C-50.39 17.31 -46.58 9.49 -40.22 2.64 C-28.75 -7.95 -12.91 -7.87 0 0 Z " fill="#192D31" transform="translate(50.22265625,5.35546875)"/>
<path d="M0 0 C2.94 1.88 2.94 1.88 5 5 C5.94 9.64 6.1 13.95 3.82 18.2 C1.09 21.57 -1.65 24.15 -6 25 C-11.94 25 -15.38 22.7 -19.98 19.28 C-22.02 17.73 -22.02 17.73 -25 18 C-25.6 18.5 -26.2 18.99 -26.81 19.5 C-29.74 21.51 -31.51 21.44 -35 21 C-37.38 19.94 -37.38 19.94 -39 18 C-39.43 14.56 -39.63 12.15 -37.94 9.06 C-34.91 7.4 -32.38 7.7 -29 8 C-28.01 8.66 -27.02 9.32 -26 10 C-22.15 9.74 -19.91 7.49 -17.06 5.06 C-11.41 0.25 -7.47 -2 0 0 Z " fill="#2EE2AA" transform="translate(49,20)"/>
<path d="M0 0 C2 1.56 2 1.56 3 4 C3.54 8.99 3.08 12.01 0 16 C-3.7 18.47 -6.71 18.68 -11 18 C-14.31 16.12 -14.31 16.12 -17 14 C-17.99 13.34 -18.98 12.68 -20 12 C-16.73 4.02 -8.53 -1.8 0 0 Z " fill="#192D31" transform="translate(48,23)"/>
<path d="M0 0 C2.57 0.39 4.67 0.84 7 2 C6.31 3.94 6.31 3.94 5 6 C2.5 6.88 2.5 6.88 0 7 C-0.66 6.34 -1.32 5.68 -2 5 C-1.46 1.46 -1.46 1.46 0 0 Z " fill="#192D31" transform="translate(15,31)"/>
<path d="M0 0 C0.99 0.99 1.98 1.98 3 3 C-1.75 7 -1.75 7 -4 7 C-4 5.68 -4 4.36 -4 3 C-2 1.25 -2 1.25 0 0 Z " fill="#1DAC8D" transform="translate(22,34)"/>
<path d="M0 0 C2.19 0.31 2.19 0.31 4 1 C2.35 2.65 0.7 4.3 -1 6 C-1.66 5.01 -2.32 4.02 -3 3 C-1.75 1.44 -1.75 1.44 0 0 Z " fill="#1AA289" transform="translate(28,28)"/>
</svg>
