<svg xmlns="http://www.w3.org/2000/svg" xmlns:xlink="http://www.w3.org/1999/xlink" width="500" zoomAndPan="magnify" viewBox="0 0 375 374.999991" height="500" preserveAspectRatio="xMidYMid meet" version="1.2"><g id="4dd5e20bba"><rect x="0" width="375" y="0" height="374.999991" style="fill:#ffffff;fill-opacity:1;stroke:none;"/><rect x="0" width="375" y="0" height="374.999991" style="fill:#ffffff;fill-opacity:1;stroke:none;"/><path style=" stroke:none;fill-rule:nonzero;fill:#ffffff;fill-opacity:1;" d="M 252.75 375.75 C 168.5 375.75 84.625 375.75 0.75 375.75 C 0.75 250.75 0.75 125.75 0.75 0.75 C 125.75 0.75 250.75 0.75 375.75 0.75 C 375.75 125.75 375.75 250.75 375.75 375.75 C 334.875 375.75 294 375.75 252.75 375.75 M 95.367188 257.488281 C 124.792969 294.375 163.066406 310.015625 209.425781 301.882812 C 272.167969 290.878906 312.9375 231.507812 302.339844 168.425781 C 291.484375 103.816406 226.980469 58.460938 158.953125 76.296875 C 79.367188 97.167969 46.628906 190.476562 95.367188 257.488281 M 280.824219 102.816406 C 285.339844 108.363281 289.859375 113.910156 294.425781 119.519531 C 294.425781 106.964844 294.425781 94.480469 294.425781 82.03125 C 281.796875 82.03125 269.425781 82.03125 257.632812 82.03125 C 265.105469 88.714844 272.777344 95.578125 280.824219 102.816406 M 87.449219 294.707031 C 98.09375 294.707031 108.742188 294.707031 120.460938 294.707031 C 104.660156 284.167969 92.363281 271.601562 82.054688 256.203125 C 82.054688 269.5625 82.054688 281.980469 82.054688 294.707031 C 83.773438 294.707031 85.246094 294.707031 87.449219 294.707031 M 87.449219 81.824219 C 85.628906 81.824219 83.8125 81.824219 81.984375 81.824219 C 81.984375 94.6875 81.984375 106.960938 81.984375 118.929688 C 87.6875 112.355469 93.09375 105.335938 99.332031 99.160156 C 105.558594 93 112.617188 87.6875 119.527344 81.820312 C 109.035156 81.820312 98.605469 81.820312 87.449219 81.824219 M 271.125 294.761719 C 278.921875 294.761719 286.722656 294.761719 294.527344 294.761719 C 294.527344 281.824219 294.527344 269.425781 294.527344 256.09375 C 284.175781 271.667969 271.84375 284.195312 256.242188 294.761719 C 261.6875 294.761719 266.03125 294.761719 271.125 294.761719 Z M 271.125 294.761719 "/><path style=" stroke:none;fill-rule:nonzero;fill:#1d357b;fill-opacity:1;" d="M 95.226562 257.261719 C 46.628906 190.476562 79.367188 97.167969 158.953125 76.296875 C 226.980469 58.460938 291.484375 103.816406 302.339844 168.425781 C 312.9375 231.507812 272.167969 290.878906 209.425781 301.882812 C 163.066406 310.015625 124.792969 294.375 95.226562 257.261719 M 190.859375 103.230469 C 184.179688 103.8125 177.371094 103.753906 170.847656 105.085938 C 125.710938 114.285156 94.3125 158.796875 105.398438 207.195312 C 116.144531 254.105469 162.003906 281.835938 208.785156 270.742188 C 254.589844 259.882812 283.066406 210.980469 270.371094 165.777344 C 260.65625 131.183594 229.402344 104.519531 190.859375 103.230469 Z M 190.859375 103.230469 "/><path style=" stroke:none;fill-rule:nonzero;fill:#20387d;fill-opacity:1;" d="M 280.636719 102.628906 C 272.777344 95.578125 265.105469 88.714844 257.632812 82.03125 C 269.425781 82.03125 281.796875 82.03125 294.425781 82.03125 C 294.425781 94.480469 294.425781 106.964844 294.425781 119.519531 C 289.859375 113.910156 285.339844 108.363281 280.636719 102.628906 Z M 280.636719 102.628906 "/><path style=" stroke:none;fill-rule:nonzero;fill:#20387c;fill-opacity:1;" d="M 87.082031 294.707031 C 85.246094 294.707031 83.773438 294.707031 82.054688 294.707031 C 82.054688 281.980469 82.054688 269.5625 82.054688 256.203125 C 92.363281 271.601562 104.660156 284.167969 120.460938 294.707031 C 108.742188 294.707031 98.09375 294.707031 87.082031 294.707031 Z M 87.082031 294.707031 "/><path style=" stroke:none;fill-rule:nonzero;fill:#20387c;fill-opacity:1;" d="M 87.8125 81.824219 C 98.605469 81.820312 109.035156 81.820312 119.527344 81.820312 C 112.617188 87.6875 105.558594 93 99.332031 99.160156 C 93.09375 105.335938 87.6875 112.355469 81.984375 118.929688 C 81.984375 106.960938 81.984375 94.6875 81.984375 81.824219 C 83.8125 81.824219 85.628906 81.824219 87.8125 81.824219 Z M 87.8125 81.824219 "/><path style=" stroke:none;fill-rule:nonzero;fill:#1f377c;fill-opacity:1;" d="M 270.75 294.761719 C 266.03125 294.761719 261.6875 294.761719 256.242188 294.761719 C 271.84375 284.195312 284.175781 271.667969 294.527344 256.09375 C 294.527344 269.425781 294.527344 281.824219 294.527344 294.761719 C 286.722656 294.761719 278.921875 294.761719 270.75 294.761719 Z M 270.75 294.761719 "/><path style=" stroke:none;fill-rule:nonzero;fill:#ffffff;fill-opacity:1;" d="M 191.230469 103.261719 C 229.402344 104.519531 260.65625 131.183594 270.371094 165.777344 C 283.066406 210.980469 254.589844 259.882812 208.785156 270.742188 C 162.003906 281.835938 116.144531 254.105469 105.398438 207.195312 C 94.3125 158.796875 125.710938 114.285156 170.847656 105.085938 C 177.371094 103.753906 184.179688 103.8125 191.230469 103.261719 Z M 191.230469 103.261719 "/></g></svg>