<?xml version="1.0" encoding="UTF-8"?>
<!-- Generator: https://ezgif.com/png-to-svg -->
<svg version="1.1" xmlns="http://www.w3.org/2000/svg" width="64" height="64">
<path d="M0 0 C21.12 0 42.24 0 64 0 C64 21.12 64 42.24 64 64 C42.88 64 21.76 64 0 64 C0 42.88 0 21.76 0 0 Z " fill="#FC0521" transform="translate(0,0)"/>
<path d="M0 0 C0.66 1.32 1.32 2.64 2 4 C7 13.81 13.02 20.38 23.5 24.31 C24.32 24.54 25.15 24.77 26 25 C26 25.33 26 25.66 26 26 C17.42 26 8.84 26 0 26 C0 17.42 0 8.84 0 0 Z " fill="#FEFAFA" transform="translate(0,38)"/>
<path d="M0 0 C0.33 0 0.66 0 1 0 C1 8.58 1 17.16 1 26 C-7.58 26 -16.16 26 -25 26 C-21 24 -21 24 -19.04 23.07 C-9.44 18.47 -4.42 12.37 -0.62 2.38 C-0.32 1.2 -0.32 1.2 0 0 Z " fill="#FEFAFB" transform="translate(63,38)"/>
<path d="M0 0 C2 2 2 2 2.31 5.25 C1.98 9.25 1.1 11.61 -1 15 C-3.34 16.17 -4.89 16.2 -7.5 16.25 C-8.29 16.28 -9.09 16.3 -9.91 16.33 C-10.6 16.22 -11.29 16.11 -12 16 C-14.3 12.56 -14.11 10.99 -13.48 7 C-12.82 4.23 -11.76 2.23 -10 0 C-6.26 -1.25 -3.83 -0.77 0 0 Z " fill="#FDF5F5" transform="translate(30,24)"/>
<path d="M0 0 C8.58 0 17.16 0 26 0 C26 8.58 26 17.16 26 26 C24 22 24 22 23.07 20.04 C18.47 10.44 12.37 5.42 2.38 1.62 C1.59 1.42 0.81 1.21 0 1 C0 0.67 0 0.34 0 0 Z " fill="#FEFAFB" transform="translate(38,0)"/>
<path d="M0 0 C8.58 0 17.16 0 26 0 C22 2 22 2 20.04 2.93 C10.44 7.53 5.42 13.63 1.62 23.62 C1.42 24.41 1.21 25.19 1 26 C0.67 26 0.34 26 0 26 C0 17.42 0 8.84 0 0 Z " fill="#FEFAFB" transform="translate(0,0)"/>
<path d="M0 0 C3.96 0 7.92 0 12 0 C12.8 3.21 13.3 5.25 12.06 8.38 C8.82 10.93 6.05 10.27 2 10 C1.67 11.98 1.34 13.96 1 16 C-0.32 16 -1.64 16 -3 16 C-2.52 10.43 -1.7 5.33 0 0 Z " fill="#FDF9FA" transform="translate(36,24)"/>
<path d="M0 0 C2.31 0.33 4.62 0.66 7 1 C7 1.66 7 2.32 7 3 C5.68 3.33 4.36 3.66 3 4 C2.34 6.97 1.68 9.94 1 13 C3.97 13.5 3.97 13.5 7 14 C7 14.66 7 15.32 7 16 C5.54 16.08 4.08 16.14 2.62 16.19 C1.81 16.22 1 16.26 0.16 16.29 C-0.55 16.2 -1.26 16.1 -2 16 C-4.29 12.56 -4.1 11 -3.49 7.01 C-2.83 4.31 -1.61 2.24 0 0 Z " fill="#FDF9F9" transform="translate(20,24)"/>
<path d="M0 0 C2.05 0.03 4.1 0.07 6.15 0.1 C6.84 2.91 6.84 2.91 7.15 6.1 C5.71 7.97 5.71 7.97 4.15 9.1 C4.15 8.11 4.15 7.12 4.15 6.1 C1.84 6.43 -0.47 6.76 -2.85 7.1 C-2.89 5.1 -2.89 3.1 -2.85 1.1 C-1.85 0.1 -1.85 0.1 0 0 Z " fill="#FCF7F6" transform="translate(41.84765625,23.90234375)"/>
<path d="M0 0 C1.65 0.33 3.3 0.66 5 1 C4.34 3.64 3.68 6.28 3 9 C1.35 9.33 -0.3 9.66 -2 10 C-2.25 3.38 -2.25 3.38 0 0 Z " fill="#F50925" transform="translate(23,27)"/>
<path d="M0 0 C1.32 0 2.64 0 4 0 C4 1.32 4 2.64 4 4 C2.35 4 0.7 4 -1 4 C-0.67 2.68 -0.34 1.36 0 0 Z " fill="#F70923" transform="translate(40,27)"/>
</svg>
