<?xml version="1.0" encoding="UTF-8"?>
<!-- Generator: https://ezgif.com/png-to-svg -->
<svg version="1.1" xmlns="http://www.w3.org/2000/svg" width="64" height="64">
<path d="M0 0 C7.5 6 11.84 11.51 14.56 20.81 C15.5 29.92 14.45 37.97 9 45.56 C3.01 52.86 -4.21 57.7 -13.62 59.12 C-22.28 59.73 -30.2 57.37 -37.19 52.25 C-44.86 45.31 -48.66 37.25 -49.21 26.95 C-49.12 17.67 -45.64 10.91 -39.26 4.23 C-27.89 -6.27 -13.48 -7.4 0 0 Z " fill="#68A1D2" transform="translate(49.1875,4.75)"/>
<path d="M0 0 C0.58 0.31 1.16 0.62 1.75 0.94 C3.92 2.07 3.92 2.07 6.12 2.44 C8 3 8 3 10 6 C8.02 6.99 8.02 6.99 6 8 C5.5 11.29 5.5 11.29 6 15 C8.19 17.67 10.91 19.46 14 21 C14.66 19.35 15.32 17.7 16 16 C16.99 16 17.98 16 19 16 C19 16.66 19 17.32 19 18 C19.99 18.33 20.98 18.66 22 19 C21.34 19.99 20.68 20.98 20 22 C19.34 22 18.68 22 18 22 C18 22.66 18 23.32 18 24 C19.32 24.33 20.64 24.66 22 25 C22.33 24.34 22.66 23.68 23 23 C23.99 24.98 24.98 26.96 26 29 C26.99 28.67 27.98 28.34 29 28 C29.72 25.68 30.38 23.35 31 21 C33 19 33 19 36 18 C36 18.66 36 19.32 36 20 C36.99 20.33 37.98 20.66 39 21 C42.12 25.12 42.12 25.12 41.69 28.31 C41.46 28.87 41.23 29.43 41 30 C41.49 28.52 41.49 28.52 42 27 C44.96 27.61 46.38 28.25 49 30 C50.21 27.67 51.17 25.5 52 23 C55.06 21.81 55.06 21.81 58 21 C57.3 29.46 54.15 35.67 47.9 41.46 C40.93 47.09 32.26 49.36 23.32 48.85 C14.33 47.38 7.22 43.25 1.5 36.16 C-3.72 28.66 -5.76 20.6 -4.71 11.48 C-3.86 7.13 -2.59 3.65 0 0 Z " fill="#AACFEB" transform="translate(5,15)"/>
<path d="M0 0 C1.95 0.26 3.9 0.53 5.86 0.81 C8.69 1.06 11.23 0.62 14 0 C17.29 7.43 17.29 7.43 18 11 C18.37 10.51 18.74 10.01 19.12 9.5 C21 8 21 8 24 7.5 C27 8 27 8 29.06 10.06 C30.14 13.45 29.75 15.19 28.17 18.36 C26.29 20.99 23.75 22.39 21 24 C20.67 24.66 20.34 25.32 20 26 C18.62 24.71 17.29 23.37 16 22 C16 21.34 16 20.68 16 20 C15.55 20.5 15.09 20.99 14.62 21.5 C13 23 13 23 11 23 C10.92 24.11 10.84 25.23 10.75 26.38 C10 30 10 30 7.94 31.44 C7.3 31.62 6.66 31.81 6 32 C3.86 29.86 3.57 28.87 3 26 C2.67 26.33 2.34 26.66 2 27 C0.33 27.04 -1.33 27.04 -3 27 C-2 24.01 -1.25 23.05 1 21 C0.34 20.67 -0.32 20.34 -1 20 C-1 19.34 -1 18.68 -1 18 C-1.99 18 -2.98 18 -4 18 C-4.33 20.31 -4.66 22.62 -5 25 C-5.33 24.34 -5.66 23.68 -6 23 C-7.14 22.57 -7.14 22.57 -8.31 22.12 C-11.45 20.81 -12.99 19.75 -15 17 C-15.38 13.38 -15.38 13.38 -15 10 C-13 8 -13 8 -10.06 7.69 C-6.64 8.04 -6.17 8.54 -4 11 C-3.8 10.29 -3.59 9.58 -3.38 8.85 C-3.11 7.93 -2.84 7.01 -2.56 6.06 C-2.3 5.15 -2.03 4.23 -1.75 3.29 C-1 1 -1 1 0 0 Z " fill="#3C2218" transform="translate(25,13)"/>
<path d="M0 0 C0.92 0.48 0.92 0.48 1.87 0.97 C3.94 2.08 3.94 2.08 6.12 2.44 C8 3 8 3 10 6 C8.02 6.99 8.02 6.99 6 8 C5.5 11.29 5.5 11.29 6 15 C8.19 17.67 10.91 19.46 14 21 C14.66 19.35 15.32 17.7 16 16 C16.99 16 17.98 16 19 16 C19 16.66 19 17.32 19 18 C19.99 18.33 20.98 18.66 22 19 C21.34 19.99 20.68 20.98 20 22 C19.34 22 18.68 22 18 22 C18 22.66 18 23.32 18 24 C19.32 24.33 20.64 24.66 22 25 C22.33 24.34 22.66 23.68 23 23 C23.99 24.98 24.98 26.96 26 29 C26.99 28.67 27.98 28.34 29 28 C29.72 25.68 30.38 23.35 31 21 C33 19 33 19 36 18 C36 18.66 36 19.32 36 20 C36.99 20.33 37.98 20.66 39 21 C40.69 23.56 40.69 23.56 42 26 C38 33.31 38 33.31 34.81 35.5 C25.88 37.09 20.13 35.62 12.18 31.49 C8.75 29.72 6.96 29 3 29 C3 28.34 3 27.68 3 27 C2.34 27 1.68 27 1 27 C1 27.66 1 28.32 1 29 C-0.32 28.67 -1.64 28.34 -3 28 C-5.71 19.71 -5.9 11.2 -1.94 3.25 C-0.98 1.64 -0.98 1.64 0 0 Z " fill="#C8D6E8" transform="translate(5,15)"/>
<path d="M0 0 C0.99 0 1.98 0 3 0 C3 0.66 3 1.32 3 2 C3.99 2.33 4.98 2.66 6 3 C5.01 4.48 5.01 4.48 4 6 C3.34 6 2.68 6 2 6 C2 6.66 2 7.32 2 8 C3.32 8.33 4.64 8.66 6 9 C6.33 8.34 6.66 7.68 7 7 C7.99 8.98 8.98 10.96 10 13 C10.99 12.67 11.98 12.34 13 12 C13.72 9.68 14.38 7.35 15 5 C17 3 17 3 20 2 C20 2.66 20 3.32 20 4 C20.99 4.33 21.98 4.66 23 5 C24.69 7.56 24.69 7.56 26 10 C22 17.31 22 17.31 18.81 19.5 C11.66 20.77 5.4 20.59 -1.21 17.36 C-3.3 15.77 -3.84 14.74 -4.56 12.25 C-4.71 11.18 -4.85 10.11 -5 9 C-4.04 8.72 -4.04 8.72 -3.06 8.44 C-0.58 7.06 -0.58 7.06 -0.25 3.38 C-0.17 2.26 -0.09 1.15 0 0 Z " fill="#C8AA8D" transform="translate(21,31)"/>
<path d="M0 0 C6.31 3.69 11.58 8.98 14.44 15.81 C14.07 18.06 14.07 18.06 13.44 19.81 C13.02 18.86 12.61 17.91 12.19 16.94 C10.37 13.7 9.87 12.89 6.44 11.81 C5.41 11.69 4.38 11.56 3.31 11.44 C2.36 11.23 1.41 11.02 0.44 10.81 C-0.69 8.88 -0.69 8.88 -1.56 6.81 C-4.55 4.93 -7.07 4.53 -10.56 4.31 C-14.14 4.09 -16.39 3.43 -19.56 1.81 C-21.89 1.73 -24.23 1.72 -26.56 1.81 C-25.56 -0.19 -25.56 -0.19 -22.92 -1.29 C-15.3 -3.33 -7.2 -3.43 0 0 Z " fill="#4B8CC5" transform="translate(44.5625,6.1875)"/>
<path d="M0 0 C1.2 0.19 2.39 0.37 3.62 0.56 C7.28 1.03 10.38 0.81 14 0 C16 3 16 3 16 11 C10.06 11 4.12 11 -2 11 C-3.28 5.86 -2.22 4.62 0 0 Z " fill="#5C2D12" transform="translate(25,13)"/>
<path d="M0 0 C-0.79 9.5 -4.8 15.84 -12 22 C-16.07 25.1 -16.07 25.1 -19.81 24.69 C-20.53 24.46 -21.26 24.23 -22 24 C-21.34 23.67 -20.68 23.34 -20 23 C-19.69 22.36 -19.38 21.72 -19.06 21.06 C-18 19 -18 19 -15 17 C-14.01 17 -13.02 17 -12 17 C-12.33 15.68 -12.66 14.36 -13 13 C-12.36 12.59 -11.72 12.17 -11.06 11.75 C-8.71 9.75 -8.54 8.95 -8 6 C-6.93 2.96 -6.4 2.19 -3.44 0.75 C-1 0 -1 0 0 0 Z " fill="#E9F0F3" transform="translate(63,36)"/>
<path d="M0 0 C3.88 1.78 3.88 1.78 4.94 3.75 C5.03 7.22 3.87 9.11 2 12 C-1.12 14.25 -1.12 14.25 -4 16 C-4.33 16.66 -4.66 17.32 -5 18 C-7 12.25 -7 12.25 -7 10 C-8.98 10.33 -10.96 10.66 -13 11 C-12.34 10.48 -11.68 9.97 -11 9.44 C-7.25 6.39 -3.62 3.2 0 0 Z " fill="#36170B" transform="translate(50,21)"/>
<path d="M0 0 C1.32 0.33 2.64 0.66 4 1 C-9.04 12.78 -9.04 12.78 -16.03 12.47 C-19.55 11.63 -21.48 9.52 -24 7 C-19.47 5.49 -14.99 5.98 -10.25 6.06 C-6.99 6.16 -6.99 6.16 -4 5 C-2.61 3.38 -1.27 1.71 0 0 Z " fill="#5A2C11" transform="translate(46,21)"/>
<path d="M0 0 C0.66 0 1.32 0 2 0 C2 0.66 2 1.32 2 2 C2.57 1.8 3.14 1.59 3.73 1.38 C6.6 0.9 7.73 1.55 10.25 2.94 C10.96 3.32 11.66 3.7 12.39 4.09 C12.92 4.39 13.45 4.69 14 5 C10.83 7.12 9.22 7.47 5.5 7.88 C4.54 8 3.58 8.12 2.59 8.24 C0 8 0 8 -1.84 6.13 C-3 4 -3 4 -3 2 C-2.01 2 -1.02 2 0 2 C0 1.34 0 0.68 0 0 Z " fill="#8DA9D1" transform="translate(6,42)"/>
<path d="M0 0 C6.75 -0.12 6.75 -0.12 9 1 C10.04 2.64 11.04 4.31 12 6 C12.99 7.48 12.99 7.48 14 9 C13.37 8.93 12.75 8.86 12.1 8.78 C10.88 8.64 10.88 8.64 9.62 8.5 C8.81 8.41 8 8.31 7.16 8.22 C5.03 7.97 5.03 7.97 3 8 C3 6.02 3 4.04 3 2 C2.34 2 1.68 2 1 2 C1 2.66 1 3.32 1 4 C0.34 3.67 -0.32 3.34 -1 3 C-0.67 2.01 -0.34 1.02 0 0 Z " fill="#9ABFE2" transform="translate(1,26)"/>
<path d="M0 0 C0.99 0 1.98 0 3 0 C3 0.66 3 1.32 3 2 C3.99 2.33 4.98 2.66 6 3 C5.01 4.48 5.01 4.48 4 6 C3.34 6 2.68 6 2 6 C2 6.66 2 7.32 2 8 C1.01 8.33 0.02 8.66 -1 9 C-2.33 12 -2.33 12 -1 15 C-1.99 14.67 -2.98 14.34 -4 14 C-4.33 12.35 -4.66 10.7 -5 9 C-4.04 8.72 -4.04 8.72 -3.06 8.44 C-0.58 7.06 -0.58 7.06 -0.25 3.38 C-0.17 2.26 -0.09 1.15 0 0 Z " fill="#8E7B6E" transform="translate(21,31)"/>
<path d="M0 0 C0.84 0.56 0.84 0.56 1.69 1.12 C-2.62 6.05 -2.62 6.05 -6.12 6.44 C-7.21 6.28 -7.21 6.28 -8.31 6.12 C-8.12 3.75 -8.12 3.75 -7.31 1.12 C-4.46 -0.65 -3.19 -1.21 0 0 Z " fill="#BBCDE4" transform="translate(13.3125,18.875)"/>
<path d="M0 0 C0.99 0.33 1.98 0.66 3 1 C2.4 1.41 1.8 1.82 1.19 2.25 C-1.08 3.9 -1.08 3.9 -2.56 6.19 C-3.27 7.08 -3.27 7.08 -4 8 C-4.99 8 -5.98 8 -7 8 C-7 8.66 -7 9.32 -7 10 C-8.98 10.33 -10.96 10.66 -13 11 C-12.34 10.48 -11.68 9.97 -11 9.44 C-9.29 8.05 -7.61 6.64 -5.99 5.14 C-5.29 4.5 -4.59 3.85 -3.88 3.19 C-2.88 2.25 -2.88 2.25 -1.87 1.29 C-1.25 0.87 -0.63 0.44 0 0 Z " fill="#160802" transform="translate(50,21)"/>
<path d="M0 0 C1.11 3.33 0.84 5.62 0 9 C-1.32 8.67 -2.64 8.34 -4 8 C-4.33 9.32 -4.66 10.64 -5 12 C-5.66 11.67 -6.32 11.34 -7 11 C-6.34 9.02 -5.68 7.04 -5 5 C-4.34 5 -3.68 5 -3 5 C-3 4.01 -3 3.02 -3 2 C-2.01 1.34 -1.02 0.68 0 0 Z " fill="#567996" transform="translate(51,34)"/>
<path d="M0 0 C5.53 -0.19 9.76 0.25 15 2 C15 2.33 15 2.66 15 3 C12.88 3.08 10.75 3.14 8.62 3.19 C7.44 3.22 6.26 3.26 5.04 3.29 C3.53 3.15 3.53 3.15 2 3 C1.34 2.01 0.68 1.02 0 0 Z " fill="#D4E6F2" transform="translate(27,59)"/>
<path d="M0 0 C1.32 0.33 2.64 0.66 4 1 C2.9 3.99 2.32 4.85 -0.62 6.25 C-1.41 6.5 -2.19 6.74 -3 7 C-3.33 6.01 -3.66 5.02 -4 4 C-3.01 3.34 -2.02 2.68 -1 2 C-0.67 1.34 -0.34 0.68 0 0 Z " fill="#C3DFF4" transform="translate(49,53)"/>
<path d="M0 0 C-0.33 0.99 -0.66 1.98 -1 3 C-3.31 3.33 -5.62 3.66 -8 4 C-8 3.01 -8 2.02 -8 1 C-5.29 -0.35 -2.99 -0.07 0 0 Z " fill="#7FADD7" transform="translate(26,2)"/>
<path d="M0 0 C2.31 0 4.62 0 7 0 C7 0.66 7 1.32 7 2 C5.02 2.66 3.04 3.32 1 4 C0.67 2.68 0.34 1.36 0 0 Z " fill="#ADC1E0" transform="translate(8,36)"/>
</svg>
