<?xml version="1.0" encoding="UTF-8"?>
<!-- Generator: https://ezgif.com/png-to-svg -->
<svg version="1.1" xmlns="http://www.w3.org/2000/svg" width="64" height="64">
<path d="M0 0 C7.87 5.32 12.92 11.22 15.95 20.32 C16.75 31.94 16.22 40.37 8.58 49.63 C3.05 55.56 -2.66 58.93 -10.82 59.66 C-22.11 59.91 -29.81 58.13 -38.25 50.32 C-45.72 41.98 -46.72 32.97 -46.22 22.23 C-45.51 14.47 -40.48 8.54 -35.05 3.32 C-25.69 -3.94 -10.67 -5.82 0 0 Z " fill="#8837D9" transform="translate(47.046875,3.6796875)"/>
<path d="M0 0 C2.69 1.56 2.69 1.56 3.69 3.56 C4.28 7.34 4.45 10.81 3.69 14.56 C0.61 17.94 -3.79 19.96 -8.31 20.56 C-9.3 19.9 -10.29 19.24 -11.31 18.56 C-11.5 15.94 -11.5 15.94 -11.31 13.56 C-9.98 13.87 -9.98 13.87 -8.62 14.19 C-5.09 14.59 -3.45 14.13 -0.31 12.56 C-0.52 7.41 -0.52 7.41 -3.56 3.5 C-6.29 2.28 -6.29 2.28 -9.06 3.31 C-11.22 4.37 -11.22 4.37 -12.31 5.56 C-12.37 6.92 -12.37 8.28 -12.35 9.64 C-12.35 10.47 -12.36 11.3 -12.37 12.16 C-12.37 13.91 -12.35 15.67 -12.3 17.42 C-12.41 23.67 -12.41 23.67 -15.05 26.29 C-18.35 28.43 -20.45 29.56 -24.44 29.56 C-32.76 26.67 -32.76 26.67 -34.31 23.56 C-34.9 19.79 -35.08 16.32 -34.31 12.56 C-31.23 9.19 -26.84 7.17 -22.31 6.56 C-21.32 7.22 -20.33 7.88 -19.31 8.56 C-19.12 11.19 -19.12 11.19 -19.31 13.56 C-20.2 13.36 -21.09 13.15 -22 12.94 C-25.54 12.54 -27.18 13 -30.31 14.56 C-30.1 19.71 -30.1 19.71 -27.06 23.62 C-24.33 24.84 -24.33 24.84 -21.56 23.81 C-19.41 22.75 -19.41 22.75 -18.31 21.56 C-18.25 20.2 -18.25 18.84 -18.28 17.48 C-18.27 16.65 -18.27 15.82 -18.26 14.96 C-18.25 13.21 -18.27 11.46 -18.32 9.71 C-18.21 3.46 -18.21 3.46 -15.58 0.84 C-9.69 -2.99 -6.45 -2.8 0 0 Z " fill="#FCFAFE" transform="translate(47.3125,18.4375)"/>
</svg>
