<?xml version="1.0" encoding="UTF-8"?>
<!-- Generator: https://ezgif.com/webp-to-svg -->
<svg version="1.1" xmlns="http://www.w3.org/2000/svg" width="250" height="250">
<path d="M0 0 C3.29 0.02 6.59 0.02 9.88 0.01 C11.99 0.02 14.1 0.03 16.21 0.04 C17.19 0.03 18.16 0.03 19.17 0.03 C24.51 0.09 28.92 0.61 33.97 2.34 C35.8 2.82 37.64 3.3 39.47 3.77 C43.87 4.97 47.84 6.43 51.97 8.34 C53.73 9.08 53.73 9.08 55.53 9.84 C61.58 12.47 67.02 15.54 72.47 19.21 C73.43 19.84 73.43 19.84 74.41 20.49 C78.48 23.21 82.34 26.03 85.97 29.34 C85.97 30 85.97 30.66 85.97 31.34 C86.7 31.57 87.44 31.81 88.19 32.05 C95.46 35.42 101.76 44.59 105.97 51.34 C105.97 52 105.97 52.66 105.97 53.34 C106.63 53.34 107.29 53.34 107.97 53.34 C110.97 59.09 110.97 59.09 110.97 61.34 C111.63 61.34 112.29 61.34 112.97 61.34 C118.79 73.3 124.45 85.3 126.61 98.54 C126.8 100.35 126.8 100.35 127.97 101.34 C128.07 102.81 128.11 104.29 128.12 105.76 C128.12 106.7 128.13 107.64 128.14 108.61 C128.14 110.15 128.14 110.15 128.14 111.72 C128.14 112.77 128.15 113.82 128.15 114.9 C128.15 117.13 128.16 119.36 128.16 121.59 C128.16 124.99 128.18 128.39 128.2 131.8 C128.2 133.96 128.2 136.12 128.2 138.29 C128.21 139.3 128.22 140.32 128.22 141.36 C128.21 146.45 127.94 150.57 125.97 155.34 C125.47 157.31 125 159.29 124.53 161.27 C123.4 165.92 122 170.02 119.97 174.34 C119.67 175.11 119.36 175.89 119.05 176.7 C117.94 179.42 116.68 182.02 115.35 184.65 C114.9 185.53 114.45 186.41 113.99 187.32 C113.66 187.99 113.32 188.65 112.97 189.34 C112.31 189.34 111.65 189.34 110.97 189.34 C110.79 190.14 110.6 190.94 110.41 191.77 C108.43 196.68 105.3 200.28 101.97 204.34 C101.21 205.35 100.45 206.36 99.66 207.4 C99.1 208.04 98.55 208.68 97.97 209.34 C97.31 209.34 96.65 209.34 95.97 209.34 C95.77 210.06 95.56 210.78 95.35 211.52 C93.5 215.31 91.37 216.86 87.97 219.34 C87.31 219.34 86.65 219.34 85.97 219.34 C85.74 219.93 85.5 220.53 85.26 221.14 C83.68 223.83 82.05 224.84 79.41 226.46 C76.1 228.35 76.1 228.35 73.97 231.34 C71.49 232.7 69.02 233.98 66.47 235.21 C65.74 235.57 65.01 235.93 64.26 236.3 C59.21 238.77 54.15 241.16 48.97 243.34 C48.2 243.67 47.43 244.01 46.63 244.36 C44.1 245.42 41.55 246.39 38.97 247.34 C38.22 247.61 37.47 247.89 36.69 248.17 C26.65 251.22 16.35 250.75 5.94 250.67 C2.65 250.65 -0.64 250.65 -3.94 250.66 C-6.05 250.65 -8.16 250.65 -10.27 250.64 C-11.24 250.64 -12.22 250.64 -13.22 250.64 C-18.56 250.58 -22.98 250.06 -28.03 248.34 C-29.86 247.86 -31.69 247.38 -33.53 246.9 C-37.93 245.7 -41.89 244.24 -46.03 242.34 C-47.79 241.59 -47.79 241.59 -49.59 240.84 C-55.63 238.2 -61.07 235.13 -66.53 231.46 C-67.17 231.04 -67.8 230.62 -68.46 230.18 C-72.54 227.46 -76.4 224.64 -80.03 221.34 C-80.03 220.68 -80.03 220.02 -80.03 219.34 C-80.76 219.1 -81.5 218.87 -82.25 218.63 C-89.51 215.25 -95.81 206.08 -100.03 199.34 C-100.03 198.68 -100.03 198.02 -100.03 197.34 C-100.69 197.34 -101.35 197.34 -102.03 197.34 C-105.03 191.59 -105.03 191.59 -105.03 189.34 C-105.69 189.34 -106.35 189.34 -107.03 189.34 C-112.84 177.37 -118.51 165.37 -120.67 152.13 C-120.86 150.32 -120.86 150.32 -122.03 149.34 C-122.13 147.86 -122.17 146.39 -122.17 144.91 C-122.18 143.97 -122.19 143.03 -122.19 142.06 C-122.19 141.03 -122.2 140.01 -122.2 138.95 C-122.2 137.9 -122.2 136.85 -122.21 135.77 C-122.21 133.54 -122.21 131.31 -122.21 129.08 C-122.22 125.68 -122.23 122.28 -122.25 118.88 C-122.26 116.71 -122.26 114.55 -122.26 112.39 C-122.27 111.37 -122.27 110.36 -122.28 109.31 C-122.26 104.23 -122 100.1 -120.03 95.34 C-119.53 93.36 -119.05 91.38 -118.59 89.4 C-117.45 84.75 -116.06 80.66 -114.03 76.34 C-113.57 75.17 -113.57 75.17 -113.1 73.98 C-111.99 71.25 -110.73 68.65 -109.4 66.02 C-108.96 65.14 -108.51 64.26 -108.05 63.35 C-107.71 62.68 -107.38 62.02 -107.03 61.34 C-106.37 61.34 -105.71 61.34 -105.03 61.34 C-104.84 60.53 -104.66 59.73 -104.47 58.9 C-102.49 54 -99.36 50.39 -96.03 46.34 C-95.27 45.33 -94.5 44.31 -93.72 43.27 C-92.88 42.31 -92.88 42.31 -92.03 41.34 C-91.37 41.34 -90.71 41.34 -90.03 41.34 C-89.82 40.61 -89.62 39.89 -89.4 39.15 C-87.55 35.36 -85.43 33.81 -82.03 31.34 C-81.37 31.34 -80.71 31.34 -80.03 31.34 C-79.79 30.74 -79.56 30.15 -79.31 29.53 C-77.74 26.84 -76.11 25.83 -73.47 24.21 C-70.16 22.32 -70.16 22.32 -68.03 19.34 C-65.55 17.97 -63.07 16.7 -60.53 15.46 C-59.8 15.1 -59.07 14.74 -58.31 14.37 C-53.27 11.91 -48.21 9.51 -43.03 7.34 C-42.26 7 -41.48 6.66 -40.69 6.32 C-38.16 5.25 -35.61 4.28 -33.03 3.34 C-32.28 3.06 -31.53 2.79 -30.75 2.5 C-20.7 -0.55 -10.4 -0.08 0 0 Z " fill="#5455FE" transform="translate(122.028564453125,-0.336181640625)"/>
<path d="M0 0 C-1.41 9.72 -3.12 19.36 -5 29 C-5.16 29.88 -5.33 30.76 -5.5 31.66 C-6.64 37.4 -8.69 42.63 -11 48 C-11.66 48 -12.32 48 -13 48 C-13.25 48.75 -13.5 49.49 -13.76 50.26 C-17.83 59.24 -29.36 65.05 -37.98 68.88 C-44.88 71.06 -52.85 70.16 -60 70 C-71.12 91.6 -74.7 118.49 -69.46 142.31 C-68.86 145.83 -68.66 149.31 -68.56 152.88 C-68.5 154.73 -68.5 154.73 -68.44 156.62 C-69.15 160.9 -70.69 162.3 -74 165 C-77.07 166.54 -79.6 166.23 -83 166 C-86.98 164.42 -88.61 163.59 -91 160 C-92.14 149.45 -90.24 138.47 -89 128 C-88.34 128 -87.68 128 -87 128 C-87.05 123.54 -87.15 119.08 -87.25 114.62 C-87.26 113.37 -87.28 112.12 -87.29 110.83 C-87.57 100.23 -89.51 92.26 -96.54 84.18 C-98.08 82.69 -98.08 82.69 -101 83 C-102.19 84.72 -103.39 86.45 -104.58 88.18 C-106.93 91.19 -109.38 92.95 -113 94 C-118.42 94.46 -123.8 94.73 -129 93 C-129 92.34 -129 91.68 -129 91 C-129.89 90.77 -130.77 90.55 -131.69 90.31 C-137.68 87.94 -141.45 82.42 -145.5 77.56 C-145.96 77.02 -146.42 76.47 -146.89 75.9 C-148.73 73.72 -150.57 71.53 -152.38 69.31 C-154.73 66.44 -157.02 64.21 -160 62 C-160 61.34 -160 60.68 -160 60 C-153.73 57.78 -147.87 57.67 -141.25 57.69 C-140.23 57.67 -139.21 57.66 -138.16 57.64 C-127.28 57.63 -118.16 60.14 -109 66 C-107.78 66.77 -107.78 66.77 -106.54 67.56 C-94.71 75.43 -86.33 85.34 -80 98 C-78.02 92.06 -76.04 86.12 -74 80 C-73.34 80 -72.68 80 -72 80 C-71.93 79.32 -71.85 78.64 -71.77 77.94 C-70.52 68.69 -67.42 60.6 -64 52 C-63.67 51.01 -63.34 50.02 -63 49 C-62.34 49 -61.68 49 -61 49 C-60.79 47.91 -60.59 46.81 -60.38 45.69 C-56.59 30.72 -43.93 15.73 -31.06 7.62 C-21.04 2.06 -11.39 -0.2 0 0 Z " fill="#01DF1F" transform="translate(200,45)"/>
<path d="M0 0 C0.33 0 0.66 0 1 0 C1.03 2.77 1.05 5.54 1.06 8.31 C1.07 9.1 1.08 9.88 1.09 10.69 C1.09 11.45 1.09 12.21 1.1 12.99 C1.1 13.68 1.11 14.38 1.11 15.1 C1 17 1 17 0 20 C-0.17 21.83 -0.27 23.66 -0.31 25.5 C-0.35 26.46 -0.39 27.42 -0.43 28.41 C-0.23 31.09 -0.23 31.09 1.71 32.83 C4.37 34.19 6.03 34.34 9 34.25 C9.85 34.23 10.69 34.22 11.56 34.2 C13.82 34.02 15.83 33.62 18 33 C18 32.01 18 31.02 18 30 C18.66 30 19.32 30 20 30 C19.08 33.1 18.33 34.73 15.81 36.81 C11.05 38.82 7.45 38.58 2.69 36.69 C0 35 0 35 -2 32 C-3.14 21.45 -1.24 10.47 0 0 Z " fill="#0DAB41" transform="translate(111,173)"/>
<path d="M0 0 C0.66 0 1.32 0 2 0 C1.67 9.9 1.34 19.8 1 30 C0.34 30 -0.32 30 -1 30 C-1.02 25.89 -1.04 21.78 -1.05 17.66 C-1.06 16.27 -1.07 14.87 -1.08 13.47 C-1.09 11.46 -1.09 9.45 -1.1 7.44 C-1.1 6.23 -1.11 5.02 -1.11 3.78 C-1 1 -1 1 0 0 Z " fill="#15AF53" transform="translate(127,149)"/>
<path d="M0 0 C0.66 0.33 1.32 0.66 2 1 C0.21 3.01 -1.58 5 -3.38 7 C-3.88 7.57 -4.39 8.14 -4.91 8.73 C-6.24 10.19 -7.61 11.6 -9 13 C-9.66 13 -10.32 13 -11 13 C-11.11 13.57 -11.23 14.14 -11.35 14.73 C-12.06 17.21 -13.07 19.06 -14.44 21.25 C-14.87 21.96 -15.3 22.66 -15.75 23.39 C-16.37 24.19 -16.37 24.19 -17 25 C-17.66 25 -18.32 25 -19 25 C-16.6 14.61 -7.37 7.1 0 0 Z " fill="#0FD842" transform="translate(164,56)"/>
<path d="M0 0 C-0.28 2.11 -0.58 4.21 -0.88 6.31 C-1.04 7.48 -1.2 8.66 -1.37 9.86 C-2 13 -2 13 -4 16 C-3.86 14.23 -3.71 12.46 -3.56 10.69 C-3.48 9.7 -3.4 8.72 -3.32 7.7 C-3 5 -3 5 -2 2 C-9.92 2.49 -9.92 2.49 -18 3 C-12.57 -0.62 -6.32 -0.11 0 0 Z " fill="#21BB74" transform="translate(200,45)"/>
<path d="M0 0 C0.33 0 0.66 0 1 0 C3.3 11.52 3.3 11.52 3 17 C2.34 16.67 1.68 16.34 1 16 C-0.11 10.67 -0.11 5.43 0 0 Z " fill="#10AC48" transform="translate(128,179)"/>
<path d="M0 0 C0.33 0 0.66 0 1 0 C1.23 3.33 1.32 5.42 -0.31 8.38 C-2 10 -2 10 -5 10 C-5.33 8.02 -5.66 6.04 -6 4 C-5.01 5.32 -4.02 6.64 -3 8 C-2.01 5.36 -1.02 2.72 0 0 Z " fill="#1CAB65" transform="translate(123,135)"/>
<path d="M0 0 C0.99 0.33 1.98 0.66 3 1 C1.35 2.65 -0.3 4.3 -2 6 C-2.66 5.67 -3.32 5.34 -4 5 C-2.68 3.35 -1.36 1.7 0 0 Z " fill="#3C7BBD" transform="translate(99,127)"/>
</svg>
