<?xml version="1.0" encoding="UTF-8"?>
<!-- Generator: https://ezgif.com/png-to-svg -->
<svg version="1.1" xmlns="http://www.w3.org/2000/svg" width="64" height="64">
<path d="M0 0 C6.47 5.29 10.89 12.02 12.49 20.3 C13.45 30.93 11.7 39.81 4.86 48.18 C-1.65 54.99 -9.74 58.38 -19.07 58.62 C-28.91 58.49 -36.45 55.4 -43.57 48.59 C-49.92 41.12 -51.91 33.11 -51.78 23.53 C-50.98 14 -46.77 6.47 -39.51 0.3 C-27.04 -7.52 -12.53 -8.46 0 0 Z " fill="#FBECA7" transform="translate(51.51171875,5.6953125)"/>
<path d="M0 0 C0.66 0.33 1.32 0.66 2 1 C1.25 6.75 1.25 6.75 -1 9 C-0.9 13.34 -0.9 13.34 1 17 C1.24 24.29 1.24 24.29 0 28 C0.96 30.35 1.97 32.68 3 35 C3 35.99 3 36.98 3 38 C3.66 38 4.32 38 5 38 C5 37.01 5 36.02 5 35 C6.98 34.34 8.96 33.68 11 33 C11.66 28.71 12.32 24.42 13 20 C13.66 20 14.32 20 15 20 C14.77 29.86 12.05 37.43 4.88 44.38 C-2.64 50.51 -10.56 52.65 -20.18 52.34 C-24.19 51.86 -27.35 50.69 -31 49 C-31 48.34 -31 47.68 -31 47 C-32.36 45.96 -33.77 44.96 -35.19 44 C-41.17 39.44 -44.27 34.35 -45.52 26.91 C-45.77 24.27 -45.94 21.66 -46 19 C-42.62 19.54 -39.3 20.11 -36 21 C-33.57 16.03 -32.65 12.65 -33 7 C-32.01 6.67 -31.02 6.34 -30 6 C-29.67 5.34 -29.34 4.68 -29 4 C-26.03 4.5 -26.03 4.5 -23 5 C-23 6.65 -23 8.3 -23 10 C-23.99 10.5 -23.99 10.5 -25 11 C-25.73 12.98 -26.4 14.98 -27 17 C-25.68 17 -24.36 17 -23 17 C-23 16.34 -23 15.68 -23 15 C-22.34 15 -21.68 15 -21 15 C-20.67 13.68 -20.34 12.36 -20 11 C-19.67 11 -19.34 11 -19 11 C-18.67 13.31 -18.34 15.62 -18 18 C-21 20 -21 20 -24 20 C-23.74 22.34 -23.41 24.68 -23 27 C-20.23 28.39 -18.07 28.19 -15 28 C-11.88 26.37 -11.88 26.37 -11.31 23.88 C-11.16 22.95 -11.16 22.95 -11 22 C-9.35 22 -7.7 22 -6 22 C-6.11 20.04 -6.11 20.04 -7 18 C-9.49 16.7 -9.49 16.7 -12 16 C-11.31 14.06 -11.31 14.06 -10 12 C-7.38 11.25 -7.38 11.25 -5 11 C-5 10.01 -5 9.02 -5 8 C-4.01 7.67 -3.02 7.34 -2 7 C-0.77 3.49 -0.77 3.49 0 0 Z " fill="#C3984A" transform="translate(49,12)"/>
<path d="M0 0 C0.66 0.33 1.32 0.66 2 1 C2 1.99 2 2.98 2 4 C0.68 4 -0.64 4 -2 4 C-2 4.66 -2 5.32 -2 6 C-1.01 6.33 -0.02 6.66 1 7 C-1.31 7.66 -3.62 8.32 -6 9 C-6 9.99 -6 10.98 -6 12 C-2.37 12 1.26 12 5 12 C5 11.34 5 10.68 5 10 C6.23 9.93 6.23 9.93 7.48 9.85 C8.56 9.78 9.64 9.7 10.75 9.62 C12.35 9.52 12.35 9.52 13.98 9.41 C16.8 9.03 18.58 8.44 21 7 C20.67 8.32 20.34 9.64 20 11 C19.01 11 18.02 11 17 11 C16.67 11.66 16.34 12.32 16 13 C13.36 13 10.72 13 8 13 C7.4 15.76 7 18.16 7 21 C6.67 21.99 6.34 22.98 6 24 C5.34 24 4.68 24 4 24 C4 24.66 4 25.32 4 26 C2.68 26 1.36 26 0 26 C0.33 24.02 0.66 22.04 1 20 C1.99 19.67 2.98 19.34 4 19 C4 17.35 4 15.7 4 14 C1.03 13.5 1.03 13.5 -2 13 C-2.66 14.32 -3.32 15.64 -4 17 C-4.33 17 -4.66 17 -5 17 C-4.88 18.24 -4.88 18.24 -4.75 19.5 C-5.07 24.01 -6.79 27.12 -9 31 C-12.41 30.21 -15.69 29.13 -19 28 C-16.09 43.13 -16.09 43.13 -5.8 53.77 C-4 55 -4 55 -2 57 C-3.48 57.49 -3.48 57.49 -5 58 C-12.36 54.25 -17.92 47.36 -20.88 39.75 C-23.6 30.26 -22.67 20.69 -18 12 C-14.71 7.48 -11.34 3.08 -6 1 C-5.01 1 -4.02 1 -3 1 C-2.01 0.67 -1.02 0.34 0 0 Z " fill="#EBC76D" transform="translate(22,3)"/>
<path d="M0 0 C2.97 0.5 2.97 0.5 6 1 C6 2.65 6 4.3 6 6 C5.01 6.5 5.01 6.5 4 7 C3.27 8.98 2.6 10.98 2 13 C3.32 13 4.64 13 6 13 C6 12.34 6 11.68 6 11 C6.66 11 7.32 11 8 11 C8.33 9.68 8.66 8.36 9 7 C9.33 7 9.66 7 10 7 C10.33 9.31 10.66 11.62 11 14 C6.05 16.48 6.05 16.48 1 19 C0.67 18.01 0.34 17.02 0 16 C-0.14 16.62 -0.29 17.24 -0.44 17.88 C-1 20 -1 20 -2 22 C-1.44 22.1 -0.89 22.21 -0.31 22.31 C2.44 23.13 4.59 24.46 7 26 C6.01 26.66 5.02 27.32 4 28 C6.97 28.66 9.94 29.32 13 30 C10.99 31 8.98 32.01 6.94 32.94 C4.93 33.92 4.93 33.92 3.44 35.62 C2 37 2 37 -1 37 C-1 38.98 -1 40.96 -1 43 C-7.82 39.52 -12.51 35.43 -15.44 28.08 C-16.59 23.81 -16.77 19.4 -17 15 C-13.62 15.54 -10.3 16.11 -7 17 C-4.57 12.03 -3.65 8.65 -4 3 C-3.01 2.67 -2.02 2.34 -1 2 C-0.67 1.34 -0.34 0.68 0 0 Z " fill="#AE7427" transform="translate(20,16)"/>
<path d="M0 0 C8.51 1.93 14.68 6.15 19.64 13.39 C22.79 19.14 23.85 24.49 24 31 C23.34 31 22.68 31 22 31 C22.06 31.99 22.12 32.98 22.19 34 C22.21 38.47 20.72 41.91 19 46 C17.35 46 15.7 46 14 46 C14 46.99 14 47.98 14 49 C13.34 49 12.68 49 12 49 C11.3 47.21 10.62 45.42 9.94 43.62 C9.55 42.63 9.17 41.63 8.78 40.6 C8 38 8 38 9 36 C9.16 34.08 9.16 34.08 9.12 32 C9.13 31.3 9.13 30.6 9.13 29.88 C9.11 27.91 9.11 27.91 8 26 C8.49 26.29 8.99 26.58 9.5 26.88 C12.92 28.41 16.35 29.15 20 30 C19.34 19.54 19.34 19.54 13.25 11.44 C9.12 8 5.15 4.72 0 3 C0 2.01 0 1.02 0 0 Z " fill="#FCE5A3" transform="translate(40,1)"/>
<path d="M0 0 C0.17 4.39 0.05 7.16 -2 11 C-2.17 13.67 -2.17 13.67 -2 16 C-3.32 15.67 -4.64 15.34 -6 15 C-6 15.66 -6 16.32 -6 17 C-10.62 17 -15.24 17 -20 17 C-20 16.34 -20 15.68 -20 15 C-21.32 15.33 -22.64 15.66 -24 16 C-24 14.02 -24 12.04 -24 10 C-23.01 9.67 -22.02 9.34 -21 9 C-20.59 8.21 -20.17 7.43 -19.75 6.62 C-17.37 3.06 -15.07 2.48 -11.06 1.12 C-9.84 0.69 -8.61 0.26 -7.35 -0.18 C-4.26 -0.94 -2.89 -1.17 0 0 Z " fill="#FEEA93" transform="translate(45,45)"/>
<path d="M0 0 C0.66 0.33 1.32 0.66 2 1 C1.25 6.75 1.25 6.75 -1 9 C-0.9 13.34 -0.9 13.34 1 17 C1.24 24.29 1.24 24.29 0 28 C0.76 29.68 1.51 31.35 2.3 33.02 C3.49 36.37 3.19 39.47 3 43 C2.01 43 1.02 43 0 43 C0 43.66 0 44.32 0 45 C-1.98 45.49 -1.98 45.49 -4 46 C-3.67 41.38 -3.34 36.76 -3 32 C-4.65 32 -6.3 32 -8 32 C-7.34 31.67 -6.68 31.34 -6 31 C-6 30.34 -6 29.68 -6 29 C-6.99 29 -7.98 29 -9 29 C-9.33 27.02 -9.66 25.04 -10 23 C-8.68 23 -7.36 23 -6 23 C-6.11 20.55 -6.11 20.55 -7 18 C-9.48 16.63 -9.48 16.63 -12 16 C-11.31 14.06 -11.31 14.06 -10 12 C-7.38 11.25 -7.38 11.25 -5 11 C-5 10.01 -5 9.02 -5 8 C-4.01 7.67 -3.02 7.34 -2 7 C-0.77 3.49 -0.77 3.49 0 0 Z " fill="#B76B20" transform="translate(49,12)"/>
<path d="M0 0 C2.97 0.5 2.97 0.5 6 1 C6 2.65 6 4.3 6 6 C5.67 5.01 5.34 4.02 5 3 C2.49 3.99 1.23 4.64 -0.23 6.95 C-3.9 15.72 -3.9 15.72 -3 25 C-2.34 25.33 -1.68 25.66 -1 26 C-1.95 26.58 -1.95 26.58 -2.92 27.18 C-5.51 29.45 -5.73 30.83 -6.25 34.19 C-6.4 35.09 -6.55 35.99 -6.7 36.92 C-6.85 37.95 -6.85 37.95 -7 39 C-12.17 35.7 -14.28 31.73 -16 26 C-16.57 22.34 -16.86 18.7 -17 15 C-13.62 15.54 -10.3 16.11 -7 17 C-4.57 12.03 -3.65 8.65 -4 3 C-3.01 2.67 -2.02 2.34 -1 2 C-0.67 1.34 -0.34 0.68 0 0 Z " fill="#C98B33" transform="translate(20,16)"/>
<path d="M0 0 C3.9 1.59 6.39 3.7 9 7 C10.58 11.77 11.55 16.13 10 21 C8.56 20.74 7.12 20.47 5.69 20.19 C4.89 20.04 4.09 19.89 3.26 19.73 C0.71 18.91 -0.36 18.09 -2 16 C-2.88 13.12 -2.88 13.12 -3 10 C-2.05 8.3 -1.05 6.64 0 5 C0.25 2.29 0.25 2.29 0 0 Z " fill="#FDFACA" transform="translate(50,11)"/>
<path d="M0 0 C1.94 0.31 1.94 0.31 4 1 C4.33 1.99 4.66 2.98 5 4 C7.97 4.49 7.97 4.49 11 5 C9.68 5.33 8.36 5.66 7 6 C6.85 7.18 6.85 7.18 6.69 8.38 C6 11 6 11 3 13 C-0.68 13.47 -2.36 13.44 -5.44 11.31 C-7 9 -7 9 -7.06 6.38 C-6 4 -6 4 -3.5 2.81 C-2.26 2.41 -2.26 2.41 -1 2 C-0.67 1.34 -0.34 0.68 0 0 Z " fill="#EFB651" transform="translate(31,28)"/>
<path d="M0 0 C0.66 0.33 1.32 0.66 2 1 C1.25 6.75 1.25 6.75 -1 9 C-0.9 13.34 -0.9 13.34 1 17 C1.27 22.74 1.27 22.74 1 25 C0.34 25.66 -0.32 26.32 -1 27 C-1.33 25.68 -1.66 24.36 -2 23 C-1.34 23 -0.68 23 0 23 C0 22.34 0 21.68 0 21 C-0.99 21 -1.98 21 -3 21 C-3 21.66 -3 22.32 -3 23 C-3.99 22.67 -4.98 22.34 -6 22 C-6.12 21.36 -6.25 20.72 -6.38 20.06 C-6.58 19.38 -6.79 18.7 -7 18 C-9.49 16.7 -9.49 16.7 -12 16 C-11.31 14.06 -11.31 14.06 -10 12 C-7.38 11.25 -7.38 11.25 -5 11 C-5 10.01 -5 9.02 -5 8 C-4.01 7.67 -3.02 7.34 -2 7 C-0.77 3.49 -0.77 3.49 0 0 Z " fill="#CC8A39" transform="translate(49,12)"/>
<path d="M0 0 C0.66 0.33 1.32 0.66 2 1 C2 3.64 2 6.28 2 9 C4.97 8.66 4.97 8.66 8 8 C8.33 7.34 8.66 6.68 9 6 C9 6.99 9 7.98 9 9 C10.98 8.34 12.96 7.68 15 7 C15.33 8.65 15.66 10.3 16 12 C14.68 11.67 13.36 11.34 12 11 C12 11.66 12 12.32 12 13 C7.38 13 2.76 13 -2 13 C-2 12.34 -2 11.68 -2 11 C-3.32 11.33 -4.64 11.66 -6 12 C-6 10.02 -6 8.04 -6 6 C-5.01 5.67 -4.02 5.34 -3 5 C-1.3 2.5 -1.3 2.5 0 0 Z " fill="#F9D17C" transform="translate(27,49)"/>
<path d="M0 0 C7.59 1.72 12.9 5.11 18 11 C23 18.98 23 18.98 23 23 C21.12 22.38 21.12 22.38 19 21 C18.75 20.11 18.5 19.23 18.25 18.31 C15.76 11.71 8.89 7.56 3 4 C2.01 3.67 1.02 3.34 0 3 C0 2.01 0 1.02 0 0 Z " fill="#DDBF71" transform="translate(40,1)"/>
<path d="M0 0 C0.66 0 1.32 0 2 0 C1.8 8.72 -0.14 15.89 -6.23 22.37 C-12.04 27.68 -12.04 27.68 -16 29 C-16.66 28.34 -17.32 27.68 -18 27 C-16.35 26.34 -14.7 25.68 -13 25 C-13 24.34 -13 23.68 -13 23 C-12.01 23 -11.02 23 -10 23 C-10 21.35 -10 19.7 -10 18 C-9.34 18 -8.68 18 -8 18 C-8 17.01 -8 16.02 -8 15 C-6.02 14.34 -4.04 13.68 -2 13 C-1.34 8.71 -0.68 4.42 0 0 Z " fill="#CBB275" transform="translate(62,32)"/>
<path d="M0 0 C0.66 0.33 1.32 0.66 2 1 C2.99 1.33 3.98 1.66 5 2 C5.12 2.8 5.25 3.61 5.38 4.44 C5.68 5.71 5.68 5.71 6 7 C8.77 8.39 10.93 8.19 14 8 C17.12 6.37 17.12 6.37 17.69 3.88 C17.79 3.26 17.89 2.64 18 2 C19.65 2 21.3 2 23 2 C21.68 2.33 20.36 2.66 19 3 C19.33 4.98 19.66 6.96 20 9 C20.99 9 21.98 9 23 9 C23 9.66 23 10.32 23 11 C17.06 12.98 9.89 12.2 4.14 9.82 C2.02 8.63 -0.01 7.39 -2 6 C-1.33 4 -0.67 2 0 0 Z " fill="#D98B28" transform="translate(20,32)"/>
<path d="M0 0 C5.94 0 11.88 0 18 0 C18.33 0.66 18.66 1.32 19 2 C18.02 2.3 17.05 2.61 16.04 2.92 C14.76 3.34 13.47 3.76 12.19 4.19 C11.22 4.48 11.22 4.48 10.24 4.78 C5.71 6.31 4.21 7.86 2 12 C1.01 12 0.02 12 -1 12 C-1 13.32 -1 14.64 -1 16 C-1.66 16 -2.32 16 -3 16 C-3 14.02 -3 12.04 -3 10 C-2.22 9.92 -1.43 9.84 -0.62 9.75 C2.14 9.29 2.14 9.29 3.12 7 C3.56 6.01 3.56 6.01 4 5 C4.99 4.67 5.98 4.34 7 4 C4.69 3.01 2.38 2.02 0 1 C0 0.67 0 0.34 0 0 Z " fill="#E9B24C" transform="translate(22,43)"/>
<path d="M0 0 C0.66 0 1.32 0 2 0 C2.33 3.3 2.66 6.6 3 10 C3.66 10 4.32 10 5 10 C5.27 10.65 5.54 11.3 5.81 11.98 C8.8 18.65 11.95 22.05 18 26 C18.66 26.66 19.32 27.32 20 28 C19.01 28.33 18.02 28.66 17 29 C9.48 25.17 3.95 18.2 1.12 10.38 C0.08 6.85 -0.28 3.7 0 0 Z " fill="#C7B076" transform="translate(0,32)"/>
<path d="M0 0 C2.94 0.38 2.94 0.38 6 1 C7 3 7 3 6.44 4.95 C6.15 5.66 5.86 6.38 5.56 7.12 C5.28 7.85 4.99 8.57 4.69 9.32 C4.46 9.87 4.24 10.43 4 11 C3.01 11 2.02 11 1 11 C1 11.99 1 12.98 1 14 C0.34 14 -0.32 14 -1 14 C-1 3.5 -1 3.5 0 0 Z " fill="#F9D16D" transform="translate(43,9)"/>
<path d="M0 0 C2.16 0.24 2.16 0.24 4.62 0.88 C5.44 1.08 6.26 1.28 7.1 1.49 C8.04 1.74 8.04 1.74 9 2 C9 2.66 9 3.32 9 4 C8.38 4.27 7.76 4.54 7.12 4.81 C4.7 5.96 4.7 5.96 3 9 C0.37 9.19 0.37 9.19 -2 9 C-2.12 5.62 -2.12 5.62 -2 2 C-1.34 1.34 -0.68 0.68 0 0 Z " fill="#8E5C17" transform="translate(18,43)"/>
<path d="M0 0 C0.99 0.33 1.98 0.66 3 1 C3 1.99 3 2.98 3 4 C3.99 4.33 4.98 4.66 6 5 C5.67 6.32 5.34 7.64 5 9 C2.36 9 -0.28 9 -3 9 C-3.75 6.75 -3.75 6.75 -4 4 C-2.06 1.69 -2.06 1.69 0 0 Z " fill="#FAD383" transform="translate(30,30)"/>
<path d="M0 0 C3.68 0.6 7.35 1.25 11 2 C11 3.32 11 4.64 11 6 C7.7 5.34 4.4 4.68 1 4 C0.67 4.66 0.34 5.32 0 6 C0 4.02 0 2.04 0 0 Z " fill="#D6A641" transform="translate(3,31)"/>
<path d="M0 0 C0.33 0.66 0.66 1.32 1 2 C1.66 2 2.32 2 3 2 C3 7.94 3 13.88 3 20 C0.57 16.36 0.84 14.29 1 10 C0.34 10 -0.32 10 -1 10 C-0.67 6.7 -0.34 3.4 0 0 Z " fill="#F1E197" transform="translate(1,22)"/>
<path d="M0 0 C1.98 0 3.96 0 6 0 C5.75 2.38 5.75 2.38 5 5 C2.94 6.31 2.94 6.31 1 7 C0.34 6.34 -0.32 5.68 -1 5 C-0.62 2.38 -0.62 2.38 0 0 Z " fill="#FDFEC2" transform="translate(36,47)"/>
<path d="M0 0 C9.59 2.71 9.59 2.71 13 7 C8.46 7.31 6.44 6.96 3 4 C2.01 3.67 1.02 3.34 0 3 C0 2.01 0 1.02 0 0 Z " fill="#E2CF90" transform="translate(40,1)"/>
<path d="M0 0 C0.99 0 1.98 0 3 0 C2.25 6.62 2.25 6.62 0 10 C-0.66 10 -1.32 10 -2 10 C-2.33 7.03 -2.66 4.06 -3 1 C-2.01 1.33 -1.02 1.66 0 2 C0 1.34 0 0.68 0 0 Z " fill="#A34B11" transform="translate(46,33)"/>
<path d="M0 0 C2.94 0.38 2.94 0.38 6 1 C7 3 7 3 6.06 6.12 C5.71 7.07 5.36 8.02 5 9 C0.12 4.25 0.12 4.25 -1 2 C-0.67 1.34 -0.34 0.68 0 0 Z " fill="#FBDC92" transform="translate(43,9)"/>
<path d="M0 0 C3 1 3 1 4 3 C4.04 5 4.04 7 4 9 C3.34 9 2.68 9 2 9 C2 10.65 2 12.3 2 14 C1.67 14 1.34 14 1 14 C0.67 9.38 0.34 4.76 0 0 Z " fill="#F3E397" transform="translate(60,23)"/>
<path d="M0 0 C1.45 0.03 1.45 0.03 2.94 0.06 C3.27 1.38 3.6 2.7 3.94 4.06 C1.96 4.39 -0.02 4.72 -2.06 5.06 C-2.72 3.74 -3.38 2.42 -4.06 1.06 C-3.06 0.06 -3.06 0.06 0 0 Z " fill="#FDFECA" transform="translate(36.0625,16.9375)"/>
<path d="M0 0 C0.33 0 0.66 0 1 0 C1.33 2.31 1.66 4.62 2 7 C0.02 7.99 0.02 7.99 -2 9 C-2 8.34 -2 7.68 -2 7 C-3.32 6.67 -4.64 6.34 -6 6 C-5.01 6 -4.02 6 -3 6 C-3 5.34 -3 4.68 -3 4 C-2.34 4 -1.68 4 -1 4 C-0.67 2.68 -0.34 1.36 0 0 Z " fill="#C5962C" transform="translate(29,23)"/>
<path d="M0 0 C3.12 0.38 3.12 0.38 6 1 C5.01 1.33 4.02 1.66 3 2 C2.67 3.65 2.34 5.3 2 7 C1.01 6.67 0.02 6.34 -1 6 C-1.81 4.06 -1.81 4.06 -2 2 C-1.34 1.34 -0.68 0.68 0 0 Z " fill="#F4D975" transform="translate(36,22)"/>
<path d="M0 0 C0.66 0 1.32 0 2 0 C2 4.95 2 9.9 2 15 C0.68 15.33 -0.64 15.66 -2 16 C-1.48 13.24 -0.89 10.67 0 8 C0.07 6.61 0.09 5.21 0.06 3.81 C0.04 2.55 0.02 1.3 0 0 Z " fill="#E1A33B" transform="translate(44,44)"/>
<path d="M0 0 C1.98 0 3.96 0 6 0 C5.34 0.66 4.68 1.32 4 2 C3.67 2.99 3.34 3.98 3 5 C0.69 4.34 -1.62 3.68 -4 3 C-2.68 2.67 -1.36 2.34 0 2 C0 1.34 0 0.68 0 0 Z " fill="#FCE386" transform="translate(39,29)"/>
<path d="M0 0 C0 1.65 0 3.3 0 5 C-2.97 5 -5.94 5 -9 5 C-8.01 3.68 -7.02 2.36 -6 1 C-5.34 1.33 -4.68 1.66 -4 2 C-1 0 -1 0 0 0 Z " fill="#BC8425" transform="translate(46,23)"/>
<path d="M0 0 C1.32 0.33 2.64 0.66 4 1 C3.53 1.6 3.05 2.2 2.56 2.81 C0.84 5 0.84 5 0 8 C-0.66 8 -1.32 8 -2 8 C-2.2 4.28 -2.15 3.23 0 0 Z " fill="#DCBA63" transform="translate(6,12)"/>
<path d="M0 0 C0.99 0 1.98 0 3 0 C2.34 3.3 1.68 6.6 1 10 C0.34 9.67 -0.32 9.34 -1 9 C-0.67 6.03 -0.34 3.06 0 0 Z " fill="#E8CE8A" transform="translate(25,2)"/>
<path d="M0 0 C0.99 0.66 1.98 1.32 3 2 C3.19 4.62 3.19 4.62 3 7 C1.35 5.35 -0.3 3.7 -2 2 C-1.34 1.34 -0.68 0.68 0 0 Z " fill="#D6AD52" transform="translate(9,47)"/>
<path d="M0 0 C2.97 0.5 2.97 0.5 6 1 C6 2.65 6 4.3 6 6 C5.67 5.01 5.34 4.02 5 3 C3.35 3.33 1.7 3.66 0 4 C0 2.68 0 1.36 0 0 Z " fill="#D6A32C" transform="translate(20,16)"/>
</svg>
