<?xml version="1.0" encoding="UTF-8"?>
<!-- Generator: https://ezgif.com/png-to-svg -->
<svg version="1.1" xmlns="http://www.w3.org/2000/svg" width="64" height="64">
<path d="M0 0 C8.81 5.19 14.49 12.49 17.25 22.32 C18.36 33.23 16.98 42.05 10 50.64 C4.23 56.74 -2.6 60.8 -11.05 61.66 C-22.03 61.78 -29.9 59.89 -38 52.25 C-45.15 44.4 -47.25 36.36 -47.06 25.86 C-46.29 16.98 -42.29 10.28 -35.75 4.32 C-25.36 -3.58 -12.05 -5.64 0 0 Z " fill="#CF1112" transform="translate(46.75390625,2.67578125)"/>
<path d="M0 0 C2.44 0.75 2.44 0.75 4.44 2.75 C4.69 5.25 4.69 5.25 4.44 7.75 C2.44 9.75 2.44 9.75 -1.12 10.69 C-2.26 11.04 -3.39 11.39 -4.56 11.75 C-6.18 16.62 -6.46 21.88 -4.91 26.82 C-3 30.6 -0.42 33.2 3.38 35.09 C8.71 36.8 14.27 36.69 19.31 34.19 C23.68 30.78 25.97 27.74 26.82 22.32 C27.1 16.29 26.16 12.52 22.44 7.75 C18.83 4.94 15 3.3 10.44 2.75 C10.44 1.76 10.44 0.77 10.44 -0.25 C17.83 0.47 22.1 2.88 27.14 8.15 C30.38 12.15 30.85 16.72 30.68 21.74 C29.84 28.74 25.76 33.52 20.44 37.75 C14.64 40.59 8.93 40.49 2.88 38.69 C-2.36 35.74 -6.34 32.25 -9 26.81 C-10.34 19.52 -9.6 15.44 -6.56 8.75 C-6.4 7.49 -6.23 6.23 -6.06 4.94 C-5.9 3.89 -5.73 2.83 -5.56 1.75 C-2.56 -0.25 -2.56 -0.25 0 0 Z " fill="#FDF6F6" transform="translate(21.5625,12.25)"/>
<path d="M0 0 C3.72 1.35 5.02 2.61 6.94 6.06 C7.02 10.03 6.41 11.54 3.75 14.5 C0.94 16.06 0.94 16.06 -2.12 16.12 C-5.85 14.78 -7.14 13.51 -9.06 10.06 C-9.14 6.09 -8.53 4.58 -5.88 1.62 C-3.06 0.06 -3.06 0.06 0 0 Z " fill="#FDF8F8" transform="translate(33.0625,23.9375)"/>
<path d="M0 0 C1.32 0 2.64 0 4 0 C3.67 1.65 3.34 3.3 3 5 C2.01 5 1.02 5 0 5 C-0.56 3.06 -0.56 3.06 -1 1 C-0.67 0.67 -0.34 0.34 0 0 Z " fill="#D21E1F" transform="translate(19,15)"/>
</svg>
