<?xml version="1.0" encoding="UTF-8"?>
<!-- Generator: https://ezgif.com/png-to-svg -->
<svg version="1.1" xmlns="http://www.w3.org/2000/svg" width="64" height="64">
<path d="M0 0 C21.12 0 42.24 0 64 0 C64 21.12 64 42.24 64 64 C42.88 64 21.76 64 0 64 C0 42.88 0 21.76 0 0 Z " fill="#000000" transform="translate(0,0)"/>
<path d="M0 0 C2.16 1.65 4.13 3.43 6.11 5.3 C8.04 7.15 8.04 7.15 10.81 8.62 C13.58 10.37 14.36 12.16 16 15 C17.19 16.33 18.4 17.64 19.62 18.94 C21.82 21.42 23 22.99 24.19 26.12 C23.74 32.95 17.69 37.54 13 42 C12.67 41.34 12.34 40.68 12 40 C12.49 39.01 12.49 39.01 13 38 C13.07 36.46 13.08 34.92 13.06 33.38 C13.05 32.56 13.04 31.74 13.04 30.9 C13.02 30.27 13.01 29.65 13 29 C6.37 34.83 6.37 34.83 0.06 41 C-2 43 -2 43 -5 44 C-3.08 44.03 -1.17 44.05 0.75 44.06 C1.82 44.07 2.88 44.09 3.98 44.1 C6.53 44.02 8.58 43.75 11 43 C2.78 53.05 2.78 53.05 -2.94 55 C-7.7 55 -10.28 52.68 -13.61 49.43 C-14.13 48.9 -14.65 48.36 -15.19 47.81 C-17.74 44.84 -17.74 44.84 -21 44 C-22.01 42.34 -23.01 40.67 -24 39 C-25.19 37.67 -26.4 36.36 -27.62 35.06 C-29.82 32.58 -31 31.01 -32.19 27.88 C-31.84 22.55 -28.46 19.38 -24.81 15.81 C-21.84 13.26 -21.84 13.26 -21 10 C-19.34 8.99 -17.67 7.99 -16 7 C-13.88 5.22 -11.82 3.38 -9.77 1.52 C-6.3 -1.46 -4.37 -1.29 0 0 Z " fill="#020202" transform="translate(36,5)"/>
<path d="M0 0 C3.75 1.9 6.44 4.55 9.38 7.52 C9.99 8.1 10.59 8.67 11.22 9.26 C15.42 13.45 15.42 13.45 15.78 16.77 C13.88 20.51 11.23 23.21 8.26 26.15 C7.68 26.75 7.11 27.36 6.52 27.98 C2.33 32.18 2.33 32.18 -0.98 32.55 C-4.73 30.64 -7.43 27.99 -10.37 25.02 C-10.97 24.45 -11.58 23.88 -12.2 23.29 C-16.4 19.1 -16.4 19.1 -16.77 15.78 C-14.86 12.03 -12.21 9.34 -9.24 6.4 C-8.38 5.49 -8.38 5.49 -7.5 4.56 C-3.31 0.36 -3.31 0.36 0 0 Z " fill="#FEFEFE" transform="translate(32.4921875,15.7265625)"/>
<path d="M0 0 C4.34 3.12 7.9 6.65 11 11 C10.07 10.76 10.07 10.76 9.12 10.51 C4.74 9.8 0.43 9.86 -4 9.88 C-4.89 9.87 -5.78 9.87 -6.7 9.86 C-10.92 9.87 -14.88 9.92 -19 11 C-8.06 -2.39 -8.06 -2.39 0 0 Z " fill="#FCFCFC" transform="translate(36,5)"/>
<path d="M0 0 C0.83 0.24 0.83 0.24 1.68 0.49 C4.21 1.05 6.48 1.13 9.06 1.13 C10.02 1.13 10.99 1.14 11.98 1.14 C13.47 1.13 13.47 1.13 15 1.12 C16 1.13 17 1.13 18.02 1.14 C18.99 1.14 19.95 1.13 20.94 1.13 C22.25 1.13 22.25 1.13 23.59 1.13 C25.86 1.01 27.82 0.64 30 0 C21.78 10.05 21.78 10.05 16.06 12 C10.34 12 7.01 8.11 3.12 4.31 C0 1.15 0 1.15 0 0 Z " fill="#FDFDFD" transform="translate(17,48)"/>
<path d="M0 0 C10.05 8.22 10.05 8.22 12 13.94 C12 19.69 8.09 23 4.25 26.88 C3.17 27.92 2.09 28.97 1 30 C0.67 29.34 0.34 28.68 0 28 C0.33 27.34 0.66 26.68 1 26 C1.1 24.38 1.13 22.76 1.13 21.13 C1.13 20.16 1.14 19.2 1.14 18.2 C1.13 17.18 1.13 16.17 1.12 15.12 C1.13 14.12 1.13 13.11 1.14 12.07 C1.14 11.1 1.13 10.13 1.13 9.13 C1.13 7.8 1.13 7.8 1.13 6.44 C1.01 4.15 0.64 2.19 0 0 Z " fill="#FEFEFE" transform="translate(48,17)"/>
<path d="M0 0 C0.33 0.66 0.66 1.32 1 2 C0.67 2.66 0.34 3.32 0 4 C-0.1 5.62 -0.13 7.24 -0.13 8.87 C-0.13 9.84 -0.14 10.8 -0.14 11.8 C-0.13 12.82 -0.13 13.83 -0.12 14.88 C-0.13 15.88 -0.13 16.89 -0.14 17.93 C-0.13 19.38 -0.13 19.38 -0.13 20.87 C-0.13 21.76 -0.13 22.64 -0.13 23.56 C-0.01 25.85 0.36 27.81 1 30 C-9.05 21.78 -9.05 21.78 -11 16.06 C-11 10.31 -7.09 7 -3.25 3.12 C-2.17 2.08 -1.09 1.03 0 0 Z " fill="#FDFDFD" transform="translate(15,17)"/>
</svg>
