<?xml version="1.0" encoding="UTF-8"?>
<!-- Generator: https://ezgif.com/png-to-svg -->
<svg version="1.1" xmlns="http://www.w3.org/2000/svg" width="64" height="64">
<path d="M0 0 C4.34 3.15 6.29 8.05 8 13 C8 13.99 8 14.98 8 16 C7.01 16 6.02 16 5 16 C4.35 14.4 3.71 12.79 3.06 11.19 C2.7 10.29 2.34 9.4 1.97 8.48 C1.26 6.67 0.61 4.84 0 3 C-2.97 2.5 -2.97 2.5 -6 2 C-6 2.66 -6 3.32 -6 4 C-6.66 4 -7.32 4 -8 4 C-8.27 4.8 -8.54 5.61 -8.81 6.44 C-9.44 8.32 -10.09 10.21 -10.84 12.05 C-12.89 17.36 -13.12 21.23 -12.13 26.84 C-12 29 -12 29 -14 32 C-17 32.31 -17 32.31 -20 32 C-20.66 31.34 -21.32 30.68 -22 30 C-21.62 26.88 -21.62 26.88 -21 24 C-19.68 23.67 -18.36 23.34 -17 23 C-16.9 22.38 -16.8 21.77 -16.7 21.13 C-15.47 14.15 -13.15 8.31 -10 2 C-9.34 2 -8.68 2 -8 2 C-8 1.34 -8 0.68 -8 0 C-4.62 -1.13 -3.35 -1.06 0 0 Z M-19 26 C-18.67 27.32 -18.34 28.64 -18 30 C-17.01 29.67 -16.02 29.34 -15 29 C-15.33 28.01 -15.66 27.02 -16 26 C-16.99 26 -17.98 26 -19 26 Z " fill="#19130F" transform="translate(22,12)"/>
<path d="M0 0 C3.06 0.44 3.06 0.44 4.88 2.56 C6.11 5.55 6.69 8.24 7.06 11.44 C6.4 11.44 5.74 11.44 5.06 11.44 C3.74 8.8 2.42 6.16 1.06 3.44 C-2.24 4.15 -2.24 4.15 -3.46 7.48 C-5.31 12.2 -6.71 17.05 -8.13 21.92 C-9.73 27.23 -9.73 27.23 -11.94 29.44 C-14.38 29.5 -14.38 29.5 -16.94 28.44 C-19.93 23.31 -20.55 18.3 -20.94 12.44 C-20.28 12.44 -19.62 12.44 -18.94 12.44 C-18.27 14.39 -17.6 16.35 -16.94 18.31 C-16.38 19.95 -16.38 19.95 -15.81 21.62 C-14.94 24.44 -14.94 24.44 -14.94 26.44 C-14.28 26.44 -13.62 26.44 -12.94 26.44 C-12.7 25.38 -12.45 24.31 -12.2 23.22 C-7 1.04 -7 1.04 0 0 Z " fill="#19130F" transform="translate(50.9375,21.5625)"/>
<path d="M0 0 C3.38 0.54 6.68 1.17 10 2 C12 2.35 14 2.68 16 3 C16.62 5.87 16.62 5.87 17 9 C15 11 15 11 12 11.31 C11.01 11.21 10.02 11.11 9 11 C7 8 7 8 7 5 C5.55 4.6 5.55 4.6 4.06 4.19 C3.05 3.8 2.04 3.4 1 3 C0.67 2.01 0.34 1.02 0 0 Z M11 5 C11 6.32 11 7.64 11 9 C11.99 8.67 12.98 8.34 14 8 C14 7.01 14 6.02 14 5 C13.01 5 12.02 5 11 5 Z " fill="#19130F" transform="translate(47,33)"/>
<path d="M0 0 C0.75 0 1.51 0.01 2.29 0.01 C3.06 0.02 3.84 0.03 4.64 0.04 C5.43 0.04 6.23 0.04 7.04 0.05 C8.99 0.06 10.94 0.08 12.89 0.1 C13.22 1.09 13.55 2.08 13.89 3.1 C13.15 3.07 12.41 3.05 11.65 3.03 C1.97 2.86 -6.88 4.23 -16.11 7.1 C-16.11 6.11 -16.11 5.12 -16.11 4.1 C-14.86 3.62 -13.61 3.14 -12.36 2.66 C-11.66 2.39 -10.97 2.13 -10.25 1.85 C-6.77 0.63 -3.7 -0.03 0 0 Z " fill="#19130F" transform="translate(27.109375,29.90234375)"/>
</svg>
