<?xml version="1.0" encoding="UTF-8"?>
<!-- Generator: https://ezgif.com/png-to-svg -->
<svg version="1.1" xmlns="http://www.w3.org/2000/svg" width="64" height="64">
<path d="M0 0 C0.76 -0.01 1.52 -0.02 2.3 -0.04 C8.58 -0 13.43 1.56 19.06 4.38 C19.68 4.64 20.3 4.91 20.94 5.19 C24.62 7.24 26.73 9.37 28.06 13.38 C28.56 13.79 29.05 14.2 29.56 14.62 C33.66 19.41 32.28 29.06 32.31 35 C32.33 36.02 32.35 37.05 32.38 38.1 C32.42 47.51 32.42 47.51 29.06 51.38 C28.07 51.87 28.07 51.87 27.06 52.38 C26.75 52.99 26.44 53.61 26.12 54.25 C25.01 56.48 23.96 57.78 22.06 59.38 C20.06 60.04 18.06 60.71 16.06 61.38 C15.02 61.88 13.97 62.39 12.9 62.91 C8.8 64.68 5.1 64.83 0.69 64.75 C-0.43 64.74 -0.43 64.74 -1.57 64.73 C-8 64.57 -13.14 63.27 -18.94 60.38 C-19.56 60.11 -20.18 59.84 -20.81 59.56 C-24.49 57.51 -26.6 55.38 -27.94 51.38 C-28.68 50.76 -28.68 50.76 -29.44 50.12 C-33.54 45.34 -32.16 35.69 -32.19 29.75 C-32.21 28.73 -32.23 27.7 -32.25 26.65 C-32.3 17.24 -32.3 17.24 -28.94 13.38 C-28.28 13.04 -27.62 12.71 -26.94 12.38 C-26.63 11.76 -26.32 11.14 -26 10.5 C-23.64 5.79 -20.78 4.99 -15.94 3.38 C-14.9 2.87 -13.87 2.36 -12.81 1.84 C-8.54 -0.01 -4.6 -0.07 0 0 Z " fill="#060606" transform="translate(31.9375,-0.375)"/>
<path d="M0 0 C1.46 2.65 2 3.89 2 7 C-1.03 7.68 -1.03 7.68 -4.05 8.37 C-6.21 8.9 -6.21 8.9 -8 11 C-8.33 14 -8.33 14 -8 17 C-5.69 19.31 -4.52 19.5 -1.38 20.12 C-0.56 20.29 0.26 20.46 1.1 20.63 C1.73 20.75 2.35 20.88 3 21 C3.38 22.66 3.71 24.32 4 26 C3 27 3 27 0.06 27.19 C-3 27 -3 27 -5 25 C-6.32 25 -7.64 25 -9 25 C-5.83 28.54 -3.83 30.59 1 31 C-2.45 33.3 -3.71 33.24 -7.76 33.2 C-9.27 33.19 -9.27 33.19 -10.82 33.18 C-12.73 33.15 -12.73 33.15 -14.69 33.12 C-18.75 33.08 -22.81 33.04 -27 33 C-27 23.76 -27 14.52 -27 5 C-18.09 4.67 -9.18 4.34 0 4 C0 2.68 0 1.36 0 0 Z " fill="#020202" transform="translate(47,13)"/>
<path d="M0 0 C10.89 0 21.78 0 33 0 C33 1.32 33 2.64 33 4 C23.43 4 13.86 4 4 4 C4 13.9 4 23.8 4 34 C13.57 34 23.14 34 33 34 C33 35.32 33 36.64 33 38 C22.11 38 11.22 38 0 38 C0 25.46 0 12.92 0 0 Z " fill="#FCFCFC" transform="translate(14,13)"/>
<path d="M0 0 C2.94 1.81 2.94 1.81 5 4 C5 4.99 5 5.98 5 7 C0.12 6.12 0.12 6.12 -1 5 C-2.67 4.96 -4.33 4.96 -6 5 C-6 5.99 -6 6.98 -6 8 C-5.3 8.19 -4.6 8.39 -3.88 8.59 C-2.97 8.85 -2.06 9.11 -1.12 9.38 C-0.22 9.63 0.68 9.89 1.62 10.15 C4 11 4 11 6 13 C6.42 16.78 6.52 19.12 4.56 22.44 C0.76 24.76 -2.66 24.78 -7 24 C-10.5 21.89 -11.71 20.88 -13 17 C-10.63 16.88 -10.63 16.88 -8 17 C-7.34 17.66 -6.68 18.32 -6 19 C-2.92 19.17 -2.92 19.17 0 19 C0 17.68 0 16.36 0 15 C-0.92 14.84 -0.92 14.84 -1.86 14.67 C-2.67 14.51 -3.48 14.35 -4.31 14.19 C-5.51 13.96 -5.51 13.96 -6.74 13.73 C-9.29 12.91 -10.38 12.11 -12 10 C-12.5 7.06 -12.5 7.06 -12 4 C-8.4 -0.14 -5.35 -0.76 0 0 Z " fill="#ECECEC" transform="translate(50,20)"/>
<path d="M0 0 C10.23 0 20.46 0 31 0 C31 0.66 31 1.32 31 2 C21.43 2 11.86 2 2 2 C2 11.9 2 21.8 2 32 C11.57 32 21.14 32 31 32 C31 32.66 31 33.32 31 34 C20.77 34 10.54 34 0 34 C0 22.78 0 11.56 0 0 Z " fill="#E7E7E7" transform="translate(16,15)"/>
<path d="M0 0 C2.31 0.33 4.62 0.66 7 1 C7.38 2.66 7.71 4.32 8 6 C7 7 7 7 4.06 7.19 C1 7 1 7 -1 5 C-3.57 4.35 -3.57 4.35 -6 4 C-6 3.67 -6 3.34 -6 3 C-4.35 3 -2.7 3 -1 3 C-0.67 2.01 -0.34 1.02 0 0 Z " fill="#141414" transform="translate(43,33)"/>
<path d="M0 0 C0.95 0.04 1.9 0.08 2.88 0.12 C3.2 0.79 3.53 1.45 3.88 2.12 C3.09 2.54 2.31 2.95 1.5 3.38 C-1.18 5.16 -2.01 6.17 -3.12 9.12 C-4.37 6.63 -3.9 5.71 -3.12 3.12 C-3.78 2.8 -4.45 2.46 -5.12 2.12 C-3.12 0.12 -3.12 0.12 0 0 Z " fill="#F9F9F9" transform="translate(44.125,20.875)"/>
<path d="M0 0 C2 1 2 1 2 1 Z " fill="#000000" transform="translate(44,63)"/>
<path d="M0 0 C2 1 2 1 2 1 Z " fill="#000000" transform="translate(18,63)"/>
<path d="M0 0 C2 1 2 1 2 1 Z " fill="#000000" transform="translate(46,62)"/>
<path d="M0 0 C2 1 2 1 2 1 Z " fill="#000000" transform="translate(16,62)"/>
<path d="M0 0 C2 1 2 1 2 1 Z " fill="#000000" transform="translate(46,1)"/>
<path d="M0 0 C2 1 2 1 2 1 Z " fill="#000000" transform="translate(16,1)"/>
<path d="M0 0 C2 1 2 1 2 1 Z " fill="#000000" transform="translate(44,0)"/>
<path d="M0 0 C2 1 2 1 2 1 Z " fill="#000000" transform="translate(18,0)"/>
<path d="" fill="#000000" transform="translate(0,0)"/>
<path d="" fill="#000000" transform="translate(0,0)"/>
<path d="" fill="#000000" transform="translate(0,0)"/>
<path d="" fill="#000000" transform="translate(0,0)"/>
<path d="" fill="#000000" transform="translate(0,0)"/>
<path d="" fill="#000000" transform="translate(0,0)"/>
<path d="" fill="#000000" transform="translate(0,0)"/>
<path d="" fill="#000000" transform="translate(0,0)"/>
<path d="" fill="#000000" transform="translate(0,0)"/>
<path d="" fill="#000000" transform="translate(0,0)"/>
<path d="" fill="#000000" transform="translate(0,0)"/>
<path d="" fill="#000000" transform="translate(0,0)"/>
</svg>
