<?xml version="1.0" encoding="UTF-8"?>
<!-- Generator: https://ezgif.com/png-to-svg -->
<svg version="1.1" xmlns="http://www.w3.org/2000/svg" width="64" height="64">
<path d="M0 0 C21.12 0 42.24 0 64 0 C64 21.12 64 42.24 64 64 C42.88 64 21.76 64 0 64 C0 42.88 0 21.76 0 0 Z " fill="#FEFDFB" transform="translate(0,0)"/>
<path d="M0 0 C1.08 0.05 2.17 0.09 3.28 0.14 C5.04 0.22 5.04 0.22 6.83 0.29 C8.68 0.37 8.68 0.37 10.56 0.46 C11.8 0.51 13.03 0.56 14.31 0.62 C17.37 0.75 20.44 0.88 23.5 1.02 C23.5 1.35 23.5 1.68 23.5 2.02 C18.55 2.02 13.6 2.02 8.5 2.02 C9.16 3.34 9.82 4.66 10.5 6.02 C11.16 5.36 11.82 4.7 12.5 4.02 C13.16 4.68 13.82 5.34 14.5 6.02 C15.49 6.02 16.48 6.02 17.5 6.02 C18.16 5.03 18.82 4.04 19.5 3.02 C20.49 4.51 20.49 4.51 21.5 6.02 C22.49 6.02 23.48 6.02 24.5 6.02 C24.83 4.37 25.16 2.72 25.5 1.02 C29.13 1.02 32.76 1.02 36.5 1.02 C37.73 3.49 37.63 5.12 37.63 7.88 C37.63 8.89 37.64 9.91 37.64 10.95 C37.64 12.04 37.63 13.14 37.63 14.27 C37.63 15.39 37.63 16.51 37.64 17.67 C37.64 20.04 37.63 22.42 37.63 24.8 C37.62 28.44 37.63 32.08 37.64 35.73 C37.64 38.03 37.63 40.34 37.63 42.64 C37.63 43.74 37.64 44.83 37.64 45.96 C37.63 47.48 37.63 47.48 37.63 49.03 C37.63 49.92 37.63 50.82 37.63 51.74 C37.5 54.02 37.5 54.02 36.5 57.02 C23.96 57.02 11.42 57.02 -1.5 57.02 C-2.68 53.48 -2.61 50.68 -2.6 46.95 C-2.6 46.26 -2.6 45.58 -2.59 44.88 C-2.59 42.69 -2.58 40.51 -2.56 38.33 C-2.56 36.85 -2.55 35.37 -2.55 33.89 C-2.54 30.27 -2.52 26.65 -2.5 23.02 C0.96 22.53 0.96 22.53 4.5 22.02 C4.5 21.36 4.5 20.7 4.5 20.02 C5.49 20.02 6.48 20.02 7.5 20.02 C7.5 19.36 7.5 18.7 7.5 18.02 C6.51 17.69 5.52 17.36 4.5 17.02 C5.82 16.69 7.14 16.36 8.5 16.02 C8.5 18 8.5 19.98 8.5 22.02 C9.16 22.02 9.82 22.02 10.5 22.02 C10.83 21.03 11.16 20.04 11.5 19.02 C11.5 19.68 11.5 20.34 11.5 21.02 C12.49 21.35 13.48 21.68 14.5 22.02 C13.84 22.35 13.18 22.68 12.5 23.02 C12.5 23.68 12.5 24.34 12.5 25.02 C11.84 25.02 11.18 25.02 10.5 25.02 C10.5 24.36 10.5 23.7 10.5 23.02 C8.19 23.68 5.88 24.34 3.5 25.02 C3.5 27 3.5 28.98 3.5 31.02 C4.16 31.02 4.82 31.02 5.5 31.02 C5.5 30.03 5.5 29.04 5.5 28.02 C6.16 27.69 6.82 27.36 7.5 27.02 C6.84 26.36 6.18 25.7 5.5 25.02 C6.82 25.35 8.14 25.68 9.5 26.02 C9.5 27.34 9.5 28.66 9.5 30.02 C10.16 30.02 10.82 30.02 11.5 30.02 C11.83 29.36 12.16 28.7 12.5 28.02 C13.68 28.33 13.68 28.33 14.87 28.65 C16.17 28.83 16.17 28.83 17.5 29.02 C18.16 28.36 18.82 27.7 19.5 27.02 C19.61 28.21 19.72 29.41 19.83 30.64 C19.99 32.2 20.15 33.77 20.31 35.33 C20.38 36.12 20.45 36.91 20.53 37.72 C20.61 38.47 20.69 39.23 20.77 40.01 C20.84 40.71 20.91 41.4 20.98 42.12 C21.62 44.46 22.68 45.46 24.5 47.02 C23.76 46.82 23.01 46.61 22.25 46.4 C19.07 45.96 18.25 46.56 15.5 48.02 C12.94 48.15 12.94 48.15 10.5 48.02 C7.65 48.02 5.27 48.37 2.5 49.02 C2 49.52 2 49.52 1.5 50.02 C5.64 50.23 5.64 50.23 9.5 49.02 C11.02 48.98 12.54 48.98 14.06 49.02 C15.54 49.06 17.02 49.07 18.5 49.02 C18.83 48.69 19.16 48.36 19.5 48.02 C22.17 47.88 24.82 47.98 27.5 48.02 C27.64 47.13 27.79 46.25 27.94 45.33 C28.41 42.55 28.93 39.79 29.5 37.02 C30.16 37.02 30.82 37.02 31.5 37.02 C31.5 35.04 31.5 33.06 31.5 31.02 C32.16 31.02 32.82 31.02 33.5 31.02 C33.5 30.36 33.5 29.7 33.5 29.02 C32.74 29.25 31.97 29.48 31.19 29.71 C28.5 30.02 28.5 30.02 26.69 28.9 C25.16 26.48 25.27 24.83 25.5 22.02 C26.49 22.35 27.48 22.68 28.5 23.02 C28.5 24.67 28.5 26.32 28.5 28.02 C29.16 27.69 29.82 27.36 30.5 27.02 C30.5 25.7 30.5 24.38 30.5 23.02 C31.16 23.02 31.82 23.02 32.5 23.02 C32.5 22.36 32.5 21.7 32.5 21.02 C27.11 21.25 27.11 21.25 22.5 23.58 C22.17 24.06 21.84 24.53 21.5 25.02 C21.5 24.03 21.5 23.04 21.5 22.02 C20.86 21.73 20.22 21.44 19.56 21.15 C17.5 20.02 17.5 20.02 16.5 18.02 C18.15 18.35 19.8 18.68 21.5 19.02 C22.16 17.37 22.82 15.72 23.5 14.02 C22.84 13.69 22.18 13.36 21.5 13.02 C23.67 13.53 25.5 14.02 27.5 15.02 C28.12 17.58 28.12 17.58 28.5 20.02 C29.16 20.02 29.82 20.02 30.5 20.02 C30.32 17.08 30.32 17.08 29.5 14.02 C27.55 12.59 27.55 12.59 25.5 12.02 C25.5 11.36 25.5 10.7 25.5 10.02 C20.14 9.48 20.14 9.48 15.5 11.52 C15.17 12.02 14.84 12.51 14.5 13.02 C12.85 12.36 11.2 11.7 9.5 11.02 C9.5 12.01 9.5 13 9.5 14.02 C8.84 13.69 8.18 13.36 7.5 13.02 C7.5 12.03 7.5 11.04 7.5 10.02 C5.85 9.69 4.2 9.36 2.5 9.02 C2.39 9.64 2.28 10.25 2.17 10.89 C2.01 11.69 1.85 12.5 1.69 13.33 C1.54 14.13 1.39 14.94 1.23 15.76 C0.42 18.28 -0.59 19.24 -2.5 21.02 C-2.7 17.71 -2.88 14.4 -3.06 11.08 C-3.12 10.14 -3.17 9.19 -3.23 8.22 C-3.28 7.32 -3.33 6.42 -3.38 5.49 C-3.43 4.66 -3.47 3.83 -3.52 2.97 C-3.49 -0.03 -2.99 0.03 0 0 Z " fill="#121210" transform="translate(14.500244140625,2.978271484375)"/>
<path d="M0 0 C14.52 0 29.04 0 44 0 C44 19.8 44 39.6 44 60 C29.48 60 14.96 60 0 60 C0 40.2 0 20.4 0 0 Z M2 1 C0.8 3.4 0.96 4.68 1.12 7.35 C1.17 8.2 1.22 9.05 1.27 9.93 C1.32 10.82 1.38 11.71 1.44 12.62 C1.49 13.52 1.54 14.42 1.6 15.34 C1.73 17.56 1.86 19.78 2 22 C4.67 19.5 5.5 17.94 6.19 14.31 C6.35 13.5 6.5 12.7 6.67 11.86 C6.83 10.94 6.83 10.94 7 10 C8.65 10.33 10.3 10.66 12 11 C12 12.32 12 13.64 12 15 C12.66 15 13.32 15 14 15 C14 14.01 14 13.02 14 12 C15.98 12.66 17.96 13.32 20 14 C20.66 13.01 21.32 12.02 22 11 C23.95 10.71 23.95 10.71 26.12 10.81 C27.4 10.87 28.68 10.94 30 11 C30 11.99 30 12.98 30 14 C31.32 14.33 32.64 14.66 34 15 C34.49 17.97 34.49 17.97 35 21 C34.34 21 33.68 21 33 21 C32.9 20.22 32.79 19.43 32.69 18.62 C32.22 15.67 32.22 15.67 29 14 C28.01 14.33 27.02 14.66 26 15 C26.66 15 27.32 15 28 15 C27.34 16.65 26.68 18.3 26 20 C24.35 19.67 22.7 19.34 21 19 C22.36 21.04 22.36 21.04 24 23 C24.66 23 25.32 23 26 23 C26.33 23.99 26.66 24.98 27 26 C27.66 25.01 28.32 24.02 29 23 C30.95 22.49 30.95 22.49 33.12 22.31 C34.4 22.21 35.68 22.11 37 22 C37 22.66 37 23.32 37 24 C36.34 24 35.68 24 35 24 C35 25.32 35 26.64 35 28 C34.01 28.49 34.01 28.49 33 29 C33 27.35 33 25.7 33 24 C32.01 23.67 31.02 23.34 30 23 C29.67 25.37 29.67 25.37 30 28 C31.65 29.99 31.65 29.99 34 31 C36.21 30.78 36.21 30.78 38 30 C38 30.66 38 31.32 38 32 C37.34 32 36.68 32 36 32 C36 33.98 36 35.96 36 38 C35.34 38 34.68 38 34 38 C32.81 41.88 32 44.92 32 49 C30.17 48.97 30.17 48.97 28.31 48.94 C25.06 48.93 22.18 49.33 19 50 C17 50 15 50 13 50 C11.92 50.28 11.92 50.28 10.81 50.56 C9 51 9 51 6 50 C6.76 50.04 7.53 50.08 8.31 50.12 C11.23 50.22 11.23 50.22 14 48 C15.34 48.31 16.67 48.65 18 49 C19.67 48.71 21.34 48.37 23 48 C24.32 48 25.64 48 27 48 C27.99 47.51 27.99 47.51 29 47 C28.01 46.34 27.02 45.68 26 45 C25.45 42.08 25.07 39.32 24.81 36.38 C24.73 35.57 24.65 34.77 24.56 33.95 C24.36 31.96 24.18 29.98 24 28 C23.34 28.66 22.68 29.32 22 30 C18.87 29.62 18.87 29.62 16 29 C16 29.66 16 30.32 16 31 C15.34 31 14.68 31 14 31 C13.67 29.35 13.34 27.7 13 26 C12.01 26.33 11.02 26.66 10 27 C10.66 27.33 11.32 27.66 12 28 C11.34 28.33 10.68 28.66 10 29 C10 29.99 10 30.98 10 32 C9.34 32 8.68 32 8 32 C8 30.02 8 28.04 8 26 C10.31 25.34 12.62 24.68 15 24 C15 24.66 15 25.32 15 26 C15.66 26 16.32 26 17 26 C17 25.34 17 24.68 17 24 C17.66 23.67 18.32 23.34 19 23 C18.01 22.67 17.02 22.34 16 22 C15.67 21.34 15.34 20.68 15 20 C15 20.99 15 21.98 15 23 C14.34 23 13.68 23 13 23 C13 21.02 13 19.04 13 17 C11.02 17.99 11.02 17.99 9 19 C9.99 19 10.98 19 12 19 C12 19.66 12 20.32 12 21 C11.01 21 10.02 21 9 21 C9 21.66 9 22.32 9 23 C6.69 23.33 4.38 23.66 2 24 C1.98 28.36 1.96 32.72 1.95 37.08 C1.94 38.56 1.93 40.05 1.92 41.53 C1.91 43.66 1.91 45.79 1.9 47.93 C1.9 49.21 1.89 50.49 1.89 51.81 C1.85 55.02 1.85 55.02 3 58 C15.54 58 28.08 58 41 58 C41.99 55.04 42.13 53.1 42.13 50.01 C42.13 48.49 42.13 48.49 42.14 46.94 C42.14 45.84 42.13 44.75 42.13 43.62 C42.13 42.5 42.13 41.38 42.14 40.22 C42.14 37.84 42.13 35.47 42.13 33.09 C42.13 29.45 42.13 25.8 42.14 22.16 C42.14 19.85 42.13 17.55 42.13 15.25 C42.13 14.15 42.14 13.05 42.14 11.93 C42.14 10.91 42.13 9.9 42.13 8.86 C42.13 7.97 42.13 7.08 42.13 6.16 C42.14 3.95 42.14 3.95 41 2 C37.37 2 33.74 2 30 2 C29.67 3.65 29.34 5.3 29 7 C27.68 7 26.36 7 25 7 C24.34 6.01 23.68 5.02 23 4 C22.01 5.49 22.01 5.49 21 7 C20.01 7 19.02 7 18 7 C17.34 6.34 16.68 5.68 16 5 C15.67 5.66 15.34 6.32 15 7 C14.34 5.68 13.68 4.36 13 3 C17.95 3 22.9 3 28 3 C28 2.67 28 2.34 28 2 C15.13 1.5 15.13 1.5 2 1 Z " fill="#C18835" transform="translate(10,2)"/>
<path d="M0 0 C2.64 0 5.28 0 8 0 C8.33 0.99 8.66 1.98 9 3 C11.97 3.5 11.97 3.5 15 4 C14.01 4.33 13.02 4.66 12 5 C12.33 6.98 12.66 8.96 13 11 C12.34 11 11.68 11 11 11 C10.67 9.35 10.34 7.7 10 6 C8.68 5.67 7.36 5.34 6 5 C5.67 6.98 5.34 8.96 5 11 C2.52 10.5 2.52 10.5 0 10 C1.65 11.65 3.3 13.3 5 15 C5.66 14.01 6.32 13.02 7 12 C8.95 11.71 8.95 11.71 11.12 11.81 C12.4 11.87 13.68 11.94 15 12 C15 12.66 15 13.32 15 14 C14.34 14 13.68 14 13 14 C13.33 15.65 13.66 17.3 14 19 C13.01 19 12.02 19 11 19 C11 17.35 11 15.7 11 14 C10.34 14 9.68 14 9 14 C9.34 16.47 9.34 16.47 10 19 C12.22 20.3 12.22 20.3 16 20 C16 20.66 16 21.32 16 22 C15.34 22 14.68 22 14 22 C14 23.98 14 25.96 14 28 C13.34 28 12.68 28 12 28 C11.86 29.07 11.71 30.14 11.56 31.25 C11.16 33.92 10.72 36.41 10 39 C8.78 39.14 7.57 39.29 6.31 39.44 C3.94 39.73 1.65 40.07 -0.69 40.56 C-3.18 41.03 -5.47 41 -8 41 C-9.67 41.33 -11.33 41.66 -13 42 C-14.32 42 -15.64 42 -17 42 C-16.67 41.01 -16.34 40.02 -16 39 C-14.35 39.33 -12.7 39.66 -11 40 C-11 38.02 -11 36.04 -11 34 C-10.01 34 -9.02 34 -8 34 C-7.67 35.32 -7.34 36.64 -7 38 C-4.36 38 -1.72 38 1 38 C1.33 37.01 1.66 36.02 2 35 C2 35.66 2 36.32 2 37 C3.32 37 4.64 37 6 37 C5.01 36.34 4.02 35.68 3 35 C2.52 32.29 2.52 32.29 2.38 29.06 C2.21 25.74 2.05 23.16 1 20 C-0.11 20.25 -0.11 20.25 -1.25 20.5 C-4 21 -4 21 -8 21 C-8.33 20.34 -8.66 19.68 -9 19 C-9.99 19 -10.98 19 -12 19 C-12 19.99 -12 20.98 -12 22 C-12.66 22 -13.32 22 -14 22 C-14.33 19.69 -14.66 17.38 -15 15 C-12.36 14.67 -9.72 14.34 -7 14 C-7 14.66 -7 15.32 -7 16 C-6.34 16 -5.68 16 -5 16 C-4.67 15.01 -4.34 14.02 -4 13 C-4.99 13 -5.98 13 -7 13 C-7.66 13 -8.32 13 -9 13 C-9.33 11.35 -9.66 9.7 -10 8 C-10.99 7.67 -11.98 7.34 -13 7 C-8.25 6 -8.25 6 -6 6 C-4.66 5.69 -3.33 5.35 -2 5 C-2 5.66 -2 6.32 -2 7 C-2.99 7.5 -2.99 7.5 -4 8 C-3.67 8.66 -3.34 9.32 -3 10 C-3 9.34 -3 8.68 -3 8 C-2.34 8 -1.68 8 -1 8 C-0.9 7.36 -0.79 6.72 -0.69 6.06 C-0.46 5.38 -0.23 4.7 0 4 C0.99 3.67 1.98 3.34 3 3 C3 2.34 3 1.68 3 1 C1.68 1.33 0.36 1.66 -1 2 C-0.67 1.34 -0.34 0.68 0 0 Z " fill="#E1CC8B" transform="translate(32,12)"/>
<path d="M0 0 C0.04 0.83 0.07 1.66 0.11 2.52 C0.18 3.61 0.24 4.69 0.31 5.81 C0.37 6.89 0.43 7.97 0.49 9.08 C1.03 12.17 1.55 13.13 4 15 C2.89 14.69 2.89 14.69 1.75 14.38 C-1.43 13.94 -2.25 14.54 -5 16 C-7.56 16.12 -7.56 16.12 -10 16 C-13.94 16 -17.27 16.76 -21 18 C-20.67 16.68 -20.34 15.36 -20 14 C-19.67 14 -19.34 14 -19 14 C-19 12.02 -19 10.04 -19 8 C-17.35 8 -15.7 8 -14 8 C-14 7.01 -14 6.02 -14 5 C-13.34 5 -12.68 5 -12 5 C-12 4.34 -12 3.68 -12 3 C-12.99 2.67 -13.98 2.34 -15 2 C-13.68 2 -12.36 2 -11 2 C-10.88 2.64 -10.75 3.28 -10.62 3.94 C-10.42 4.62 -10.21 5.3 -10 6 C-9.34 6.33 -8.68 6.66 -8 7 C-7.67 6.34 -7.34 5.68 -7 5 C-5.35 5 -3.7 5 -2 5 C-1.67 4.01 -1.34 3.02 -1 2 C-4.12 2.65 -4.12 2.65 -5 5 C-5.33 3.68 -5.66 2.36 -6 1 C-1.12 0 -1.12 0 0 0 Z " fill="#090807" transform="translate(35,35)"/>
<path d="M0 0 C0.66 0 1.32 0 2 0 C2 18.48 2 36.96 2 56 C-28.18 56 -28.18 56 -39 55 C-39 54.67 -39 54.34 -39 54 C-26.46 54 -13.92 54 -1 54 C-0.67 36.18 -0.34 18.36 0 0 Z " fill="#C8913C" transform="translate(52,6)"/>
<path d="M0 0 C0 1.98 0 3.96 0 6 C0.66 6 1.32 6 2 6 C2.33 5.01 2.66 4.02 3 3 C3 3.66 3 4.32 3 5 C3.99 5.33 4.98 5.66 6 6 C5.01 6.5 5.01 6.5 4 7 C4 7.66 4 8.32 4 9 C3.34 9 2.68 9 2 9 C2 8.34 2 7.68 2 7 C-0.31 7.66 -2.62 8.32 -5 9 C-5 10.98 -5 12.96 -5 15 C-4.34 15 -3.68 15 -3 15 C-3 14.01 -3 13.02 -3 12 C-2.34 11.67 -1.68 11.34 -1 11 C-1.66 10.34 -2.32 9.68 -3 9 C-1.68 9.33 -0.36 9.66 1 10 C1 11.32 1 12.64 1 14 C1.66 14 2.32 14 3 14 C3.33 13.34 3.66 12.68 4 12 C4.78 12.21 5.57 12.41 6.38 12.62 C7.24 12.75 8.11 12.87 9 13 C9.66 12.34 10.32 11.68 11 11 C11 12.65 11 14.3 11 16 C10.24 15.94 9.47 15.88 8.69 15.81 C5.95 15.74 5.95 15.74 4.19 17.5 C3.8 18 3.4 18.49 3 19 C3 18.01 3 17.02 3 16 C-0.96 16.49 -0.96 16.49 -5 17 C-4.67 18.32 -4.34 19.64 -4 21 C-5.98 21 -7.96 21 -10 21 C-11.38 18.24 -11.1 15.95 -11.06 12.88 C-11.05 11.78 -11.04 10.68 -11.04 9.55 C-11.02 8.71 -11.01 7.87 -11 7 C-7.54 6.5 -7.54 6.5 -4 6 C-4 5.34 -4 4.68 -4 4 C-3.01 4 -2.02 4 -1 4 C-1 3.34 -1 2.68 -1 2 C-1.99 1.67 -2.98 1.34 -4 1 C-1 0 -1 0 0 0 Z " fill="#0A0907" transform="translate(23,19)"/>
<path d="M0 0 C2.64 0 5.28 0 8 0 C8.33 0.99 8.66 1.98 9 3 C11.97 3.5 11.97 3.5 15 4 C14.01 4.33 13.02 4.66 12 5 C12.33 6.98 12.66 8.96 13 11 C12.34 11 11.68 11 11 11 C10.67 9.35 10.34 7.7 10 6 C8.68 5.67 7.36 5.34 6 5 C5.67 6.98 5.34 8.96 5 11 C2.52 10.5 2.52 10.5 0 10 C0.33 11.32 0.66 12.64 1 14 C0.24 13.84 -0.53 13.67 -1.31 13.5 C-4.04 12.91 -4.04 12.91 -7 13 C-7.66 13 -8.32 13 -9 13 C-9.33 11.35 -9.66 9.7 -10 8 C-10.99 7.67 -11.98 7.34 -13 7 C-8.25 6 -8.25 6 -6 6 C-4.66 5.69 -3.33 5.35 -2 5 C-2 5.66 -2 6.32 -2 7 C-2.99 7.5 -2.99 7.5 -4 8 C-3.67 8.66 -3.34 9.32 -3 10 C-3 9.34 -3 8.68 -3 8 C-2.34 8 -1.68 8 -1 8 C-0.9 7.36 -0.79 6.72 -0.69 6.06 C-0.46 5.38 -0.23 4.7 0 4 C0.99 3.67 1.98 3.34 3 3 C3 2.34 3 1.68 3 1 C1.68 1.33 0.36 1.66 -1 2 C-0.67 1.34 -0.34 0.68 0 0 Z " fill="#D3D2CD" transform="translate(32,12)"/>
<path d="M0 0 C1.65 0 3.3 0 5 0 C5.66 1.65 6.32 3.3 7 5 C7 4.01 7 3.02 7 2 C7.7 2.21 8.4 2.41 9.12 2.62 C12.6 3.08 14.77 2.28 18 1 C18 1.66 18 2.32 18 3 C17.01 3.66 16.02 4.32 15 5 C14.67 5.99 14.34 6.98 14 8 C13.34 8 12.68 8 12 8 C12.33 8.99 12.66 9.98 13 11 C12.01 10.67 11.02 10.34 10 10 C10.33 9.01 10.66 8.02 11 7 C11.66 7 12.32 7 13 7 C13 6.34 13 5.68 13 5 C11.02 5.35 11.02 5.35 9 6 C8.67 6.66 8.34 7.32 8 8 C7.38 7.84 6.76 7.67 6.12 7.5 C4.04 6.92 4.04 6.92 2 7 C2 7.66 2 8.32 2 9 C2.99 9 3.98 9 5 9 C5 9.66 5 10.32 5 11 C4.01 11 3.02 11 2 11 C2 11.66 2 12.32 2 13 C-0.31 13.33 -2.62 13.66 -5 14 C-4.73 13.36 -4.46 12.72 -4.19 12.06 C-2.65 8.09 -1.32 4.05 0 0 Z " fill="#20201D" transform="translate(17,12)"/>
<path d="M0 0 C0.99 0.49 0.99 0.49 2 1 C2.33 18.16 2.66 35.32 3 53 C7.95 53 12.9 53 18 53 C18 53.33 18 53.66 18 54 C12.06 54 6.12 54 0 54 C0 36.18 0 18.36 0 0 Z " fill="#AB732E" transform="translate(10,8)"/>
<path d="M0 0 C2.17 0.51 4 1 6 2 C6.62 4.56 6.62 4.56 7 7 C7.66 7 8.32 7 9 7 C9 5.68 9 4.36 9 3 C11.31 3.33 13.62 3.66 16 4 C16 4.99 16 5.98 16 7 C15.36 7.12 14.72 7.25 14.06 7.38 C13.38 7.58 12.7 7.79 12 8 C11.67 8.66 11.34 9.32 11 10 C11 9.34 11 8.68 11 8 C5.61 8.23 5.61 8.23 1 10.56 C0.67 11.04 0.34 11.51 0 12 C0 11.01 0 10.02 0 9 C-0.64 8.71 -1.28 8.42 -1.94 8.12 C-4 7 -4 7 -5 5 C-2.52 5.5 -2.52 5.5 0 6 C0.66 4.35 1.32 2.7 2 1 C1.34 0.67 0.68 0.34 0 0 Z " fill="#1D1C19" transform="translate(36,16)"/>
<path d="M0 0 C0.33 0 0.66 0 1 0 C1.08 4.52 1.1 8.59 0 13 C-2.31 13 -4.62 13 -7 13 C-7.33 13.66 -7.66 14.32 -8 15 C-8.66 15 -9.32 15 -10 15 C-10 13.35 -10 11.7 -10 10 C-11.32 9.67 -12.64 9.34 -14 9 C-14 8.34 -14 7.68 -14 7 C-9.59 5.9 -5.52 5.92 -1 6 C-0.67 4.02 -0.34 2.04 0 0 Z " fill="#1B1B1B" transform="translate(43,45)"/>
<path d="M0 0 C1.68 0.29 3.34 0.62 5 1 C5 1.33 5 1.66 5 2 C3.35 2 1.7 2 0 2 C0.33 2.33 0.66 2.66 1 3 C2.32 3 3.64 3 5 3 C4.67 4.32 4.34 5.64 4 7 C1 7 -2 7 -5 7 C-5 5.68 -5 4.36 -5 3 C-5.33 3.99 -5.66 4.98 -6 6 C-6.66 6 -7.32 6 -8 6 C-8 6.99 -8 7.98 -8 9 C-8.66 9 -9.32 9 -10 9 C-10.33 6.69 -10.66 4.38 -11 2 C-8.28 0.64 -6.01 0.94 -3 1 C-2.34 1 -1.68 1 -1 1 C-0.67 0.67 -0.34 0.34 0 0 Z " fill="#D7BA6F" transform="translate(29,34)"/>
<path d="M0 0 C0 1.65 0 3.3 0 5 C-2.76 5.6 -5.16 6 -8 6 C-9.73 6.09 -9.73 6.09 -11.5 6.19 C-15 6 -15 6 -16.94 4.5 C-17.46 3.76 -17.46 3.76 -18 3 C-17.67 2.34 -17.34 1.68 -17 1 C-14.49 0.69 -12.08 0.49 -9.56 0.38 C-8.52 0.32 -8.52 0.32 -7.46 0.26 C-4.97 0.12 -2.49 0 0 0 Z " fill="#606060" transform="translate(40,4)"/>
<path d="M0 0 C1.98 0.5 1.98 0.5 4 1 C4 2.32 4 3.64 4 5 C4.66 5 5.32 5 6 5 C6.33 4.34 6.66 3.68 7 3 C7.78 3.21 8.57 3.41 9.38 3.62 C10.24 3.75 11.11 3.87 12 4 C12.66 3.34 13.32 2.68 14 2 C14 3.65 14 5.3 14 7 C12.86 6.91 12.86 6.91 11.69 6.81 C8.95 6.74 8.95 6.74 7.19 8.5 C6.8 8.99 6.4 9.49 6 10 C6 9.01 6 8.02 6 7 C3.69 7.33 1.38 7.66 -1 8 C-0.62 5.56 -0.62 5.56 0 3 C0.66 2.67 1.32 2.34 2 2 C1.34 1.34 0.68 0.68 0 0 Z " fill="#1C1A14" transform="translate(20,28)"/>
<path d="M0 0 C0.99 0 1.98 0 3 0 C3.33 1.32 3.66 2.64 4 4 C6.97 4 9.94 4 13 4 C12.67 4.99 12.34 5.98 12 7 C11.41 6.99 10.82 6.98 10.21 6.96 C5.97 6.92 2.15 7.05 -2 8 C-3.32 8 -4.64 8 -6 8 C-5.67 7.01 -5.34 6.02 -5 5 C-3.35 5.33 -1.7 5.66 0 6 C0 4.02 0 2.04 0 0 Z " fill="#DADADA" transform="translate(21,46)"/>
<path d="M0 0 C4.88 0.88 4.88 0.88 6 2 C6.04 4.33 6.04 6.67 6 9 C3.69 9 1.38 9 -1 9 C-1.33 7.68 -1.66 6.36 -2 5 C-1.67 5.66 -1.34 6.32 -1 7 C0.32 7 1.64 7 3 7 C2.01 6.34 1.02 5.68 0 5 C-0.19 2.38 -0.19 2.38 0 0 Z " fill="#8B8B8B" transform="translate(35,42)"/>
<path d="M0 0 C0.33 0.66 0.66 1.32 1 2 C2.98 2 4.96 2 7 2 C7 2.99 7 3.98 7 5 C6.01 5.49 6.01 5.49 5 6 C5 7.65 5 9.3 5 11 C4.01 11.5 4.01 11.5 3 12 C3 11.34 3 10.68 3 10 C2.34 9.67 1.68 9.34 1 9 C0 8 0 8 -0.1 6.15 C-0.07 4.1 -0.03 2.05 0 0 Z " fill="#242323" transform="translate(12,38)"/>
<path d="M0 0 C0 0.66 0 1.32 0 2 C-0.99 2.5 -0.99 2.5 -2 3 C-2 3.66 -2 4.32 -2 5 C-1.34 5.33 -0.68 5.66 0 6 C0 6.66 0 7.32 0 8 C-0.6 7.81 -1.2 7.63 -1.81 7.44 C-4.16 6.78 -4.16 6.78 -7 8 C-7.33 6.35 -7.66 4.7 -8 3 C-8.99 2.67 -9.98 2.34 -11 2 C-6.25 1 -6.25 1 -4 1 C-2 0 -2 0 0 0 Z " fill="#E5DBA6" transform="translate(30,17)"/>
<path d="M0 0 C10.56 0 21.12 0 32 0 C32 0.99 32 1.98 32 3 C31.01 3 30.02 3 29 3 C29 2.34 29 1.68 29 1 C19.43 1 9.86 1 0 1 C0 0.67 0 0.34 0 0 Z " fill="#E3AB46" transform="translate(22,3)"/>
<path d="M0 0 C0.99 0 1.98 0 3 0 C2.81 1.09 2.63 2.19 2.44 3.31 C1.74 6.94 1.74 6.94 3 10 C2.06 13.19 2.06 13.19 1 16 C-1 14 -1 14 -1.06 10.5 C-1.04 9.34 -1.02 8.19 -1 7 C-1.33 6.34 -1.66 5.68 -2 5 C-1.34 5 -0.68 5 0 5 C0 3.35 0 1.7 0 0 Z " fill="#F0EFEE" transform="translate(41,35)"/>
<path d="M0 0 C0.33 0.99 0.66 1.98 1 3 C2.98 2.67 4.96 2.34 7 2 C7 2.66 7 3.32 7 4 C6.01 4 5.02 4 4 4 C4 4.66 4 5.32 4 6 C1.69 6.33 -0.62 6.66 -3 7 C-1.12 2.25 -1.12 2.25 0 0 Z " fill="#DFDDD4" transform="translate(15,19)"/>
<path d="M0 0 C0.99 0 1.98 0 3 0 C3 0.66 3 1.32 3 2 C5.97 2.5 5.97 2.5 9 3 C8.01 3.33 7.02 3.66 6 4 C6.33 5.98 6.66 7.96 7 10 C6.34 10 5.68 10 5 10 C4.91 8.82 4.91 8.82 4.81 7.62 C4.54 6.76 4.28 5.89 4 5 C1.52 3.63 1.52 3.63 -1 3 C-0.67 2.01 -0.34 1.02 0 0 Z " fill="#D4C8A3" transform="translate(38,13)"/>
<path d="M0 0 C1.65 0 3.3 0 5 0 C5.33 1.32 5.66 2.64 6 4 C3.62 5.06 3.62 5.06 1 6 C0.34 5.67 -0.32 5.34 -1 5 C-0.67 3.35 -0.34 1.7 0 0 Z " fill="#B5B5B5" transform="translate(17,12)"/>
<path d="M0 0 C3 1 3 1 4.19 3.06 C4.46 3.7 4.72 4.34 5 5 C4.34 5 3.68 5 3 5 C3 5.66 3 6.32 3 7 C4.32 7.66 5.64 8.32 7 9 C6.67 9.66 6.34 10.32 6 11 C3.52 10.01 3.52 10.01 1 9 C0.67 6.03 0.34 3.06 0 0 Z " fill="#C9BA93" transform="translate(34,33)"/>
<path d="M0 0 C0 0.66 0 1.32 0 2 C-0.99 2 -1.98 2 -3 2 C-2.67 2.99 -2.34 3.98 -2 5 C-3.65 5 -5.3 5 -7 5 C-7 5.66 -7 6.32 -7 7 C-7.66 7 -8.32 7 -9 7 C-8.67 5.68 -8.34 4.36 -8 3 C-7.34 3 -6.68 3 -6 3 C-6 2.01 -6 1.02 -6 0 C-2.25 -1.12 -2.25 -1.12 0 0 Z " fill="#AD9F6B" transform="translate(33,26)"/>
<path d="M0 0 C1.32 0 2.64 0 4 0 C4 0.66 4 1.32 4 2 C3.34 2 2.68 2 2 2 C2 3.98 2 5.96 2 8 C1.34 8 0.68 8 0 8 C-0.33 9.32 -0.66 10.64 -1 12 C-2.36 7.92 -1.68 5.24 -1 1 C-0.67 0.67 -0.34 0.34 0 0 Z " fill="#C9B682" transform="translate(44,32)"/>
<path d="M0 0 C2.97 0 5.94 0 9 0 C8.67 1.32 8.34 2.64 8 4 C5.69 4 3.38 4 1 4 C0.67 2.68 0.34 1.36 0 0 Z " fill="#BBBBBB" transform="translate(24,6)"/>
<path d="M0 0 C2.48 0.49 2.48 0.49 5 1 C5.33 2.32 5.66 3.64 6 5 C3.03 4.51 3.03 4.51 0 4 C0 2.68 0 1.36 0 0 Z " fill="#5F5F5F" transform="translate(35,42)"/>
<path d="M0 0 C0.66 0 1.32 0 2 0 C2 0.99 2 1.98 2 3 C3.32 2.67 4.64 2.34 6 2 C6.33 2.66 6.66 3.32 7 4 C5.68 4 4.36 4 3 4 C2.67 4.99 2.34 5.98 2 7 C1.67 6.34 1.34 5.68 1 5 C0.01 4.67 -0.98 4.34 -2 4 C-1.34 3.67 -0.68 3.34 0 3 C0 2.01 0 1.02 0 0 Z " fill="#F3F1EA" transform="translate(36,29)"/>
<path d="M0 0 C0.62 1.81 0.62 1.81 1 4 C0.01 5.48 0.01 5.48 -1 7 C-2.65 6.67 -4.3 6.34 -6 6 C-5.34 5.34 -4.68 4.68 -4 4 C-3.67 3.34 -3.34 2.68 -3 2 C-2.01 2 -1.02 2 0 2 C0 1.34 0 0.68 0 0 Z " fill="#E7DAA3" transform="translate(33,26)"/>
<path d="M0 0 C0 0.66 0 1.32 0 2 C-0.99 2.66 -1.98 3.32 -3 4 C-3.33 4.99 -3.66 5.98 -4 7 C-4.66 7 -5.32 7 -6 7 C-5.67 7.99 -5.34 8.98 -5 10 C-5.99 9.67 -6.98 9.34 -8 9 C-7.67 8.01 -7.34 7.02 -7 6 C-6.34 6 -5.68 6 -5 6 C-5 4.35 -5 2.7 -5 1 C-2 0 -2 0 0 0 Z " fill="#7B7A77" transform="translate(35,13)"/>
<path d="M0 0 C1.94 0.31 1.94 0.31 4 1 C5 4 5 4 4 7 C2.68 6.67 1.36 6.34 0 6 C0.66 4.35 1.32 2.7 2 1 C1.34 0.67 0.68 0.34 0 0 Z " fill="#575757" transform="translate(36,16)"/>
<path d="M0 0 C2.64 0 5.28 0 8 0 C6.29 2.78 5.52 3.85 2.31 4.75 C1.17 4.87 1.17 4.87 0 5 C0.33 4.34 0.66 3.68 1 3 C1.66 3 2.32 3 3 3 C3 2.34 3 1.68 3 1 C1.68 1.33 0.36 1.66 -1 2 C-0.67 1.34 -0.34 0.68 0 0 Z " fill="#E2E2E2" transform="translate(32,12)"/>
<path d="M0 0 C0.99 0.33 1.98 0.66 3 1 C3 2.65 3 4.3 3 6 C3.66 6.33 4.32 6.66 5 7 C4.01 7 3.02 7 2 7 C0 5 0 5 -0.12 2.38 C-0.08 1.59 -0.04 0.81 0 0 Z " fill="#37342D" transform="translate(40,25)"/>
<path d="M0 0 C1.21 0.03 1.21 0.03 2.44 0.06 C2.44 0.72 2.44 1.38 2.44 2.06 C1.78 2.06 1.12 2.06 0.44 2.06 C0.44 3.05 0.44 4.04 0.44 5.06 C-0.55 5.06 -1.54 5.06 -2.56 5.06 C-3.12 3.12 -3.12 3.12 -3.56 1.06 C-2.56 0.06 -2.56 0.06 0 0 Z " fill="#656464" transform="translate(18.5625,16.9375)"/>
</svg>
