<?xml version="1.0" encoding="UTF-8"?>
<!-- Generator: https://ezgif.com/png-to-svg -->
<svg version="1.1" xmlns="http://www.w3.org/2000/svg" width="64" height="64">
<path d="M0 0 C1.39 0.02 1.39 0.02 2.8 0.04 C17.42 0.32 17.42 0.32 23.49 4.12 C27.96 8.81 30.78 14.79 31.5 21.25 C30.31 28.18 24.19 32.64 19.05 36.94 C16.87 38.91 14.85 40.94 12.83 43.06 C12.17 43.75 11.51 44.43 10.83 45.14 C9.5 46.53 8.18 47.94 6.87 49.36 C6.25 50 5.63 50.65 4.99 51.31 C4.44 51.9 3.89 52.49 3.32 53.1 C1.5 54.25 1.5 54.25 -1 54.13 C-3.74 53.16 -5 52.21 -6.99 50.12 C-7.61 49.48 -8.23 48.84 -8.87 48.18 C-9.51 47.5 -10.15 46.82 -10.81 46.12 C-12.15 44.75 -13.49 43.37 -14.83 41.99 C-15.46 41.34 -16.1 40.68 -16.76 40.01 C-18.77 37.98 -20.87 36.09 -23.06 34.25 C-25.52 32.15 -27.85 29.99 -30.06 27.62 C-30.81 26.83 -30.81 26.83 -31.57 26.02 C-32.96 23.38 -32.31 22.13 -31.5 19.25 C-25.01 3.07 -16.85 -0.72 0 0 Z " fill="#019393" transform="translate(32.5,3.75)"/>
<path d="M0 0 C9.24 0 18.48 0 28 0 C28 1.65 28 3.3 28 5 C24.7 5 21.4 5 18 5 C18 6.32 18 7.64 18 9 C18.61 9.05 19.23 9.1 19.86 9.15 C20.67 9.22 21.48 9.3 22.31 9.38 C23.11 9.44 23.91 9.51 24.74 9.59 C27 10 27 10 30 12 C30 12.66 30 13.32 30 14 C24.06 13.01 24.06 13.01 18 12 C18 12.99 18 13.98 18 15 C15.36 15 12.72 15 10 15 C10 14.01 10 13.02 10 12 C6.04 12.66 2.08 13.32 -2 14 C-1.67 13.01 -1.34 12.02 -1 11 C2.76 9.38 5.92 8.76 10 9 C10 7.68 10 6.36 10 5 C6.7 5 3.4 5 0 5 C0 3.35 0 1.7 0 0 Z " fill="#FCFDFD" transform="translate(18,14)"/>
<path d="M0 0 C1.22 0.33 2.43 0.66 3.69 1 C13.18 3.09 22.64 2.37 32 0 C31.69 1.94 31.69 1.94 31 4 C28.25 4.92 26.64 5.11 23.81 5.06 C21.93 5.03 21.93 5.03 20 5 C20 7.97 20 10.94 20 14 C17.36 14 14.72 14 12 14 C11.67 11.36 11.34 8.72 11 6 C10.37 5.87 9.75 5.73 9.1 5.6 C8.28 5.42 7.47 5.24 6.62 5.06 C5.81 4.89 5 4.71 4.16 4.54 C2 4 2 4 0 3 C0 2.01 0 1.02 0 0 Z " fill="#F6FBFB" transform="translate(16,29)"/>
</svg>
