<?xml version="1.0" encoding="UTF-8"?>
<!-- Generator: https://ezgif.com/png-to-svg -->
<svg version="1.1" xmlns="http://www.w3.org/2000/svg" width="64" height="64">
<path d="M0 0 C21.12 0 42.24 0 64 0 C64 21.12 64 42.24 64 64 C42.88 64 21.76 64 0 64 C0 42.88 0 21.76 0 0 Z " fill="#A99D91" transform="translate(0,0)"/>
<path d="M0 0 C1.83 -0 1.83 -0 3.71 -0.01 C6.68 0.11 9.31 0.43 12.19 1.12 C12.19 1.79 12.19 2.45 12.19 3.12 C13.51 3.12 14.83 3.12 16.19 3.12 C20.19 9.88 20.19 9.88 20.19 12.12 C21.51 12.78 22.83 13.45 24.19 14.12 C23.2 14.45 22.21 14.78 21.19 15.12 C20.53 14.8 19.87 14.47 19.19 14.12 C19.19 14.78 19.19 15.45 19.19 16.12 C20.51 16.45 21.83 16.78 23.19 17.12 C21.87 17.12 20.55 17.12 19.19 17.12 C19.19 17.78 19.19 18.45 19.19 19.12 C20.84 18.8 22.49 18.47 24.19 18.12 C24.68 19.12 24.68 19.12 25.19 20.12 C24.2 20.45 23.21 20.78 22.19 21.12 C22.85 21.78 23.51 22.45 24.19 23.12 C24.19 23.78 24.19 24.45 24.19 25.12 C22.87 25.12 21.55 25.12 20.19 25.12 C19.86 26.45 19.53 27.77 19.19 29.12 C19.85 29.12 20.51 29.12 21.19 29.12 C20.84 29.74 20.49 30.36 20.12 31 C19.82 31.7 19.51 32.4 19.19 33.12 C19.52 33.78 19.85 34.45 20.19 35.12 C14.97 35.17 9.76 35.21 4.54 35.23 C2.77 35.24 1 35.26 -0.78 35.28 C-3.33 35.3 -5.88 35.31 -8.43 35.32 C-9.62 35.34 -9.62 35.34 -10.83 35.35 C-14.69 35.35 -16.52 35.32 -19.81 33.12 C-19.81 32.47 -19.81 31.8 -19.81 31.12 C-20.8 31.45 -21.79 31.78 -22.81 32.12 C-22.81 31.14 -22.81 30.14 -22.81 29.12 C-21.82 29.12 -20.83 29.12 -19.81 29.12 C-18.44 22.76 -18.44 22.76 -20.88 16.94 C-21.51 16.01 -22.15 15.08 -22.81 14.12 C-22.09 10.43 -20.9 8.26 -18.81 5.12 C-16.5 3.99 -16.5 3.99 -13.81 3 C-12.93 2.67 -12.04 2.33 -11.12 1.99 C-10.36 1.71 -9.6 1.42 -8.81 1.12 C-5.88 -0.34 -3.26 -0.01 0 0 Z " fill="#897055" transform="translate(35.8125,28.875)"/>
<path d="M0 0 C2.78 0.38 4.59 0.67 6.81 2.44 C8 4 8 4 8 6 C8.76 6.08 9.53 6.16 10.31 6.25 C13 7 13 7 14.65 8.58 C16.53 11.95 16.34 14.55 16.29 18.39 C16.29 19.1 16.28 19.8 16.28 20.53 C16.26 22.77 16.23 25.01 16.19 27.25 C16.17 28.77 16.16 30.3 16.15 31.82 C16.11 35.55 16.06 39.27 16 43 C9.95 43.2 9.95 43.2 8 43 C7.34 42.34 6.68 41.68 6 41 C6.66 40.01 7.32 39.02 8 38 C7.67 37.67 7.34 37.34 7 37 C7.25 35.06 7.25 35.06 8 33 C8.99 32.34 9.98 31.68 11 31 C10.34 30.34 9.68 29.68 9 29 C9.99 28.34 10.98 27.68 12 27 C10.35 27 8.7 27 7 27 C7 25.35 7 23.7 7 22 C7.99 22 8.98 22 10 22 C9.01 21.34 8.02 20.68 7 20 C6.63 18.68 6.3 17.34 6 16 C5.21 14.66 4.38 13.35 3.5 12.06 C0.85 7.96 0 4.89 0 0 Z " fill="#A28E79" transform="translate(48,21)"/>
<path d="M0 0 C2.33 1.48 3.01 2.72 4 5.27 C2.02 5.27 0.04 5.27 -2 5.27 C-2 5.93 -2 6.59 -2 7.27 C-5.57 7.77 -9.1 8.27 -12.69 8.58 C-16.41 9.35 -17.66 10.36 -20 13.27 C-23.88 10.64 -23.88 10.64 -25 7.27 C-25.66 6.94 -26.32 6.61 -27 6.27 C-27.33 7.92 -27.66 9.57 -28 11.27 C-28.66 11.27 -29.32 11.27 -30 11.27 C-29.13 6.72 -28.68 4.77 -24.88 1.95 C-23.93 1.4 -22.98 0.84 -22 0.27 C-22 -0.39 -22 -1.05 -22 -1.73 C-14.45 -4.25 -7.22 -2.91 0 0 Z " fill="#402310" transform="translate(47.00390625,35.734375)"/>
<path d="M0 0 C1.83 -0 1.83 -0 3.71 -0.01 C6.68 0.11 9.31 0.43 12.19 1.12 C12.34 2.08 12.34 2.08 12.5 3.06 C12.84 4.08 12.84 4.08 13.19 5.12 C14.18 5.45 15.17 5.78 16.19 6.12 C17.64 9.02 18.19 10.87 18.19 14.12 C16.21 13.8 14.23 13.47 12.19 13.12 C11.86 14.45 11.53 15.77 11.19 17.12 C10.55 17.25 9.91 17.37 9.25 17.5 C8.57 17.71 7.89 17.91 7.19 18.12 C6.86 18.78 6.53 19.45 6.19 20.12 C5.53 18.48 4.87 16.83 4.19 15.12 C5.84 14.8 7.49 14.47 9.19 14.12 C9.19 13.47 9.19 12.8 9.19 12.12 C10.84 11.8 12.49 11.47 14.19 11.12 C11.33 6.84 8.1 6.19 3.19 5.12 C-0.52 4.76 -4.13 4.51 -7.81 5.12 C-9.53 6.48 -9.53 6.48 -10.81 8.12 C-14.48 11.12 -14.48 11.12 -16.81 11.12 C-17.47 13.44 -18.13 15.75 -18.81 18.12 C-20.13 16.8 -21.45 15.48 -22.81 14.12 C-21.75 10.72 -20.8 8.11 -18.81 5.12 C-16.5 3.99 -16.5 3.99 -13.81 3 C-12.93 2.67 -12.04 2.33 -11.12 1.99 C-10.36 1.71 -9.6 1.42 -8.81 1.12 C-5.88 -0.34 -3.26 -0.01 0 0 Z " fill="#694033" transform="translate(35.8125,28.875)"/>
<path d="M0 0 C2.64 0 5.28 0 8 0 C8 1.98 8 3.96 8 6 C9.32 6.66 10.64 7.32 12 8 C12.42 7.49 12.84 6.99 13.28 6.47 C13.83 5.82 14.37 5.17 14.94 4.5 C15.76 3.53 15.76 3.53 16.59 2.53 C17.06 2.03 17.52 1.52 18 1 C18.33 1 18.66 1 19 1 C19.12 7.75 19.12 7.75 18 10 C15.93 10.63 15.93 10.63 13.44 11.12 C12.61 11.29 11.78 11.46 10.93 11.63 C10.3 11.75 9.66 11.88 9 12 C9 12.99 9 13.98 9 15 C2.73 15 -3.54 15 -10 15 C-9.01 13.35 -8.02 11.7 -7 10 C-7.99 9.67 -8.98 9.34 -10 9 C-10.33 7.02 -10.66 5.04 -11 3 C-10.52 3.42 -10.04 3.84 -9.54 4.28 C-8.91 4.83 -8.28 5.37 -7.62 5.94 C-7 6.48 -6.37 7.03 -5.73 7.59 C-4.04 9.07 -4.04 9.07 -2 10 C-2 9.34 -2 8.68 -2 8 C-1.34 7.67 -0.68 7.34 0 7 C0 4.69 0 2.38 0 0 Z " fill="#6D593C" transform="translate(31,49)"/>
<path d="M0 0 C3 1 3 1 6 3 C6 3.66 6 4.32 6 5 C6.99 5.33 7.98 5.66 9 6 C12 8 12 8 13 9 C13.33 9 13.66 9 14 9 C14 10.98 14 12.96 14 15 C11.71 14.91 9.42 14.81 7.12 14.69 C5.85 14.63 4.57 14.57 3.26 14.51 C1.65 14.26 1.65 14.26 0 14 C-0.66 13.01 -1.32 12.02 -2 11 C-2.54 11.62 -3.07 12.24 -3.62 12.88 C-6.31 15.28 -8.55 16.06 -12 17 C-11.67 15.35 -11.34 13.7 -11 12 C-10.34 12 -9.68 12 -9 12 C-8.39 10.16 -7.81 8.31 -7.31 6.44 C-6 4 -6 4 -2.88 2.69 C-1.45 2.35 -1.45 2.35 0 2 C0 1.34 0 0.68 0 0 Z " fill="#BA806D" transform="translate(30,15)"/>
<path d="M0 0 C0.99 0.33 1.98 0.66 3 1 C3.33 1.99 3.66 2.98 4 4 C6 5.69 6 5.69 8 7 C7.67 7.99 7.34 8.98 7 10 C6.34 10 5.68 10 5 10 C5 10.66 5 11.32 5 12 C6.94 11.72 6.94 11.72 9 11 C9.66 10.01 10.32 9.02 11 8 C11.33 9.98 11.66 11.96 12 14 C11.01 14.33 10.02 14.66 9 15 C9 15.66 9 16.32 9 17 C5.09 15.73 3.21 14.49 1 11 C1.34 13.47 1.34 13.47 2 16 C2.66 16.33 3.32 16.66 4 17 C3.67 18.32 3.34 19.64 3 21 C1.19 21.62 1.19 21.62 -1 22 C-1.99 21.34 -2.98 20.68 -4 20 C-4 19.34 -4 18.68 -4 18 C-4.99 18.33 -5.98 18.66 -7 19 C-7 18.01 -7 17.02 -7 16 C-6.01 16 -5.02 16 -4 16 C-3.83 14.54 -3.67 13.08 -3.5 11.62 C-3.41 10.81 -3.31 10 -3.22 9.16 C-2.97 7.03 -2.97 7.03 -3 5 C-2.34 5 -1.68 5 -1 5 C-0.67 3.35 -0.34 1.7 0 0 Z " fill="#7C6649" transform="translate(20,42)"/>
<path d="M0 0 C1.63 2 1.63 2 3 4 C4.98 3.73 4.98 3.73 7 3 C7.33 2.01 7.66 1.02 8 0 C8.66 0.33 9.32 0.66 10 1 C10.44 3.5 10.44 3.5 10 7 C7.92 9.92 5.52 12.46 3 15 C0.52 13.52 0.52 13.52 -2 12 C-1.67 10.02 -1.34 8.04 -1 6 C-5.07 6.19 -5.07 6.19 -9 7 C-11.06 9.41 -11.06 9.41 -12 12 C-12.99 11.67 -13.98 11.34 -15 11 C-15 10.34 -15 9.68 -15 9 C-14.34 8.67 -13.68 8.34 -13 8 C-12.32 6.34 -11.65 4.67 -11 3 C-7.97 -0.03 -4.18 0 0 0 Z " fill="#A9854E" transform="translate(40,43)"/>
<path d="M0 0 C3.86 -0.22 6.49 0.4 10 2 C10 1.34 10 0.68 10 0 C11.98 0 13.96 0 16 0 C16.66 1.32 17.32 2.64 18 4 C16.02 4 14.04 4 12 4 C12 4.99 12 5.98 12 7 C9.04 8.48 6.26 8.06 3 8 C3 7.01 3 6.02 3 5 C2.34 5 1.68 5 1 5 C0.67 3.35 0.34 1.7 0 0 Z " fill="#624622" transform="translate(28,36)"/>
<path d="M0 0 C4.25 1.42 5.81 4.21 8 8 C8.69 10.75 8.69 10.75 9 13 C9.99 14.48 9.99 14.48 11 16 C6.85 15.53 3.96 15.07 1 12 C0.25 9.31 0.25 9.31 0 7 C-0.99 7 -1.98 7 -3 7 C-2 4 -2 4 1 2 C0.67 1.34 0.34 0.68 0 0 Z " fill="#EBAF92" transform="translate(41,16)"/>
<path d="M0 0 C2.64 0 5.28 0 8 0 C7.94 0.93 7.88 1.86 7.81 2.81 C7.67 6.33 7.67 6.33 11 9 C6.71 9 2.42 9 -2 9 C-1.34 8.34 -0.68 7.68 0 7 C0.17 3.42 0.17 3.42 0 0 Z " fill="#19150F" transform="translate(31,49)"/>
<path d="M0 0 C-1.31 8.24 -1.31 8.24 -3.75 10.94 C-6.44 12.21 -9.15 13.16 -12 14 C-11.67 12.35 -11.34 10.7 -11 9 C-10.34 9 -9.68 9 -9 9 C-8.38 7.15 -7.78 5.3 -7.19 3.44 C-6 1 -6 1 -4 -0.38 C-2 -1 -2 -1 0 0 Z " fill="#A97565" transform="translate(30,18)"/>
<path d="M0 0 C0.66 0.33 1.32 0.66 2 1 C2.35 4.77 2.25 6.59 0.25 9.88 C-2 12 -2 12 -6 12 C-6 11.34 -6 10.68 -6 10 C-6.66 10 -7.32 10 -8 10 C-8 8.35 -8 6.7 -8 5 C-6.87 4.73 -5.73 4.46 -4.56 4.19 C-3.39 3.8 -2.21 3.4 -1 3 C-0.67 2.01 -0.34 1.02 0 0 Z " fill="#AF9F7C" transform="translate(48,43)"/>
<path d="M0 0 C1.42 1.36 1.42 1.36 2.88 2.75 C7.11 6.42 11.75 8.2 17 10 C16.67 10.66 16.34 11.32 16 12 C11.05 12 6.1 12 1 12 C1.99 10.35 2.98 8.7 4 7 C3.01 6.67 2.02 6.34 1 6 C0.67 4.02 0.34 2.04 0 0 Z " fill="#574426" transform="translate(20,52)"/>
<path d="M0 0 C0.33 0 0.66 0 1 0 C1 1.98 1 3.96 1 6 C1.66 6 2.32 6 3 6 C4.69 7.25 4.69 7.25 6 9 C5.69 11.19 5.69 11.19 5 13 C3.19 13.62 3.19 13.62 1 14 C0.01 13.34 -0.98 12.68 -2 12 C-2 11.34 -2 10.68 -2 10 C-2.99 10.33 -3.98 10.66 -5 11 C-5 10.01 -5 9.02 -5 8 C-4.01 8 -3.02 8 -2 8 C-1.34 5.36 -0.68 2.72 0 0 Z " fill="#A1865C" transform="translate(18,50)"/>
<path d="M0 0 C1.98 0.11 3.96 0.24 5.94 0.38 C7.04 0.44 8.14 0.51 9.28 0.59 C10.63 0.79 10.63 0.79 12 1 C12.33 1.66 12.66 2.32 13 3 C12.34 3 11.68 3 11 3 C11.33 4.32 11.66 5.64 12 7 C11.01 7 10.02 7 9 7 C9 6.34 9 5.68 9 5 C7.05 4.41 7.05 4.41 5 4 C4.67 4.33 4.34 4.66 4 5 C1.52 4.01 1.52 4.01 -1 3 C-0.67 2.01 -0.34 1.02 0 0 Z " fill="#F4BFA3" transform="translate(27,13)"/>
<path d="M0 0 C0.66 0.33 1.32 0.66 2 1 C2 1.99 2 2.98 2 4 C3.32 4.33 4.64 4.66 6 5 C6 5.99 6 6.98 6 8 C6.66 8 7.32 8 8 8 C8 8.66 8 9.32 8 10 C4.06 11.31 1.88 10.24 -2 9 C-2 8.67 -2 8.34 -2 8 C-1.01 7.67 -0.02 7.34 1 7 C0.01 6.34 -0.98 5.68 -2 5 C-1.34 5 -0.68 5 0 5 C-0.33 4.01 -0.66 3.02 -1 2 C-0.67 1.34 -0.34 0.68 0 0 Z " fill="#E0A58E" transform="translate(33,19)"/>
<path d="M0 0 C2.38 -0.12 2.38 -0.12 5 0 C5.66 0.66 6.32 1.32 7 2 C8.32 2.7 9.65 3.37 11 4 C9.68 5.32 8.36 6.64 7 8 C3.12 5.38 3.12 5.38 2 2 C1.34 1.34 0.68 0.68 0 0 Z " fill="#563C1E" transform="translate(20,41)"/>
<path d="M0 0 C9.41 -0.37 9.41 -0.37 14 2 C13.67 2.66 13.34 3.32 13 4 C10.98 3.71 8.96 3.41 6.95 3.12 C4.92 2.83 4.92 2.83 3 4 C0.88 3.06 0.88 3.06 -1 2 C-0.67 1.34 -0.34 0.68 0 0 Z " fill="#85544A" transform="translate(29,29)"/>
<path d="M0 0 C0.66 0.33 1.32 0.66 2 1 C1.72 2.48 1.42 3.96 1.12 5.44 C0.96 6.26 0.8 7.08 0.63 7.93 C0.42 8.62 0.22 9.3 0 10 C-0.99 10.5 -0.99 10.5 -2 11 C-1.98 10.03 -1.96 9.06 -1.94 8.06 C-1.64 5.13 -1.64 5.13 -3 4 C-3.33 5.32 -3.66 6.64 -4 8 C-4.69 6.19 -4.69 6.19 -5 4 C-3.48 2.04 -2.22 1.11 0 0 Z " fill="#8B594C" transform="translate(28,17)"/>
<path d="M0 0 C0.99 0.33 1.98 0.66 3 1 C2.94 2.81 2.94 2.81 2 5 C-3.77 8.16 -3.77 8.16 -7.44 7.69 C-7.95 7.46 -8.47 7.23 -9 7 C-6.15 4.68 -3.46 3.25 0 2 C0 1.34 0 0.68 0 0 Z " fill="#E3AB94" transform="translate(27,25)"/>
<path d="M0 0 C2.19 1.1 4.25 2.25 6 4 C6.33 4 6.66 4 7 4 C7 5.98 7 7.96 7 10 C6.01 9.67 5.02 9.34 4 9 C4 8.34 4 7.68 4 7 C3.34 7 2.68 7 2 7 C2 6.01 2 5.02 2 4 C1.01 3.67 0.02 3.34 -1 3 C-0.67 2.01 -0.34 1.02 0 0 Z " fill="#C88971" transform="translate(37,20)"/>
<path d="M0 0 C1.32 0.99 2.64 1.98 4 3 C3.67 4.32 3.34 5.64 3 7 C-0.75 8.12 -0.75 8.12 -3 7 C-2.67 5.68 -2.34 4.36 -2 3 C-1.34 3 -0.68 3 0 3 C0 2.01 0 1.02 0 0 Z " fill="#856E46" transform="translate(20,56)"/>
<path d="M0 0 C0.99 0.33 1.98 0.66 3 1 C3.33 0.67 3.66 0.34 4 0 C6.47 1.15 8.05 2.05 10 4 C5.71 4 1.42 4 -3 4 C-2.01 2.68 -1.02 1.36 0 0 Z " fill="#3B3023" transform="translate(32,54)"/>
<path d="M0 0 C2.62 -0.19 2.62 -0.19 5 0 C5.33 0.66 5.66 1.32 6 2 C5.34 2 4.68 2 4 2 C4.33 3.32 4.66 4.64 5 6 C4.01 6 3.02 6 2 6 C2 5.34 2 4.68 2 4 C0.68 3.67 -0.64 3.34 -2 3 C-1.34 2.01 -0.68 1.02 0 0 Z " fill="#E1AA92" transform="translate(34,14)"/>
<path d="M0 0 C0.66 0.33 1.32 0.66 2 1 C2 2.98 2 4.96 2 7 C1.67 6.01 1.34 5.02 1 4 C-0.65 4.33 -2.3 4.66 -4 5 C-4.33 6.32 -4.66 7.64 -5 9 C-5.33 8.01 -5.66 7.02 -6 6 C-4.62 4.5 -4.62 4.5 -3 3 C-2.34 3 -1.68 3 -1 3 C-0.67 2.01 -0.34 1.02 0 0 Z " fill="#B19567" transform="translate(48,43)"/>
<path d="M0 0 C3.39 1.13 4.78 2.23 7 5 C6.75 7.25 6.75 7.25 6 9 C5.34 8.67 4.68 8.34 4 8 C3.38 5.94 3.38 5.94 3 4 C2.34 5.32 1.68 6.64 1 8 C0.67 5.36 0.34 2.72 0 0 Z " fill="#9A6151" transform="translate(30,15)"/>
<path d="M0 0 C0.33 0.99 0.66 1.98 1 3 C3.5 4.22 3.5 4.22 6 5 C5.01 5.99 4.02 6.98 3 8 C0.94 6.25 0.94 6.25 -1 4 C-0.75 1.75 -0.75 1.75 0 0 Z " fill="#87785B" transform="translate(39,50)"/>
<path d="M0 0 C0.66 0 1.32 0 2 0 C2.33 0.99 2.66 1.98 3 3 C3.99 3 4.98 3 6 3 C5.34 4.32 4.68 5.64 4 7 C3.34 7 2.68 7 2 7 C2 6.34 2 5.68 2 5 C1.34 5 0.68 5 0 5 C0 3.35 0 1.7 0 0 Z " fill="#CAB284" transform="translate(40,48)"/>
<path d="M0 0 C-0.33 0.99 -0.66 1.98 -1 3 C-2.32 3.37 -3.66 3.71 -5 4 C-5.33 4.66 -5.66 5.32 -6 6 C-6.66 4.35 -7.32 2.7 -8 1 C-5.07 0.02 -3.04 -0.08 0 0 Z " fill="#8C6837" transform="translate(48,43)"/>
<path d="M0 0 C0 0.66 0 1.32 0 2 C-0.66 2 -1.32 2 -2 2 C-2 2.66 -2 3.32 -2 4 C-3.65 4 -5.3 4 -7 4 C-7 3.01 -7 2.02 -7 1 C-4 0 -4 0 0 0 Z " fill="#917D5B" transform="translate(47,60)"/>
<path d="M0 0 C0.99 0 1.98 0 3 0 C2.4 2.02 1.73 4.02 1 6 C0.01 6.49 0.01 6.49 -1 7 C-1.66 6.67 -2.32 6.34 -3 6 C-3 5.34 -3 4.68 -3 4 C-2.34 3.67 -1.68 3.34 -1 3 C-0.67 2.01 -0.34 1.02 0 0 Z " fill="#A58E67" transform="translate(28,48)"/>
<path d="M0 0 C2.97 0.49 2.97 0.49 6 1 C6 1.99 6 2.98 6 4 C4.35 3.67 2.7 3.34 1 3 C0.67 2.01 0.34 1.02 0 0 Z " fill="#160D08" transform="translate(25,40)"/>
<path d="M0 0 C1.65 0 3.3 0 5 0 C5 0.99 5 1.98 5 3 C3.35 3.33 1.7 3.66 0 4 C0 2.68 0 1.36 0 0 Z " fill="#1B110A" transform="translate(40,40)"/>
<path d="M0 0 C0.99 0 1.98 0 3 0 C3.33 1.32 3.66 2.64 4 4 C1.69 4 -0.62 4 -3 4 C-1.69 2 -1.69 2 0 0 Z " fill="#69573A" transform="translate(24,60)"/>
<path d="M0 0 C0.66 0.66 1.32 1.32 2 2 C1.62 4.62 1.62 4.62 1 7 C0.01 7.33 -0.98 7.66 -2 8 C-2.33 7.34 -2.66 6.68 -3 6 C-2.34 5.67 -1.68 5.34 -1 5 C-0.34 2.47 -0.34 2.47 0 0 Z " fill="#5F523F" transform="translate(30,50)"/>
</svg>
