<?xml version="1.0" encoding="UTF-8"?>
<!-- Generator: https://ezgif.com/png-to-svg -->
<svg version="1.1" xmlns="http://www.w3.org/2000/svg" width="64" height="64">
<path d="M0 0 C7.46 5.36 13.09 12.34 14.66 21.56 C15.51 32.67 13.85 40.82 6.68 49.48 C-0.13 56.47 -7.51 59.56 -17.22 59.87 C-27.15 59.65 -34.2 56.51 -41.34 49.56 C-48.44 40.98 -50.23 32.54 -49.34 21.56 C-47.76 12.49 -42.29 5.36 -34.84 0.12 C-24.12 -6.38 -10.74 -6.6 0 0 Z " fill="#0A0A0A" transform="translate(49.34375,4.44140625)"/>
<path d="M0 0 C3.34 2.86 4.43 4.72 5 9.09 C5.17 17.32 5.17 17.32 3.5 20.14 C2.12 21.5 2.12 21.5 -0.38 23.25 C1.27 23.58 2.92 23.91 4.62 24.25 C5.04 30.31 4.75 33.44 0.62 38.25 C-2.36 40.6 -5.59 40.67 -9.34 40.57 C-12.73 40.04 -14.82 38.44 -17.38 36.25 C-20.46 31.44 -20.15 25.74 -19.38 20.25 C-17.93 17.81 -16.73 16.9 -14.38 15.25 C-16.02 14.92 -17.68 14.59 -19.38 14.25 C-19.79 8.19 -19.5 5.06 -15.38 0.25 C-10.74 -3.39 -4.86 -2.52 0 0 Z " fill="#F1F1F1" transform="translate(39.375,12.75)"/>
<path d="M0 0 C0.99 0.33 1.98 0.66 3 1 C3 8.92 3 16.84 3 25 C1.68 25 0.36 25 -1 25 C-1.03 21.02 -1.05 17.04 -1.06 13.06 C-1.07 11.93 -1.08 10.79 -1.09 9.62 C-1.09 8.54 -1.09 7.46 -1.1 6.35 C-1.1 5.35 -1.11 4.35 -1.11 3.32 C-1 1 -1 1 0 0 Z " fill="#0A0A0A" transform="translate(31,19)"/>
</svg>
